<svg width="11" height="10" viewBox="0 0 11 10" fill="none" xmlns="http://www.w3.org/2000/svg">
<path d="M1.64159 0.500003L9.35842 0.500003C9.66307 0.499516 9.96162 0.594052 10.2195 0.772666C10.4774 0.951281 10.6841 1.20667 10.8156 1.50927C10.9696 1.86832 11.0289 2.26778 10.9868 2.66214C10.9447 3.05649 10.8028 3.42989 10.5773 3.73977L6.71893 8.88706C6.56751 9.07946 6.3803 9.23376 6.17 9.33952C5.95969 9.44527 5.7312 9.5 5.5 9.5C5.26881 9.5 5.04031 9.44527 4.83 9.33952C4.6197 9.23376 4.43249 9.07946 4.28107 8.88706L0.422654 3.73977C0.197193 3.42989 0.0553131 3.05649 0.0131826 2.66214C-0.0289469 2.26778 0.0303688 1.86832 0.184369 1.50927C0.315924 1.20667 0.522607 0.951281 0.780495 0.772666C1.03838 0.594052 1.33693 0.499516 1.64159 0.500003Z" fill="#2E3749"/>
</svg>
