<svg width="10" height="8" viewBox="0 0 10 8" fill="none" xmlns="http://www.w3.org/2000/svg">
<path d="M1.49235 0.500001L8.50765 0.500001C8.78461 0.499597 9.05602 0.578376 9.29046 0.727221C9.5249 0.876067 9.7128 1.08889 9.83239 1.34106C9.97239 1.64026 10.0263 1.97315 9.98801 2.30178C9.94971 2.63041 9.82073 2.94157 9.61577 3.19981L6.10812 7.48922C5.97046 7.64955 5.80028 7.77814 5.60909 7.86626C5.4179 7.95439 5.21018 8 5 8C4.78982 8 4.5821 7.95439 4.39091 7.86626C4.19972 7.77814 4.02954 7.64955 3.89188 7.48922L0.384231 3.19981C0.179266 2.94157 0.0502844 2.63041 0.0119839 2.30178C-0.0263157 1.97315 0.0276079 1.64026 0.167608 1.34106C0.287203 1.08889 0.475097 0.876067 0.70954 0.727221C0.943985 0.578376 1.21539 0.499597 1.49235 0.500001Z" fill="#72CEC6"/>
</svg>
