<svg width="9" height="7" viewBox="0 0 9 7" fill="none" xmlns="http://www.w3.org/2000/svg">
<path d="M1.34312 1.43051e-06L7.65689 1.43051e-06C7.90615 -0.000376225 8.15041 0.0731511 8.36141 0.212073C8.57241 0.350996 8.74152 0.549633 8.84915 0.784991C8.97515 1.06425 9.02368 1.37494 8.98921 1.68166C8.95474 1.98838 8.83866 2.2788 8.65419 2.51982L5.49731 6.52327C5.37342 6.67291 5.22025 6.79293 5.04818 6.87518C4.87611 6.95743 4.68916 7 4.5 7C4.31084 7 4.12389 6.95743 3.95182 6.87518C3.77975 6.79293 3.62658 6.67291 3.50269 6.52327L0.345808 2.51982C0.16134 2.2788 0.0452557 1.98838 0.0107861 1.68166C-0.0236835 1.37494 0.024848 1.06425 0.150847 0.784991C0.258483 0.549633 0.427588 0.350996 0.638587 0.212073C0.849586 0.0731511 1.09385 -0.000376225 1.34312 1.43051e-06Z" fill="#FBFBFE"/>
</svg>
