<svg width="10" height="8" viewBox="0 0 10 8" fill="none" xmlns="http://www.w3.org/2000/svg">
<path d="M1.49235 1.43051e-06L8.50765 1.43051e-06C8.78461 -0.000430107 9.05602 0.083601 9.29046 0.24237C9.5249 0.401138 9.7128 0.628151 9.83239 0.897133C9.97239 1.21628 10.0263 1.57136 9.98801 1.9219C9.94971 2.27244 9.82073 2.60435 9.61577 2.87979L6.10812 7.45517C5.97046 7.62619 5.80028 7.76334 5.60909 7.85735C5.4179 7.95135 5.21018 8 5 8C4.78982 8 4.5821 7.95135 4.39091 7.85735C4.19972 7.76334 4.02954 7.62619 3.89188 7.45517L0.384231 2.87979C0.179266 2.60435 0.0502844 2.27244 0.0119839 1.9219C-0.0263157 1.57136 0.0276079 1.21628 0.167608 0.897133C0.287203 0.628151 0.475097 0.401138 0.70954 0.24237C0.943985 0.083601 1.21539 -0.000430107 1.49235 1.43051e-06Z" fill="#ACADDF"/>
</svg>
