<svg width="16" height="16" viewBox="0 0 16 16" fill="none" xmlns="http://www.w3.org/2000/svg">
<path d="M0.318191 0.320464C0.742446 -0.103729 1.4303 -0.103729 1.85455 0.320464L15.6818 14.1457C16.1061 14.5699 16.1061 15.2577 15.6818 15.6819C15.2576 16.106 14.5697 16.106 14.1454 15.6819L0.318191 1.8566C-0.106063 1.43241 -0.106064 0.744657 0.318191 0.320464Z" fill="#A4A6AF"/>
<path d="M0.318191 15.6795C-0.106064 15.2553 -0.106064 14.5676 0.318191 14.1434L14.1454 0.318145C14.5697 -0.106048 15.2576 -0.106048 15.6818 0.318145C16.1061 0.742338 16.1061 1.43009 15.6818 1.85428L1.85455 15.6795C1.4303 16.1037 0.742446 16.1037 0.318191 15.6795Z" fill="#A4A6AF"/>
</svg>
