<svg width="24" height="24" viewBox="0 0 24 24" fill="none" xmlns="http://www.w3.org/2000/svg">
<path fill-rule="evenodd" clip-rule="evenodd" d="M12 24C6.34314 24 3.51472 24 1.75736 22.2426C-1.43051e-07 20.4853 0 17.6568 0 12C0 6.34314 -1.43051e-07 3.51472 1.75736 1.75736C3.51472 -1.43051e-07 6.34314 0 12 0C17.6568 0 20.4853 -1.43051e-07 22.2426 1.75736C24 3.51472 24 6.34314 24 12C24 17.6568 24 20.4853 22.2426 22.2426C20.4853 24 17.6568 24 12 24ZM8.1 5.39998C8.1 4.90291 7.69705 4.49998 7.2 4.49998C6.70295 4.49998 6.3 4.90291 6.3 5.39998V6.89999H4.8C4.30295 6.89999 3.9 7.30294 3.9 7.79999C3.9 8.29705 4.30295 8.69999 4.8 8.69999H6.3V10.2C6.3 10.697 6.70295 11.1 7.2 11.1C7.69705 11.1 8.1 10.697 8.1 10.2V8.69999H9.6C10.097 8.69999 10.5 8.29705 10.5 7.79999C10.5 7.30294 10.097 6.89999 9.6 6.89999H8.1V5.39998ZM14.4 6.89998C13.903 6.89998 13.5 7.30291 13.5 7.79998C13.5 8.29703 13.903 8.69998 14.4 8.69998H19.2C19.697 8.69998 20.1 8.29703 20.1 7.79998C20.1 7.30291 19.697 6.89998 19.2 6.89998H14.4ZM14.4 14.1C13.903 14.1 13.5 14.503 13.5 15C13.5 15.497 13.903 15.9 14.4 15.9H19.2C19.697 15.9 20.1 15.497 20.1 15C20.1 14.503 19.697 14.1 19.2 14.1H14.4ZM6.0364 14.3636C5.68493 14.0122 5.11507 14.0122 4.7636 14.3636C4.41214 14.7151 4.41214 15.2849 4.7636 15.6364L5.92722 16.8L4.76362 17.9636C4.41215 18.3151 4.41215 18.8849 4.76362 19.2364C5.1151 19.5878 5.68494 19.5878 6.03641 19.2364L7.20001 18.0728L8.36359 19.2364C8.71506 19.5878 9.2849 19.5878 9.63636 19.2364C9.98784 18.8849 9.98784 18.3151 9.63636 17.9636L8.4728 16.8L9.63636 15.6364C9.98784 15.2849 9.98784 14.7151 9.63636 14.3636C9.28493 14.0122 8.71507 14.0122 8.3636 14.3636L7.20001 15.5272L6.0364 14.3636ZM14.4 17.7C13.903 17.7 13.5 18.103 13.5 18.6C13.5 19.097 13.903 19.5 14.4 19.5H19.2C19.697 19.5 20.1 19.097 20.1 18.6C20.1 18.103 19.697 17.7 19.2 17.7H14.4Z" fill="#FBFBFE"/>
</svg>
