<svg width="18" height="18" viewBox="0 0 18 18" fill="none" xmlns="http://www.w3.org/2000/svg">
<path d="M9.92308 0.901306V9.25519L12.9597 6.27583C13.1334 6.11194 13.3665 6.02058 13.6093 6.02265C13.8527 6.02473 14.0847 6.12055 14.2555 6.28815C14.4262 6.45561 14.5222 6.68122 14.5242 6.91613C14.5263 7.15041 14.4348 7.37699 14.268 7.54713L9.65415 12.074C9.48137 12.2434 9.24616 12.3394 9 12.3394C8.75384 12.3394 8.5186 12.2434 8.34582 12.0739L3.73049 7.54564L3.72758 7.54289C3.6396 7.45952 3.56968 7.36004 3.52166 7.25037C3.47365 7.14072 3.44845 7.02295 3.44739 6.9039C3.44634 6.78485 3.46945 6.66668 3.51551 6.55624C3.56156 6.4458 3.6297 6.34516 3.71616 6.26033C3.80264 6.17549 3.90571 6.10816 4.01948 6.06249C4.13326 6.01682 4.25532 5.99378 4.3785 5.99483C4.50167 5.99588 4.62329 6.02099 4.73623 6.06859C4.84915 6.11618 4.95097 6.18527 5.0359 6.27155L8.07692 9.25519V0.901306C8.07692 0.663699 8.17309 0.434915 8.34573 0.265534C8.51851 0.096006 8.75378 0 9 0C9.24622 0 9.48149 0.096006 9.65427 0.265534C9.82691 0.434915 9.92308 0.663699 9.92308 0.901306Z" fill="#FBFBFE"/>
<path d="M1.84615 13.7025V16.1974H16.1538V13.7025C16.1538 13.4649 16.25 13.2361 16.4226 13.0667C16.5954 12.8972 16.8307 12.8012 17.0769 12.8012C17.3231 12.8012 17.5584 12.8972 17.7312 13.0667C17.9038 13.2361 18 13.4649 18 13.7025V15.9666C18 16.5045 17.7823 17.0212 17.3932 17.4029C17.0041 17.7847 16.4753 18 15.9231 18H2.07692C1.52469 18 0.995931 17.7847 0.606755 17.4029C0.217729 17.0212 0 16.5045 0 15.9666V13.7025C0 13.4649 0.0961637 13.2361 0.268802 13.0667C0.441588 12.8972 0.676857 12.8012 0.923077 12.8012C1.1693 12.8012 1.40457 12.8972 1.57735 13.0667C1.74999 13.2361 1.84615 13.4649 1.84615 13.7025Z" fill="#FBFBFE"/>
</svg>
