<svg width="22" height="22" viewBox="0 0 22 22" fill="none" xmlns="http://www.w3.org/2000/svg">
<path d="M8.525 11.5C8.525 10.1797 9.63314 9.10937 11 9.10937C12.3669 9.10937 13.475 10.1797 13.475 11.5C13.475 12.8203 12.3669 13.8906 11 13.8906C9.63314 13.8906 8.525 12.8203 8.525 11.5Z" fill="#ACADDF"/>
<path fill-rule="evenodd" clip-rule="evenodd" d="M0 11.5C0 13.2419 0.467456 13.8285 1.40238 15.0017C3.26916 17.3442 6.39992 20 11 20C15.6001 20 18.7308 17.3442 20.5976 15.0017C21.5325 13.8285 22 13.2419 22 11.5C22 9.75814 21.5325 9.17156 20.5976 7.99835C18.7308 5.65578 15.6001 3 11 3C6.39992 3 3.26916 5.65578 1.40238 7.99835C0.467456 9.17156 0 9.75814 0 11.5ZM11 7.51562C8.72182 7.51562 6.875 9.29949 6.875 11.5C6.875 13.7005 8.72182 15.4844 11 15.4844C13.2782 15.4844 15.125 13.7005 15.125 11.5C15.125 9.29949 13.2782 7.51562 11 7.51562Z" fill="#ACADDF"/>
</svg>
