<svg width="181" height="32" viewBox="0 0 181 32" fill="none" xmlns="http://www.w3.org/2000/svg">
<path d="M14.3245 0.512821C14.3245 0.229598 14.0954 0 13.8129 0H10.948C10.6655 0 10.4364 0.229597 10.4364 0.51282V10.0513H14.3245V0.512821Z" fill="#72CEC6"/>
<path d="M19.8496 4.92308C19.8496 4.63985 19.6206 4.41026 19.338 4.41026H16.4731C16.1906 4.41026 15.9616 4.63985 15.9616 4.92308V10.0513H19.8496V4.92308Z" fill="#ACADDF"/>
<path d="M19.8496 19.4872H15.9616V31.4872C15.9616 31.7704 16.1906 32 16.4731 32H19.338C19.6206 32 19.8496 31.7704 19.8496 31.4872V19.4872Z" fill="#72CEC6"/>
<path d="M14.3245 19.4872H10.4364V24.6154C10.4364 24.8986 10.6655 25.1282 10.948 25.1282H13.8129C14.0954 25.1282 14.3245 24.8986 14.3245 24.6154V19.4872Z" fill="#ACADDF"/>
<path d="M25.4771 10.5641C25.4771 10.2809 25.2481 10.0513 24.9655 10.0513H15.9616V13.9487H24.9655C25.2481 13.9487 25.4771 13.7191 25.4771 13.4359V10.5641Z" fill="#72CEC6"/>
<path d="M14.3245 10.0513H0.511588C0.229046 10.0513 0 10.2809 0 10.5641V13.4359C0 13.7191 0.229046 13.9487 0.511588 13.9487H14.3245V10.0513Z" fill="#ACADDF"/>
<path d="M14.3245 15.5897H5.32052C5.03798 15.5897 4.80893 15.8193 4.80893 16.1026V18.9744C4.80893 19.2576 5.03798 19.4872 5.32052 19.4872H14.3245V15.5897Z" fill="#72CEC6"/>
<path d="M30.286 16.1026C30.286 15.8193 30.057 15.5897 29.7744 15.5897H15.9616V19.4872H29.7744C30.057 19.4872 30.286 19.2576 30.286 18.9744V16.1026Z" fill="#ACADDF"/>
<path d="M53.5029 7.38462L53.0709 9.84616H48.0906L45.7028 23.339H43.1785L45.5663 9.84616H40.5178L40.9499 7.38462H53.5029Z" fill="#2E3749"/>
<path d="M59.6325 13.8803C58.4955 13.8803 57.5328 14.2906 56.7444 15.1111C55.9712 15.9164 55.5846 16.8813 55.5846 18.0057C55.5846 18.9934 55.9106 19.7987 56.5625 20.4217C57.2296 21.0446 58.0558 21.3561 59.0413 21.3561C60.1783 21.3561 61.1334 20.9535 61.9066 20.1481C62.695 19.3276 63.0892 18.3552 63.0892 17.2308C63.0892 16.2431 62.7556 15.4378 62.0886 14.8148C61.4366 14.1918 60.618 13.8803 59.6325 13.8803ZM53.0831 18.2336C53.0831 16.3799 53.735 14.792 55.0388 13.4701C56.3427 12.1481 57.9345 11.4872 59.8145 11.4872C61.4518 11.4872 62.8239 12.0038 63.9306 13.037C65.0373 14.0703 65.5907 15.3922 65.5907 17.0028C65.5907 18.8566 64.9388 20.4444 63.635 21.7664C62.3311 23.0883 60.7393 23.7493 58.8593 23.7493C57.222 23.7493 55.8499 23.2327 54.7432 22.1994C53.6365 21.1662 53.0831 19.8443 53.0831 18.2336Z" fill="#2E3749"/>
<path d="M68.437 11.943H70.9386L68.1641 27.8974H65.6626L68.437 11.943ZM73.9858 13.9031C72.864 13.9031 71.9088 14.3134 71.1205 15.1339C70.3321 15.9392 69.938 16.9041 69.938 18.0285C69.938 19.0161 70.2639 19.8215 70.9158 20.4444C71.5829 21.0674 72.4091 21.3789 73.3946 21.3789C74.5316 21.3789 75.4868 20.9763 76.26 20.1709C77.0483 19.3504 77.4425 18.378 77.4425 17.2536C77.4425 16.2811 77.1089 15.4834 76.4419 14.8604C75.79 14.2222 74.9713 13.9031 73.9858 13.9031ZM68.9146 18.5755C68.9146 17.3599 69.1799 16.2203 69.7105 15.1567C70.2412 14.0779 70.9689 13.2118 71.8937 12.5584C72.8336 11.905 73.857 11.5783 74.9637 11.5783C76.3888 11.5783 77.5789 12.0798 78.5341 13.0826C79.4892 14.0703 79.9667 15.3466 79.9667 16.9117C79.9667 18.1273 79.6938 19.2669 79.1481 20.3305C78.6023 21.3941 77.8518 22.245 76.8967 22.8832C75.9416 23.5214 74.9031 23.8405 73.7812 23.8405C72.3409 23.8405 71.166 23.3466 70.2563 22.359C69.3618 21.3561 68.9146 20.095 68.9146 18.5755Z" fill="#2E3749"/>
<path d="M93.3315 11.943L91.3303 23.339H88.8288L90.4207 14.2906H85.1902L83.5984 23.339H81.0969L83.0981 11.943H93.3315Z" fill="#2E3749"/>
<path d="M103.896 16.1368C103.79 15.4378 103.457 14.8756 102.896 14.4501C102.35 14.0247 101.683 13.812 100.895 13.812C100.046 13.812 99.2648 14.0551 98.5522 14.5413C97.8397 15.0123 97.3621 15.6505 97.1195 16.4558H103.919C103.919 16.3191 103.912 16.2127 103.896 16.1368ZM106.352 16.9345C106.352 17.4511 106.277 18.0285 106.125 18.6667H96.9376C96.9831 19.4872 97.3166 20.1557 97.9382 20.6724C98.5749 21.1738 99.3633 21.4245 100.303 21.4245C101.774 21.4245 102.911 20.8015 103.714 19.5556L105.738 20.8775C105.071 21.8348 104.253 22.5565 103.282 23.0427C102.327 23.5138 101.289 23.7493 100.167 23.7493C98.4991 23.7493 97.1119 23.2251 96.0052 22.1766C94.8985 21.1282 94.3451 19.7987 94.3451 18.188C94.3451 16.3495 94.9894 14.7768 96.2781 13.4701C97.5668 12.1481 99.1207 11.4872 100.94 11.4872C102.486 11.4872 103.775 12.0038 104.806 13.037C105.837 14.0551 106.352 15.3542 106.352 16.9345Z" fill="#2E3749"/>
<path d="M107.142 20.9915H120.15L119.263 25.9829H116.762L117.239 23.339H109.234L108.757 25.9829H106.255L107.142 20.9915ZM107.688 20.9915C108.4 20.9915 108.992 20.7635 109.462 20.3077C109.932 19.8367 110.227 19.2517 110.349 18.5527L111.508 11.943H120.15L118.149 23.339H115.647L117.216 14.4046H113.578L112.782 18.8718C112.6 19.8898 112.024 20.7787 111.054 21.5385C110.083 22.283 108.939 22.6553 107.62 22.6553H106.96L107.256 20.9915H107.688Z" fill="#2E3749"/>
<path d="M128.7 13.8803C127.562 13.8803 126.6 14.2906 125.811 15.1111C125.038 15.9164 124.652 16.8813 124.652 18.0057C124.652 18.9934 124.978 19.7987 125.629 20.4217C126.297 21.0446 127.123 21.3561 128.108 21.3561C129.245 21.3561 130.2 20.9535 130.974 20.1481C131.762 19.3276 132.156 18.3552 132.156 17.2308C132.156 16.2431 131.823 15.4378 131.156 14.8148C130.504 14.1918 129.685 13.8803 128.7 13.8803ZM122.15 18.2336C122.15 16.3799 122.802 14.792 124.106 13.4701C125.41 12.1481 127.002 11.4872 128.881 11.4872C130.519 11.4872 131.891 12.0038 132.998 13.037C134.104 14.0703 134.658 15.3922 134.658 17.0028C134.658 18.8566 134.006 20.4444 132.702 21.7664C131.398 23.0883 129.806 23.7493 127.926 23.7493C126.289 23.7493 124.917 23.2327 123.81 22.1994C122.703 21.1662 122.15 19.8443 122.15 18.2336Z" fill="#2E3749"/>
<path d="M135.571 23.339L138.368 7.38462H141.234L144.872 17.2764L152.058 7.38462H155.151L152.331 23.339H149.807L151.876 11.6923L145.327 20.8319H143.553L140.187 11.5783L138.118 23.339H135.571Z" fill="#2E3749"/>
<path d="M164.746 16.1368C164.64 15.4378 164.307 14.8756 163.746 14.4501C163.2 14.0247 162.533 13.812 161.745 13.812C160.896 13.812 160.115 14.0551 159.402 14.5413C158.69 15.0123 158.212 15.6505 157.97 16.4558H164.769C164.769 16.3191 164.762 16.2127 164.746 16.1368ZM167.202 16.9345C167.202 17.4511 167.127 18.0285 166.975 18.6667H157.788C157.833 19.4872 158.167 20.1557 158.788 20.6724C159.425 21.1738 160.213 21.4245 161.153 21.4245C162.624 21.4245 163.761 20.8015 164.564 19.5556L166.588 20.8775C165.921 21.8348 165.103 22.5565 164.132 23.0427C163.177 23.5138 162.139 23.7493 161.017 23.7493C159.349 23.7493 157.962 23.2251 156.855 22.1766C155.748 21.1282 155.195 19.7987 155.195 18.188C155.195 16.3495 155.839 14.7768 157.128 13.4701C158.417 12.1481 159.971 11.4872 161.79 11.4872C163.336 11.4872 164.625 12.0038 165.656 13.037C166.687 14.0551 167.202 15.3542 167.202 16.9345Z" fill="#2E3749"/>
<path d="M167.992 20.9915H181L180.113 25.9829H177.612L178.089 23.339H170.084L169.607 25.9829H167.105L167.992 20.9915ZM168.538 20.9915C169.25 20.9915 169.842 20.7635 170.312 20.3077C170.782 19.8367 171.077 19.2517 171.199 18.5527L172.358 11.943H181L178.999 23.339H176.497L178.066 14.4046H174.428L173.632 18.8718C173.45 19.8898 172.874 20.7787 171.904 21.5385C170.933 22.283 169.789 22.6553 168.47 22.6553H167.81L168.106 20.9915H168.538Z" fill="#2E3749"/>
</svg>
