<svg width="200" height="35" viewBox="0 0 200 35" fill="none" xmlns="http://www.w3.org/2000/svg">
<path d="M15.8282 0.560897C15.8282 0.251122 15.5751 0 15.2629 0H12.0972C11.785 0 11.5319 0.251122 11.5319 0.560897V10.9936H15.8282V0.560897Z" fill="#72CEC6"/>
<path d="M21.9333 5.38462C21.9333 5.07484 21.6802 4.82372 21.368 4.82372H18.2024C17.8902 4.82372 17.6371 5.07484 17.6371 5.38462V10.9936H21.9333V5.38462Z" fill="#FBFBFE"/>
<path d="M21.9333 21.3141H17.6371V34.4391C17.6371 34.7489 17.8902 35 18.2024 35H21.368C21.6802 35 21.9333 34.7489 21.9333 34.4391V21.3141Z" fill="#72CEC6"/>
<path d="M15.8282 21.3141H11.5319V26.9231C11.5319 27.2329 11.785 27.484 12.0972 27.484H15.2629C15.5751 27.484 15.8282 27.2329 15.8282 26.9231V21.3141Z" fill="#FBFBFE"/>
<path d="M28.1515 11.5545C28.1515 11.2447 27.8984 10.9936 27.5862 10.9936H17.6371V15.2564H27.5862C27.8984 15.2564 28.1515 15.0053 28.1515 14.6955V11.5545Z" fill="#72CEC6"/>
<path d="M15.8282 10.9936H0.565291C0.253089 10.9936 0 11.2447 0 11.5545V14.6955C0 15.0053 0.253089 15.2564 0.565291 15.2564H15.8282V10.9936Z" fill="#FBFBFE"/>
<path d="M15.8282 17.0513H5.87903C5.56683 17.0513 5.31374 17.3024 5.31374 17.6122V20.7532C5.31374 21.063 5.56683 21.3141 5.87903 21.3141H15.8282V17.0513Z" fill="#72CEC6"/>
<path d="M33.4652 17.6122C33.4652 17.3024 33.2121 17.0513 32.8999 17.0513H17.6371V21.3141H32.8999C33.2121 21.3141 33.4652 21.063 33.4652 20.7532V17.6122Z" fill="#FBFBFE"/>
<path d="M59.1193 8.07692L58.6418 10.7692H53.1387L50.5003 25.5271H47.7111L50.3495 10.7692H44.7711L45.2485 8.07692H59.1193Z" fill="#FBFBFE"/>
<path d="M65.8923 15.1816C64.6359 15.1816 63.5721 15.6303 62.701 16.5278C61.8467 17.4086 61.4195 18.4639 61.4195 19.6937C61.4195 20.774 61.7796 21.6548 62.5 22.3362C63.2371 23.0176 64.1501 23.3583 65.239 23.3583C66.4954 23.3583 67.5508 22.9179 68.4051 22.037C69.2762 21.1396 69.7118 20.076 69.7118 18.8462C69.7118 17.7659 69.3432 16.8851 68.6061 16.2037C67.8858 15.5223 66.9812 15.1816 65.8923 15.1816ZM58.6554 19.943C58.6554 17.9155 59.3757 16.1788 60.8164 14.7329C62.2571 13.287 64.0161 12.5641 66.0933 12.5641C67.9025 12.5641 69.4186 13.1292 70.6415 14.2593C71.8644 15.3894 72.4759 16.8352 72.4759 18.5969C72.4759 20.6244 71.7555 22.3611 70.3149 23.807C68.8742 25.2528 67.1152 25.9758 65.0379 25.9758C63.2287 25.9758 61.7126 25.4107 60.4897 24.2806C59.2668 23.1505 58.6554 21.7047 58.6554 19.943Z" fill="#FBFBFE"/>
<path d="M75.621 13.0627H78.3851L75.3195 30.5128H72.5554L75.621 13.0627ZM81.7523 15.2066C80.5127 15.2066 79.4573 15.6553 78.5862 16.5527C77.7151 17.4335 77.2795 18.4888 77.2795 19.7187C77.2795 20.7989 77.6397 21.6797 78.36 22.3611C79.0971 23.0425 80.0101 23.3832 81.099 23.3832C82.3554 23.3832 83.4108 22.9428 84.2651 22.062C85.1363 21.1645 85.5718 20.1009 85.5718 18.8711C85.5718 17.8075 85.2033 16.9349 84.4662 16.2536C83.7458 15.5556 82.8412 15.2066 81.7523 15.2066ZM76.1487 20.317C76.1487 18.9874 76.4419 17.741 77.0282 16.5776C77.6145 15.3977 78.4186 14.4504 79.4405 13.7358C80.4792 13.0211 81.6099 12.6638 82.8328 12.6638C84.4075 12.6638 85.7226 13.2123 86.778 14.3091C87.8333 15.3894 88.361 16.7854 88.361 18.4972C88.361 19.8267 88.0595 21.0731 87.4564 22.2365C86.8533 23.3998 86.0241 24.3305 84.9687 25.0285C83.9134 25.7265 82.7658 26.0755 81.5262 26.0755C79.9347 26.0755 78.6364 25.5354 77.6313 24.4551C76.6429 23.3583 76.1487 21.9789 76.1487 20.317Z" fill="#FBFBFE"/>
<path d="M103.129 13.0627L100.917 25.5271H98.1534L99.9124 15.6303H94.1329L92.3739 25.5271H89.6098L91.8211 13.0627H103.129Z" fill="#FBFBFE"/>
<path d="M114.803 17.6496C114.685 16.8851 114.317 16.2702 113.697 15.8048C113.094 15.3395 112.357 15.1068 111.486 15.1068C110.548 15.1068 109.685 15.3727 108.897 15.9046C108.11 16.4198 107.582 17.1178 107.314 17.9986H114.828C114.828 17.849 114.819 17.7327 114.803 17.6496ZM117.516 18.5221C117.516 19.0871 117.433 19.7187 117.265 20.4167H107.113C107.164 21.3141 107.532 22.0453 108.219 22.6104C108.923 23.1588 109.794 23.433 110.832 23.433C112.457 23.433 113.714 22.7517 114.602 21.3889L116.838 22.8348C116.101 23.8818 115.196 24.6712 114.124 25.203C113.069 25.7182 111.921 25.9758 110.682 25.9758C108.839 25.9758 107.306 25.4024 106.083 24.2557C104.86 23.109 104.249 21.6548 104.249 19.8932C104.249 17.8822 104.961 16.1622 106.385 14.7329C107.809 13.287 109.526 12.5641 111.536 12.5641C113.245 12.5641 114.669 13.1292 115.808 14.2593C116.947 15.3727 117.516 16.7937 117.516 18.5221Z" fill="#FBFBFE"/>
<path d="M118.389 22.9594H132.762L131.782 28.4188H129.018L129.546 25.5271H120.701L120.173 28.4188H117.409L118.389 22.9594ZM118.992 22.9594C119.779 22.9594 120.433 22.7101 120.952 22.2115C121.471 21.6963 121.798 21.0565 121.932 20.292L123.214 13.0627H132.762L130.551 25.5271H127.787L129.521 15.755H125.5L124.621 20.641C124.42 21.7545 123.783 22.7267 122.711 23.5577C121.639 24.372 120.374 24.7792 118.917 24.7792H118.188L118.515 22.9594H118.992Z" fill="#FBFBFE"/>
<path d="M142.209 15.1816C140.953 15.1816 139.889 15.6303 139.018 16.5278C138.164 17.4086 137.737 18.4639 137.737 19.6937C137.737 20.774 138.097 21.6548 138.817 22.3362C139.554 23.0176 140.467 23.3583 141.556 23.3583C142.812 23.3583 143.868 22.9179 144.722 22.037C145.593 21.1396 146.029 20.076 146.029 18.8462C146.029 17.7659 145.66 16.8851 144.923 16.2037C144.203 15.5223 143.298 15.1816 142.209 15.1816ZM134.972 19.943C134.972 17.9155 135.693 16.1788 137.134 14.7329C138.574 13.287 140.333 12.5641 142.41 12.5641C144.22 12.5641 145.736 13.1292 146.959 14.2593C148.182 15.3894 148.793 16.8352 148.793 18.5969C148.793 20.6244 148.073 22.3611 146.632 23.807C145.191 25.2528 143.432 25.9758 141.355 25.9758C139.546 25.9758 138.03 25.4107 136.807 24.2806C135.584 23.1505 134.972 21.7047 134.972 19.943Z" fill="#FBFBFE"/>
<path d="M149.802 25.5271L152.893 8.07692H156.059L160.08 18.896L168.02 8.07692H171.438L168.322 25.5271H165.533L167.819 12.7885L160.582 22.7849H158.622L154.903 12.6638L152.617 25.5271H149.802Z" fill="#FBFBFE"/>
<path d="M182.04 17.6496C181.923 16.8851 181.554 16.2702 180.935 15.8048C180.331 15.3395 179.594 15.1068 178.723 15.1068C177.785 15.1068 176.922 15.3727 176.135 15.9046C175.348 16.4198 174.82 17.1178 174.552 17.9986H182.065C182.065 17.849 182.057 17.7327 182.04 17.6496ZM184.754 18.5221C184.754 19.0871 184.67 19.7187 184.503 20.4167H174.351C174.401 21.3141 174.77 22.0453 175.457 22.6104C176.16 23.1588 177.031 23.433 178.07 23.433C179.695 23.433 180.951 22.7517 181.839 21.3889L184.076 22.8348C183.338 23.8818 182.434 24.6712 181.362 25.203C180.306 25.7182 179.159 25.9758 177.919 25.9758C176.076 25.9758 174.544 25.4024 173.321 24.2557C172.098 23.109 171.486 21.6548 171.486 19.8932C171.486 17.8822 172.198 16.1622 173.622 14.7329C175.046 13.287 176.763 12.5641 178.774 12.5641C180.482 12.5641 181.906 13.1292 183.045 14.2593C184.184 15.3727 184.754 16.7937 184.754 18.5221Z" fill="#FBFBFE"/>
<path d="M185.627 22.9594H200L199.02 28.4188H196.256L196.784 25.5271H187.938L187.411 28.4188H184.647L185.627 22.9594ZM186.23 22.9594C187.017 22.9594 187.67 22.7101 188.19 22.2115C188.709 21.6963 189.036 21.0565 189.17 20.292L190.451 13.0627H200L197.789 25.5271H195.025L196.758 15.755H192.738L191.858 20.641C191.657 21.7545 191.021 22.7267 189.949 23.5577C188.877 24.372 187.612 24.7792 186.154 24.7792H185.426L185.752 22.9594H186.23Z" fill="#FBFBFE"/>
</svg>
