<svg width="1920" height="101" viewBox="0 0 1920 101" fill="none" xmlns="http://www.w3.org/2000/svg">
<g opacity="0.1">
<path d="M-36.4649 30.3C-36.4649 16.9984 -47.1998 6.21539 -60.4419 6.21539H-114.584C-127.826 6.21539 -138.561 16.9984 -138.561 30.3C-138.561 43.6016 -149.296 54.3846 -162.538 54.3846H-195.796C-208.611 54.3846 -219 64.8198 -219 77.6923C-219 90.5648 -208.611 101 -195.796 101H-159.444C-146.202 101 -135.467 90.2169 -135.467 76.9154C-135.467 63.6138 -124.732 52.8308 -111.49 52.8308H-68.1765C-54.9343 52.8308 -44.1994 63.6138 -44.1994 76.9154C-44.1994 90.2169 -33.4645 101 -20.2223 101H20.7707C33.5857 101 43.9743 90.5648 43.9743 77.6923C43.9743 64.8198 33.5857 54.3846 20.7707 54.3846H-12.4878C-25.73 54.3846 -36.4649 43.6016 -36.4649 30.3Z" fill="#FBFBFE"/>
<path d="M153.805 70.7C153.805 84.0016 143.07 94.7846 129.828 94.7846H75.686C62.4438 94.7846 51.7089 84.0016 51.7089 70.7C51.7089 57.3984 40.974 46.6154 27.7318 46.6154H-5.52672C-18.3417 46.6154 -28.7303 36.1802 -28.7303 23.3077C-28.7303 10.4352 -18.3417 1.95304e-06 -5.52672 1.95304e-06H30.8256C44.0678 1.95304e-06 54.8027 10.783 54.8027 24.0846C54.8027 37.3862 65.5376 48.1692 78.7798 48.1692H122.093C135.335 48.1692 146.07 37.3862 146.07 24.0846C146.07 10.783 156.805 1.95304e-06 170.047 1.95304e-06H211.04C223.855 1.95304e-06 234.244 10.4352 234.244 23.3077C234.244 36.1802 223.855 46.6154 211.04 46.6154H177.782C164.54 46.6154 153.805 57.3984 153.805 70.7Z" fill="#FBFBFE"/>
<path d="M344.074 30.3C344.074 16.9984 333.34 6.21539 320.097 6.21539H265.956C252.713 6.21539 241.979 16.9984 241.979 30.3C241.979 43.6016 231.244 54.3846 218.001 54.3846H184.743C171.928 54.3846 161.539 64.8198 161.539 77.6923C161.539 90.5648 171.928 101 184.743 101H221.095C234.337 101 245.072 90.2169 245.072 76.9154C245.072 63.6138 255.807 52.8308 269.049 52.8308H312.363C325.605 52.8308 336.34 63.6138 336.34 76.9154C336.34 90.2169 347.075 101 360.317 101H401.31C414.125 101 424.514 90.5648 424.514 77.6923C424.514 64.8198 414.125 54.3846 401.31 54.3846H368.052C354.809 54.3846 344.074 43.6016 344.074 30.3Z" fill="#FBFBFE"/>
<path d="M534.54 70.7C534.54 84.0016 523.805 94.7846 510.563 94.7846H456.421C443.179 94.7846 432.444 84.0016 432.444 70.7C432.444 57.3984 421.709 46.6154 408.467 46.6154H375.209C362.394 46.6154 352.005 36.1802 352.005 23.3077C352.005 10.4352 362.394 0 375.209 0H411.561C424.803 0 435.538 10.783 435.538 24.0846C435.538 37.3862 446.273 48.1692 459.515 48.1692H502.829C516.071 48.1692 526.806 37.3862 526.806 24.0846C526.806 10.783 537.541 0 550.783 0H591.776C604.591 0 614.979 10.4352 614.979 23.3077C614.979 36.1802 604.591 46.6154 591.776 46.6154H558.517C545.275 46.6154 534.54 57.3984 534.54 70.7Z" fill="#FBFBFE"/>
<path d="M724.81 30.3C724.81 16.9984 714.075 6.21538 700.833 6.21538H646.691C633.449 6.21538 622.714 16.9984 622.714 30.3C622.714 43.6016 611.979 54.3846 598.737 54.3846H565.478C552.663 54.3846 542.275 64.8198 542.275 77.6923C542.275 90.5648 552.663 101 565.478 101H601.831C615.073 101 625.808 90.2169 625.808 76.9154C625.808 63.6138 636.543 52.8308 649.785 52.8308H693.098C706.34 52.8308 717.075 63.6138 717.075 76.9154C717.075 90.2169 727.81 101 741.052 101H782.045C794.86 101 805.249 90.5648 805.249 77.6923C805.249 64.8198 794.86 54.3846 782.045 54.3846H748.787C735.545 54.3846 724.81 43.6016 724.81 30.3Z" fill="#FBFBFE"/>
<path d="M915.08 70.7C915.08 84.0016 904.345 94.7846 891.103 94.7846H836.961C823.719 94.7846 812.984 84.0016 812.984 70.7C812.984 57.3984 802.249 46.6154 789.007 46.6154H755.748C742.933 46.6154 732.544 36.1802 732.544 23.3077C732.544 10.4352 742.933 0 755.748 0H792.1C805.343 0 816.078 10.783 816.078 24.0846C816.078 37.3862 826.812 48.1692 840.055 48.1692H883.368C896.61 48.1692 907.345 37.3862 907.345 24.0846C907.345 10.783 918.08 0 931.322 0H972.315C985.13 0 995.519 10.4352 995.519 23.3077C995.519 36.1802 985.13 46.6154 972.315 46.6154H939.057C925.815 46.6154 915.08 57.3984 915.08 70.7Z" fill="#FBFBFE"/>
<path d="M1106.02 30.3C1106.02 16.9984 1095.28 6.21539 1082.04 6.21539H1027.9C1014.66 6.21539 1003.92 16.9984 1003.92 30.3C1003.92 43.6016 993.185 54.3846 979.943 54.3846H946.685C933.87 54.3846 923.481 64.8198 923.481 77.6923C923.481 90.5648 933.87 101 946.685 101H983.037C996.279 101 1007.01 90.2169 1007.01 76.9154C1007.01 63.6138 1017.75 52.8308 1030.99 52.8308H1074.3C1087.55 52.8308 1098.28 63.6138 1098.28 76.9154C1098.28 90.2169 1109.02 101 1122.26 101H1163.25C1176.07 101 1186.46 90.5648 1186.46 77.6923C1186.46 64.8198 1176.07 54.3846 1163.25 54.3846H1129.99C1116.75 54.3846 1106.02 43.6016 1106.02 30.3Z" fill="#FBFBFE"/>
<path d="M1296.29 70.7C1296.29 84.0016 1285.55 94.7846 1272.31 94.7846H1218.17C1204.93 94.7846 1194.19 84.0016 1194.19 70.7C1194.19 57.3984 1183.46 46.6154 1170.21 46.6154H1136.95C1124.14 46.6154 1113.75 36.1802 1113.75 23.3077C1113.75 10.4352 1124.14 1.95304e-06 1136.95 1.95304e-06H1173.31C1186.55 1.95304e-06 1197.28 10.783 1197.28 24.0846C1197.28 37.3862 1208.02 48.1692 1221.26 48.1692H1264.57C1277.82 48.1692 1288.55 37.3862 1288.55 24.0846C1288.55 10.783 1299.29 1.95304e-06 1312.53 1.95304e-06H1353.52C1366.34 1.95304e-06 1376.73 10.4352 1376.73 23.3077C1376.73 36.1802 1366.34 46.6154 1353.52 46.6154H1320.26C1307.02 46.6154 1296.29 57.3984 1296.29 70.7Z" fill="#FBFBFE"/>
<path d="M1486.56 30.3C1486.56 16.9984 1475.82 6.21539 1462.58 6.21539H1408.44C1395.19 6.21539 1384.46 16.9984 1384.46 30.3C1384.46 43.6016 1373.72 54.3846 1360.48 54.3846H1327.22C1314.41 54.3846 1304.02 64.8198 1304.02 77.6923C1304.02 90.5648 1314.41 101 1327.22 101H1363.58C1376.82 101 1387.55 90.2169 1387.55 76.9154C1387.55 63.6138 1398.29 52.8308 1411.53 52.8308H1454.84C1468.09 52.8308 1478.82 63.6138 1478.82 76.9154C1478.82 90.2169 1489.56 101 1502.8 101H1543.79C1556.61 101 1566.99 90.5648 1566.99 77.6923C1566.99 64.8198 1556.61 54.3846 1543.79 54.3846H1510.53C1497.29 54.3846 1486.56 43.6016 1486.56 30.3Z" fill="#FBFBFE"/>
<path d="M1677.02 70.7C1677.02 84.0016 1666.29 94.7846 1653.04 94.7846H1598.9C1585.66 94.7846 1574.93 84.0016 1574.93 70.7C1574.93 57.3984 1564.19 46.6154 1550.95 46.6154H1517.69C1504.87 46.6154 1494.49 36.1802 1494.49 23.3077C1494.49 10.4352 1504.87 0 1517.69 0H1554.04C1567.28 0 1578.02 10.783 1578.02 24.0846C1578.02 37.3862 1588.75 48.1692 1602 48.1692H1645.31C1658.55 48.1692 1669.29 37.3862 1669.29 24.0846C1669.29 10.783 1680.02 0 1693.26 0H1734.26C1747.07 0 1757.46 10.4352 1757.46 23.3077C1757.46 36.1802 1747.07 46.6154 1734.26 46.6154H1701C1687.76 46.6154 1677.02 57.3984 1677.02 70.7Z" fill="#FBFBFE"/>
<path d="M1867.29 30.3C1867.29 16.9984 1856.56 6.21538 1843.31 6.21538H1789.17C1775.93 6.21538 1765.2 16.9984 1765.2 30.3C1765.2 43.6016 1754.46 54.3846 1741.22 54.3846H1707.96C1695.14 54.3846 1684.76 64.8198 1684.76 77.6923C1684.76 90.5648 1695.14 101 1707.96 101H1744.31C1757.55 101 1768.29 90.2169 1768.29 76.9154C1768.29 63.6138 1779.02 52.8308 1792.27 52.8308H1835.58C1848.82 52.8308 1859.56 63.6138 1859.56 76.9154C1859.56 90.2169 1870.29 101 1883.53 101H1924.53C1937.34 101 1947.73 90.5648 1947.73 77.6923C1947.73 64.8198 1937.34 54.3846 1924.53 54.3846H1891.27C1878.03 54.3846 1867.29 43.6016 1867.29 30.3Z" fill="#FBFBFE"/>
<path d="M2057.56 70.7C2057.56 84.0016 2046.83 94.7846 2033.58 94.7846H1979.44C1966.2 94.7846 1955.46 84.0016 1955.46 70.7C1955.46 57.3984 1944.73 46.6154 1931.49 46.6154H1898.23C1885.41 46.6154 1875.03 36.1802 1875.03 23.3077C1875.03 10.4352 1885.41 0 1898.23 0H1934.58C1947.82 0 1958.56 10.783 1958.56 24.0846C1958.56 37.3862 1969.29 48.1692 1982.54 48.1692H2025.85C2039.09 48.1692 2049.83 37.3862 2049.83 24.0846C2049.83 10.783 2060.56 0 2073.8 0H2114.8C2127.61 0 2138 10.4352 2138 23.3077C2138 36.1802 2127.61 46.6154 2114.8 46.6154H2081.54C2068.3 46.6154 2057.56 57.3984 2057.56 70.7Z" fill="#FBFBFE"/>
</g>
</svg>
