<svg width="80" height="89" viewBox="0 0 80 89" fill="none" xmlns="http://www.w3.org/2000/svg">
<path opacity="0.1" fill-rule="evenodd" clip-rule="evenodd" d="M0 37.4543C0 23.2249 3.97364e-07 16.1102 1.67787 13.7167C3.35569 11.3232 10.037 9.03332 23.3996 4.45352L25.9454 3.581C32.9111 1.19367 36.3938 0 40 0C43.6062 0 47.0889 1.19367 54.0547 3.581L56.6004 4.45352C69.9631 9.03332 76.6444 11.3232 78.3222 13.7167C80 16.1102 80 23.2249 80 37.4543V44.4617C80 69.5508 61.16 81.7265 49.3396 86.8965C46.1333 88.2987 44.5302 89 40 89C35.4698 89 33.8667 88.2987 30.6603 86.8965C18.8398 81.7265 0 69.5508 0 44.4617V37.4543ZM40 23.3625C41.8409 23.3625 43.3333 24.8568 43.3333 26.7V44.5C43.3333 46.3432 41.8409 47.8375 40 47.8375C38.1591 47.8375 36.6667 46.3432 36.6667 44.5V26.7C36.6667 24.8568 38.1591 23.3625 40 23.3625ZM40 62.3C42.4547 62.3 44.4444 60.3077 44.4444 57.85C44.4444 55.3923 42.4547 53.4 40 53.4C37.5453 53.4 35.5556 55.3923 35.5556 57.85C35.5556 60.3077 37.5453 62.3 40 62.3Z" fill="#CD7F84"/>
</svg>
