<svg width="67" height="89" viewBox="0 0 67 89" fill="none" xmlns="http://www.w3.org/2000/svg">
<path opacity="0.1" fill-rule="evenodd" clip-rule="evenodd" d="M0 34.1512C0 15.29 14.9984 0 33.5 0C52.0014 0 67 15.29 67 34.1512C67 44.2633 62.6852 53.3519 55.8396 59.6006C53.558 61.6832 51.8678 63.2265 50.6699 64.3461C50.0709 64.9055 49.6131 65.3429 49.2749 65.6784C49.1065 65.8458 48.9774 65.9784 48.8814 66.0807C48.8341 66.1315 48.7983 66.1711 48.7724 66.2009C48.7626 66.212 48.7492 66.2276 48.7492 66.2276L48.7401 66.2384L48.7349 66.2445C47.6785 67.5737 47.4498 67.9168 47.3136 68.2274C47.1774 68.538 47.0796 68.9403 46.8129 70.6291C46.7079 71.2961 46.6968 72.438 46.6968 75.5463V75.6798C46.6972 77.5003 46.6972 79.0707 46.5824 80.3594C46.4614 81.722 46.1934 83.0713 45.4729 84.3431C44.6711 85.7591 43.5178 86.9348 42.1287 87.7522C40.8812 88.4865 39.5577 88.7597 38.2213 88.8834C36.9573 89 35.4169 89 33.6312 89H33.6309H33.3691H33.3688C31.5831 89 30.0427 89 28.7787 88.8834C27.4423 88.7597 26.1187 88.4865 24.8712 87.7522C23.4823 86.9348 22.329 85.7591 21.5271 84.3431C20.8069 83.0713 20.5386 81.722 20.4174 80.3594C20.3029 79.0708 20.303 77.5005 20.303 75.6801V75.6798V75.5463C20.303 72.438 20.2923 71.2961 20.1871 70.6291C19.9205 68.9403 19.8225 68.538 19.6863 68.2274C19.5502 67.9168 19.3215 67.5737 18.2651 66.2445C18.2651 66.2445 18.2629 66.2418 18.2584 66.2365C18.2561 66.2338 18.2532 66.2304 18.2498 66.2264C18.244 66.2197 18.2367 66.2112 18.2276 66.2009C18.2016 66.1711 18.1659 66.1315 18.1184 66.0807C18.0224 65.9784 17.8935 65.8458 17.7251 65.6784C17.387 65.3429 16.9291 64.9055 16.3302 64.3461C15.1323 63.2265 13.442 61.6832 11.1604 59.6006C4.31489 53.3519 0 44.2633 0 34.1512ZM40.5801 78.6511C40.5667 79.0827 40.5466 79.4597 40.5167 79.7987C40.4336 80.731 40.2938 81.0692 40.1982 81.2383C39.9307 81.7105 39.5465 82.1021 39.0833 82.3748C38.9176 82.4723 38.5853 82.6147 37.6714 82.6992C36.7151 82.7878 35.4537 82.7909 33.5 82.7909C31.5463 82.7909 30.2849 82.7878 29.3286 82.6992C28.4147 82.6147 28.0824 82.4723 27.9167 82.3748C27.4535 82.1021 27.0693 81.7105 26.8018 81.2383C26.7062 81.0692 26.5664 80.731 26.4835 79.7987C26.4533 79.4597 26.4333 79.0827 26.4201 78.6511H40.5801ZM28.1332 51.729C27.2069 50.1333 25.1575 49.5881 23.556 50.5111C21.9545 51.434 21.4072 53.4757 22.3337 55.071C23.9116 57.7886 26.5154 59.8507 29.6215 60.7265V66.75C29.6215 68.5932 31.1214 70.0875 32.9715 70.0875C34.8216 70.0875 36.3215 68.5932 36.3215 66.75V60.7265C39.4277 59.8507 42.0317 57.7886 43.6098 55.071C44.5362 53.4757 43.989 51.434 42.3873 50.5111C40.786 49.5881 38.7367 50.1333 37.8103 51.729C36.8397 53.4 35.0342 54.5125 32.9715 54.5125C30.9093 54.5125 29.1039 53.4 28.1332 51.729Z" fill="#ACADDF"/>
</svg>
