<svg width="800" height="73" viewBox="0 0 800 73" fill="none" xmlns="http://www.w3.org/2000/svg">
<g opacity="0.1">
<path d="M-307.726 21.9C-307.726 12.286 -315.505 4.49231 -325.101 4.49231H-364.335C-373.931 4.49231 -381.71 12.286 -381.71 21.9C-381.71 31.514 -389.489 39.3077 -399.085 39.3077H-423.185C-432.472 39.3077 -440 46.85 -440 56.1538C-440 65.4577 -432.472 73 -423.185 73H-396.843C-387.247 73 -379.468 65.2063 -379.468 55.5923C-379.468 45.9783 -371.689 38.1846 -362.093 38.1846H-330.706C-321.11 38.1846 -313.331 45.9783 -313.331 55.5923C-313.331 65.2063 -305.552 73 -295.956 73H-266.25C-256.964 73 -249.436 65.4577 -249.436 56.1538C-249.436 46.85 -256.964 39.3077 -266.25 39.3077H-290.351C-299.947 39.3077 -307.726 31.514 -307.726 21.9Z" fill="#FBFBFE"/>
<path d="M-169.847 51.1C-169.847 60.714 -177.626 68.5077 -187.222 68.5077H-226.456C-236.052 68.5077 -243.831 60.714 -243.831 51.1C-243.831 41.486 -251.61 33.6923 -261.206 33.6923H-285.307C-294.593 33.6923 -302.121 26.15 -302.121 16.8462C-302.121 7.54228 -294.593 1.41161e-06 -285.307 1.41161e-06H-258.964C-249.368 1.41161e-06 -241.589 7.79369 -241.589 17.4077C-241.589 27.0217 -233.81 34.8154 -224.214 34.8154H-192.827C-183.231 34.8154 -175.452 27.0217 -175.452 17.4077C-175.452 7.79369 -167.673 1.41161e-06 -158.077 1.41161e-06H-128.371C-119.085 1.41161e-06 -111.557 7.54228 -111.557 16.8462C-111.557 26.15 -119.085 33.6923 -128.371 33.6923H-152.472C-162.068 33.6923 -169.847 41.486 -169.847 51.1Z" fill="#FBFBFE"/>
<path d="M-31.9681 21.9C-31.9681 12.286 -39.7471 4.49231 -49.343 4.49231H-88.5769C-98.1729 4.49231 -105.952 12.286 -105.952 21.9C-105.952 31.514 -113.731 39.3077 -123.327 39.3077H-147.428C-156.714 39.3077 -164.242 46.85 -164.242 56.1538C-164.242 65.4577 -156.714 73 -147.428 73H-121.085C-111.489 73 -103.71 65.2063 -103.71 55.5923C-103.71 45.9783 -95.9309 38.1846 -86.335 38.1846H-54.9479C-45.352 38.1846 -37.5729 45.9783 -37.5729 55.5923C-37.5729 65.2063 -29.7938 73 -20.1979 73H9.50769C18.7941 73 26.3222 65.4577 26.3222 56.1538C26.3222 46.85 18.7941 39.3077 9.50769 39.3077H-14.5931C-24.189 39.3077 -31.9681 31.514 -31.9681 21.9Z" fill="#FBFBFE"/>
<path d="M106.053 51.1C106.053 60.714 98.2739 68.5077 88.678 68.5077H49.4442C39.8482 68.5077 32.0691 60.714 32.0691 51.1C32.0691 41.486 24.2901 33.6923 14.6941 33.6923H-9.40665C-18.6931 33.6923 -26.2211 26.15 -26.2211 16.8462C-26.2211 7.54228 -18.6931 0 -9.40665 0H16.9361C26.532 0 34.311 7.79369 34.311 17.4077C34.311 27.0217 42.0901 34.8154 51.686 34.8154H83.0731C92.6691 34.8154 100.448 27.0217 100.448 17.4077C100.448 7.79369 108.227 0 117.823 0H147.529C156.815 0 164.343 7.54228 164.343 16.8462C164.343 26.15 156.815 33.6923 147.529 33.6923H123.428C113.832 33.6923 106.053 41.486 106.053 51.1Z" fill="#FBFBFE"/>
<path d="M243.932 21.9C243.932 12.286 236.153 4.49231 226.557 4.49231H187.323C177.727 4.49231 169.948 12.286 169.948 21.9C169.948 31.514 162.169 39.3077 152.573 39.3077H128.472C119.186 39.3077 111.658 46.85 111.658 56.1538C111.658 65.4577 119.186 73 128.472 73H154.815C164.411 73 172.19 65.2063 172.19 55.5923C172.19 45.9783 179.969 38.1846 189.565 38.1846H220.952C230.548 38.1846 238.327 45.9783 238.327 55.5923C238.327 65.2063 246.106 73 255.702 73H285.408C294.694 73 302.222 65.4577 302.222 56.1538C302.222 46.85 294.694 39.3077 285.408 39.3077H261.307C251.711 39.3077 243.932 31.514 243.932 21.9Z" fill="#FBFBFE"/>
<path d="M381.811 51.1C381.811 60.714 374.032 68.5077 364.436 68.5077H325.202C315.606 68.5077 307.827 60.714 307.827 51.1C307.827 41.486 300.048 33.6923 290.452 33.6923H266.351C257.065 33.6923 249.537 26.15 249.537 16.8462C249.537 7.54228 257.065 0 266.351 0H292.694C302.29 0 310.069 7.79369 310.069 17.4077C310.069 27.0217 317.848 34.8154 327.444 34.8154H358.831C368.427 34.8154 376.206 27.0217 376.206 17.4077C376.206 7.79369 383.985 0 393.581 0H423.286C432.573 0 440.101 7.54228 440.101 16.8462C440.101 26.15 432.573 33.6923 423.286 33.6923H399.186C389.59 33.6923 381.811 41.486 381.811 51.1Z" fill="#FBFBFE"/>
<path d="M520.173 21.9C520.173 12.286 512.394 4.49231 502.798 4.49231H463.564C453.968 4.49231 446.189 12.286 446.189 21.9C446.189 31.514 438.41 39.3077 428.814 39.3077H404.714C395.427 39.3077 387.899 46.85 387.899 56.1538C387.899 65.4577 395.427 73 404.714 73H431.056C440.652 73 448.431 65.2063 448.431 55.5923C448.431 45.9783 456.21 38.1846 465.806 38.1846H497.193C506.789 38.1846 514.568 45.9783 514.568 55.5923C514.568 65.2063 522.347 73 531.943 73H561.649C570.935 73 578.463 65.4577 578.463 56.1538C578.463 46.85 570.935 39.3077 561.649 39.3077H537.548C527.952 39.3077 520.173 31.514 520.173 21.9Z" fill="#FBFBFE"/>
<path d="M658.052 51.1C658.052 60.714 650.273 68.5077 640.677 68.5077H601.443C591.847 68.5077 584.068 60.714 584.068 51.1C584.068 41.486 576.289 33.6923 566.693 33.6923H542.592C533.306 33.6923 525.778 26.15 525.778 16.8462C525.778 7.54228 533.306 1.41161e-06 542.592 1.41161e-06H568.935C578.531 1.41161e-06 586.31 7.79369 586.31 17.4077C586.31 27.0217 594.089 34.8154 603.685 34.8154H635.072C644.668 34.8154 652.447 27.0217 652.447 17.4077C652.447 7.79369 660.226 1.41161e-06 669.822 1.41161e-06H699.528C708.814 1.41161e-06 716.342 7.54228 716.342 16.8462C716.342 26.15 708.814 33.6923 699.528 33.6923H675.427C665.831 33.6923 658.052 41.486 658.052 51.1Z" fill="#FBFBFE"/>
<path d="M795.931 21.9C795.931 12.286 788.152 4.49231 778.556 4.49231H739.322C729.726 4.49231 721.947 12.286 721.947 21.9C721.947 31.514 714.168 39.3077 704.572 39.3077H680.471C671.185 39.3077 663.657 46.85 663.657 56.1538C663.657 65.4577 671.185 73 680.471 73H706.814C716.41 73 724.189 65.2063 724.189 55.5923C724.189 45.9783 731.968 38.1846 741.564 38.1846H772.951C782.547 38.1846 790.326 45.9783 790.326 55.5923C790.326 65.2063 798.105 73 807.701 73H837.407C846.693 73 854.221 65.4577 854.221 56.1538C854.221 46.85 846.693 39.3077 837.407 39.3077H813.306C803.71 39.3077 795.931 31.514 795.931 21.9Z" fill="#FBFBFE"/>
<path d="M933.952 51.1C933.952 60.714 926.173 68.5077 916.577 68.5077H877.343C867.747 68.5077 859.968 60.714 859.968 51.1C859.968 41.486 852.189 33.6923 842.593 33.6923H818.492C809.206 33.6923 801.678 26.15 801.678 16.8462C801.678 7.54228 809.206 0 818.492 0H844.835C854.431 0 862.21 7.79369 862.21 17.4077C862.21 27.0217 869.989 34.8154 879.585 34.8154H910.972C920.568 34.8154 928.347 27.0217 928.347 17.4077C928.347 7.79369 936.126 0 945.722 0H975.428C984.714 0 992.242 7.54228 992.242 16.8462C992.242 26.15 984.714 33.6923 975.428 33.6923H951.327C941.731 33.6923 933.952 41.486 933.952 51.1Z" fill="#FBFBFE"/>
<path d="M1071.83 21.9C1071.83 12.286 1064.05 4.49231 1054.46 4.49231H1015.22C1005.63 4.49231 997.847 12.286 997.847 21.9C997.847 31.514 990.068 39.3077 980.472 39.3077H956.371C947.085 39.3077 939.557 46.85 939.557 56.1538C939.557 65.4577 947.085 73 956.371 73H982.714C992.31 73 1000.09 65.2063 1000.09 55.5923C1000.09 45.9783 1007.87 38.1846 1017.46 38.1846H1048.85C1058.45 38.1846 1066.23 45.9783 1066.23 55.5923C1066.23 65.2063 1074.01 73 1083.6 73H1113.31C1122.59 73 1130.12 65.4577 1130.12 56.1538C1130.12 46.85 1122.59 39.3077 1113.31 39.3077H1089.21C1079.61 39.3077 1071.83 31.514 1071.83 21.9Z" fill="#FBFBFE"/>
<path d="M1209.71 51.1C1209.71 60.714 1201.93 68.5077 1192.33 68.5077H1153.1C1143.51 68.5077 1135.73 60.714 1135.73 51.1C1135.73 41.486 1127.95 33.6923 1118.35 33.6923H1094.25C1084.96 33.6923 1077.44 26.15 1077.44 16.8462C1077.44 7.54228 1084.96 0 1094.25 0H1120.59C1130.19 0 1137.97 7.79369 1137.97 17.4077C1137.97 27.0217 1145.75 34.8154 1155.34 34.8154H1186.73C1196.33 34.8154 1204.1 27.0217 1204.1 17.4077C1204.1 7.79369 1211.88 0 1221.48 0H1251.19C1260.47 0 1268 7.54228 1268 16.8462C1268 26.15 1260.47 33.6923 1251.19 33.6923H1227.08C1217.49 33.6923 1209.71 41.486 1209.71 51.1Z" fill="#FBFBFE"/>
</g>
</svg>
