<svg width="36" height="31" viewBox="0 0 36 31" fill="none" xmlns="http://www.w3.org/2000/svg">
<g opacity="0.2">
<path d="M35.9923 8.54193C35.9923 3.82422 32.1557 1.94162e-06 27.4228 1.52919e-06C22.6898 1.11675e-06 18.8531 3.82422 18.8531 8.54193C18.8531 13.2596 22.6898 17.0838 27.4228 17.0838C28.3955 17.0838 29.3266 16.9148 30.1982 16.6169C28.2697 27.6417 19.6445 34.7515 27.64 28.9C36.5058 22.4114 36.0018 8.80298 35.9919 8.55358C35.9919 8.5497 35.9923 8.54623 35.9923 8.54193Z" fill="#ACADDF"/>
<path d="M17.1393 8.54193C17.1393 3.82422 13.3027 4.12435e-07 8.56965 0C3.83664 -4.12435e-07 4.13773e-07 3.82422 0 8.54192C-4.13773e-07 13.2596 3.83671 17.0838 8.56972 17.0838C9.54249 17.0838 10.4735 16.9148 11.3452 16.6169C9.41664 27.6417 0.791503 34.7515 8.78697 28.9C17.6527 22.4114 17.1489 8.80298 17.1389 8.55358C17.1389 8.5497 17.1393 8.54623 17.1393 8.54193Z" fill="#ACADDF"/>
</g>
</svg>
