<svg width="8" height="8" viewBox="0 0 8 8" fill="none" xmlns="http://www.w3.org/2000/svg">
<path d="M3.4992 0.393755C3.62667 -0.131251 4.37333 -0.131252 4.5008 0.393754L4.70129 1.2195C4.78363 1.55864 5.17219 1.71959 5.47023 1.538L6.19588 1.09588C6.65725 0.814783 7.18522 1.34275 6.90412 1.80412L6.462 2.52977C6.28041 2.82781 6.44136 3.21637 6.7805 3.29871L7.60625 3.4992C8.13125 3.62667 8.13125 4.37333 7.60625 4.5008L6.7805 4.70129C6.44136 4.78363 6.28041 5.17219 6.462 5.47023L6.90412 6.19588C7.18522 6.65725 6.65725 7.18522 6.19588 6.90412L5.47023 6.462C5.17219 6.28041 4.78363 6.44136 4.70129 6.7805L4.5008 7.60625C4.37333 8.13125 3.62667 8.13125 3.4992 7.60625L3.29871 6.7805C3.21637 6.44136 2.82781 6.28041 2.52977 6.462L1.80412 6.90412C1.34275 7.18522 0.814782 6.65725 1.09588 6.19588L1.538 5.47023C1.71959 5.17219 1.55864 4.78363 1.2195 4.70129L0.393755 4.5008C-0.131251 4.37333 -0.131252 3.62667 0.393754 3.4992L1.2195 3.29871C1.55864 3.21637 1.71959 2.82781 1.538 2.52977L1.09588 1.80412C0.814783 1.34275 1.34275 0.814783 1.80412 1.09588L2.52977 1.538C2.82781 1.71959 3.21637 1.55864 3.29871 1.2195L3.4992 0.393755Z" fill="#CD7F84"/>
</svg>
