<svg width="180" height="180" viewBox="0 0 180 180" fill="none" xmlns="http://www.w3.org/2000/svg">
<path d="M76.6282 8.15296C82.2288 -2.71765 97.7712 -2.71765 103.372 8.15296L108.922 18.9256C112.287 25.4576 119.879 28.6022 126.878 26.363L138.419 22.6701C150.066 18.9436 161.056 29.9338 157.33 41.5807L153.637 53.1225C151.398 60.1209 154.542 67.7129 161.074 71.0782L171.847 76.6282C182.718 82.2288 182.718 97.7712 171.847 103.372L161.074 108.922C154.542 112.287 151.398 119.879 153.637 126.878L157.33 138.419C161.056 150.066 150.066 161.056 138.419 157.33L126.878 153.637C119.879 151.398 112.287 154.542 108.922 161.074L103.372 171.847C97.7712 182.718 82.2288 182.718 76.6282 171.847L71.0782 161.074C67.7129 154.542 60.1209 151.398 53.1225 153.637L41.5807 157.33C29.9338 161.056 18.9436 150.066 22.6701 138.419L26.363 126.878C28.6022 119.879 25.4576 112.287 18.9256 108.922L8.15296 103.372C-2.71765 97.7712 -2.71765 82.2288 8.15296 76.6282L18.9256 71.0782C25.4576 67.7129 28.6022 60.1209 26.363 53.1225L22.6701 41.5807C18.9436 29.9338 29.9338 18.9436 41.5807 22.6701L53.1225 26.363C60.1209 28.6022 67.7129 25.4576 71.0782 18.9256L76.6282 8.15296Z" fill="#FBFBFE"/>
</svg>
