<svg width="10" height="10" viewBox="0 0 10 10" fill="none" xmlns="http://www.w3.org/2000/svg">
<path d="M4.374 0.492193C4.53334 -0.164064 5.46666 -0.164065 5.626 0.492192L5.87661 1.52437C5.97954 1.9483 6.46523 2.14948 6.83778 1.9225L7.74485 1.36985C8.32157 1.01848 8.98152 1.67843 8.63015 2.25515L8.0775 3.16222C7.85052 3.53477 8.0517 4.02046 8.47563 4.12339L9.50781 4.374C10.1641 4.53334 10.1641 5.46666 9.50781 5.626L8.47563 5.87661C8.0517 5.97954 7.85052 6.46523 8.0775 6.83778L8.63015 7.74485C8.98152 8.32157 8.32157 8.98152 7.74485 8.63015L6.83778 8.0775C6.46523 7.85052 5.97954 8.0517 5.87661 8.47563L5.626 9.50781C5.46666 10.1641 4.53334 10.1641 4.374 9.50781L4.12339 8.47563C4.02046 8.0517 3.53477 7.85052 3.16222 8.0775L2.25515 8.63015C1.67843 8.98152 1.01848 8.32157 1.36985 7.74485L1.9225 6.83778C2.14948 6.46523 1.9483 5.97954 1.52437 5.87661L0.492193 5.626C-0.164064 5.46666 -0.164065 4.53334 0.492192 4.374L1.52437 4.12339C1.9483 4.02046 2.14948 3.53477 1.9225 3.16222L1.36985 2.25515C1.01848 1.67843 1.67843 1.01848 2.25515 1.36985L3.16222 1.9225C3.53477 2.14948 4.02046 1.9483 4.12339 1.52437L4.374 0.492193Z" fill="#2E3749"/>
</svg>
