<svg width="44" height="44" viewBox="0 0 44 44" fill="none" xmlns="http://www.w3.org/2000/svg">
<path d="M18.7313 1.99294C20.1004 -0.664315 23.8996 -0.664315 25.2687 1.99294L26.6253 4.62625C27.448 6.22296 29.3038 6.99166 31.0145 6.4443L33.8358 5.54159C36.6828 4.63066 39.3693 7.31715 38.4584 10.1642L37.5557 12.9855C37.0083 14.6962 37.777 16.552 39.3738 17.3747L42.0071 18.7313C44.6643 20.1004 44.6643 23.8996 42.0071 25.2687L39.3738 26.6253C37.777 27.448 37.0083 29.3038 37.5557 31.0145L38.4584 33.8358C39.3693 36.6828 36.6828 39.3693 33.8358 38.4584L31.0145 37.5557C29.3038 37.0083 27.448 37.777 26.6253 39.3738L25.2687 42.0071C23.8996 44.6643 20.1004 44.6643 18.7313 42.0071L17.3747 39.3738C16.552 37.777 14.6962 37.0083 12.9855 37.5557L10.1642 38.4584C7.31716 39.3693 4.63066 36.6828 5.54159 33.8358L6.4443 31.0145C6.99166 29.3038 6.22296 27.448 4.62625 26.6253L1.99294 25.2687C-0.664315 23.8996 -0.664315 20.1004 1.99294 18.7313L4.62625 17.3747C6.22296 16.552 6.99166 14.6962 6.4443 12.9855L5.54159 10.1642C4.63066 7.31716 7.31716 4.63066 10.1642 5.54159L12.9855 6.4443C14.6962 6.99166 16.552 6.22296 17.3747 4.62625L18.7313 1.99294Z" fill="#72CEC6"/>
</svg>
