<svg width="20" height="20" viewBox="0 0 20 20" fill="none" xmlns="http://www.w3.org/2000/svg">
<path d="M9.57456 0.991458C9.66576 0.444718 10.1843 0.076475 10.7305 0.170494L12.2747 0.436255C12.8289 0.531655 13.1956 1.06525 13.0858 1.61687L11.773 8.21596L18.515 7.15465C19.07 7.06728 19.588 7.45415 19.6618 8.01112L19.8672 9.56084C19.9403 10.1127 19.5487 10.618 18.996 10.685L12.2459 11.5023L15.3286 17.5019C15.5835 17.998 15.3833 18.6066 14.8838 18.8546L13.492 19.5457C12.9898 19.795 12.3807 19.5828 12.1422 19.0753L9.26714 12.9577L4.453 17.738C4.05792 18.1303 3.41852 18.1244 3.03077 17.7248L1.94175 16.6027C1.55093 16.1999 1.56793 15.5545 1.97942 15.173L6.95035 10.5634L0.900392 7.4984C0.404479 7.24717 0.208668 6.6397 0.464505 6.14614L1.18008 4.76567C1.43986 4.26451 2.0627 4.07757 2.55552 4.35283L8.46336 7.65258L9.57456 0.991458Z" fill="#DAF2F0"/>
</svg>
