<svg width="269" height="97" viewBox="0 0 269 97" fill="none" xmlns="http://www.w3.org/2000/svg">
<path opacity="0.1" fill-rule="evenodd" clip-rule="evenodd" d="M181.949 27.72C181.949 12.4107 169.539 0 154.229 0H109.31C94.0007 0 81.59 12.4107 81.59 27.72V27.72C81.59 43.0294 69.1793 55.4401 53.87 55.4401H20.78C9.3035 55.4401 0 64.7436 0 76.22V76.22C0 87.6965 9.3035 97 20.78 97H58.3225C73.4444 97 85.7031 84.7413 85.7031 69.6194V69.6194C85.7031 54.4975 97.9618 42.2388 113.084 42.2388H151.28C166.402 42.2388 178.66 54.4975 178.66 69.6194V69.6194C178.66 84.7413 190.919 97 206.041 97H248.22C259.696 97 269 87.6965 269 76.22V76.22C269 64.7436 259.696 55.4401 248.22 55.4401H209.669C194.36 55.4401 181.949 43.0294 181.949 27.72V27.72Z" fill="#ACADDF"/>
</svg>
