<svg width="38" height="38" viewBox="0 0 38 38" fill="none" xmlns="http://www.w3.org/2000/svg">
<path opacity="0.4" d="M1 10V3.57143C1 2.15127 2.15127 1 3.57143 1H10M28 1H34.4286C35.8487 1 37 2.15127 37 3.57143V10M10 37H3.57143C2.15127 37 1 35.8487 1 34.4286L1 28M37 28V34.4286C37 35.8487 35.8487 37 34.4286 37H28" stroke="#ACADDF" stroke-linecap="round"/>
<path fill-rule="evenodd" clip-rule="evenodd" d="M19 28C23.9705 28 28 23.9705 28 19C28 14.0294 23.9705 10 19 10C14.0294 10 10 14.0294 10 19C10 23.9705 14.0294 28 19 28ZM21.7 19C22.1971 19 22.6 18.3956 22.6 17.65C22.6 16.9044 22.1971 16.3 21.7 16.3C21.2029 16.3 20.8 16.9044 20.8 17.65C20.8 18.3956 21.2029 19 21.7 19ZM17.2 17.65C17.2 18.3956 16.7971 19 16.3 19C15.8029 19 15.4 18.3956 15.4 17.65C15.4 16.9044 15.8029 16.3 16.3 16.3C16.7971 16.3 17.2 16.9044 17.2 17.65ZM15.7577 23.9019C15.9797 24.2015 16.4025 24.2643 16.7019 24.0423C17.3575 23.5564 18.1487 23.275 19 23.275C19.8513 23.275 20.6425 23.5564 21.2981 24.0423C21.5976 24.2643 22.0203 24.2015 22.2423 23.9019C22.4643 23.6024 22.4015 23.1797 22.1019 22.9578C21.2268 22.309 20.1565 21.925 19 21.925C17.8435 21.925 16.7732 22.309 15.8981 22.9578C15.5986 23.1797 15.5357 23.6024 15.7577 23.9019Z" fill="#ACADDF"/>
</svg>
