<svg width="38" height="38" viewBox="0 0 38 38" fill="none" xmlns="http://www.w3.org/2000/svg">
<path opacity="0.4" d="M1 10V3.57143C1 2.15127 2.15127 1 3.57143 1H10M28 1H34.4286C35.8487 1 37 2.15127 37 3.57143V10M10 37H3.57143C2.15127 37 1 35.8487 1 34.4286L1 28M37 28V34.4286C37 35.8487 35.8487 37 34.4286 37H28" stroke="#ACADDF" stroke-linecap="round"/>
<path d="M13.4608 17.1229L16.1402 13.3942C17.8721 10.9839 18.7381 9.77883 19.5461 10.0335C20.354 10.2882 20.354 11.7662 20.354 14.7224V15.0011C20.354 16.0674 20.354 16.6005 20.6852 16.9349L20.7027 16.9522C21.0411 17.2796 21.5805 17.2796 22.6594 17.2796C24.601 17.2796 25.5718 17.2796 25.8998 17.8852C25.9052 17.8952 25.9105 17.9053 25.9156 17.9155C26.2254 18.5306 25.6633 19.3127 24.5391 20.8771L21.8598 24.6058C20.1278 27.016 19.2618 28.2212 18.4538 27.9665C17.6459 27.7118 17.6459 26.2337 17.6459 23.2775L17.646 22.999C17.646 21.9326 17.646 21.3996 17.3147 21.0651L17.2972 21.0479C16.9589 20.7205 16.4194 20.7205 15.3405 20.7205C13.399 20.7205 12.4283 20.7205 12.1002 20.1148C12.0948 20.1048 12.0895 20.0948 12.0843 20.0845C11.7746 19.4695 12.3367 18.6873 13.4608 17.1229Z" fill="#ACADDF"/>
</svg>
