<svg width="38" height="38" viewBox="0 0 38 38" fill="none" xmlns="http://www.w3.org/2000/svg">
<path opacity="0.4" d="M1 10V3.57143C1 2.15127 2.15127 1 3.57143 1H10M28 1H34.4286C35.8487 1 37 2.15127 37 3.57143V10M10 37H3.57143C2.15127 37 1 35.8487 1 34.4286L1 28M37 28V34.4286C37 35.8487 35.8487 37 34.4286 37H28" stroke="#ACADDF" stroke-linecap="round"/>
<path d="M27.5495 16.4224L26.7902 19.3901C26.4044 20.8983 25.6165 21.9596 24.6911 22.7058C24.8881 21.6766 24.8837 20.5301 24.5623 19.2738L23.7862 16.24C23.7402 16.0601 23.6952 15.8842 23.6509 15.7148C23.8048 15.6449 23.9928 15.6227 24.1889 15.6753C24.5291 15.7667 24.7358 16.0409 24.7617 16.3073C24.7976 16.6783 25.127 16.9499 25.4973 16.9139C25.8677 16.8779 26.1388 16.5479 26.1028 16.1769C26.0207 15.3286 25.3991 14.6026 24.5376 14.3713C24.1041 14.255 23.6606 14.2775 23.2641 14.417L23.2492 14.3769C23.0475 13.8401 22.7528 13.271 22.1967 12.8526C21.8927 12.6237 21.5491 12.452 21.1818 12.3476C20.5003 12.154 19.8679 12.2784 19.3281 12.4584C18.8265 12.6257 18.2417 12.9001 17.5992 13.2016L17.5348 13.2318C16.4707 13.7311 16.045 13.928 15.6088 14.0667C15.4764 14.1088 15.343 14.147 15.2087 14.1814L15.5021 13.0413C15.8979 11.4943 16.0958 10.7208 16.6125 10.332C16.7857 10.2016 16.9799 10.1049 17.1858 10.0464C17.7998 9.87199 18.4978 10.1995 19.8937 10.8544C20.9274 11.3394 21.4443 11.5819 21.9835 11.7534C22.1711 11.813 22.3603 11.8662 22.5512 11.9127C23.1002 12.0466 23.6635 12.1073 24.7902 12.2286C26.3117 12.3924 27.0726 12.4744 27.5211 12.947C27.6714 13.1055 27.7934 13.2909 27.8812 13.4946C28.143 14.1019 27.9452 14.8754 27.5495 16.4224Z" fill="#ACADDF"/>
<path fill-rule="evenodd" clip-rule="evenodd" d="M23.2571 19.6089L22.4979 16.6413C22.1022 15.0943 21.9043 14.3208 21.3876 13.932C21.2143 13.8016 21.0202 13.7049 20.8143 13.6464C20.2001 13.472 19.5023 13.7995 18.1063 14.4544C17.0726 14.9394 16.5558 15.1819 16.0165 15.3534C15.829 15.413 15.6397 15.4662 15.4488 15.5127C14.8999 15.6466 14.3365 15.7073 13.2098 15.8286C11.6883 15.9924 10.9275 16.0744 10.479 16.547C10.3286 16.7055 10.2066 16.8909 10.1188 17.0946C9.85693 17.7019 10.0548 18.4754 10.4506 20.0224L11.2097 22.9901C12.1022 26.4784 15.0693 27.5757 17.0632 27.9152C17.6715 28.0187 17.9756 28.0706 18.8993 27.8113C19.823 27.5521 20.0617 27.3479 20.5391 26.9397C22.1037 25.6015 24.1495 23.0973 23.2571 19.6089ZM13.5979 20.2312C13.6237 19.9648 13.8306 19.6906 14.1707 19.5992C14.5109 19.5079 14.8269 19.6418 14.9822 19.8596C15.1985 20.1629 15.6193 20.2331 15.922 20.0164C16.2248 19.7996 16.2949 19.3781 16.0786 19.0748C15.5841 18.3813 14.6836 18.0639 13.822 18.2952C12.9604 18.5265 12.339 19.2525 12.2568 20.1007C12.2208 20.4718 12.4919 20.8018 12.8623 20.8378C13.2326 20.8738 13.562 20.6023 13.5979 20.2312ZM18.8043 18.8333C18.8301 18.5668 19.0369 18.2927 19.3771 18.2013C19.7173 18.11 20.0332 18.2438 20.1885 18.4616C20.4048 18.765 20.8257 18.8352 21.1284 18.6185C21.4311 18.4018 21.5012 17.9802 21.2849 17.6768C20.7905 16.9834 19.89 16.666 19.0284 16.8973C18.1668 17.1286 17.5453 17.8546 17.4631 18.7028C17.4272 19.0739 17.6983 19.4039 18.0687 19.4399C18.4389 19.4759 18.7684 19.2043 18.8043 18.8333ZM20.4625 22.2658C20.7613 22.488 20.8237 22.9108 20.6019 23.2101C20.3823 23.5067 19.966 23.5709 19.6678 23.356L19.659 23.3503C19.6462 23.3422 19.6209 23.3269 19.5837 23.3078C19.5093 23.2694 19.3881 23.2157 19.2233 23.1709C18.8985 23.0824 18.3884 23.024 17.7091 23.2063C17.0298 23.3887 16.6172 23.6948 16.38 23.9342C16.2597 24.0555 16.1816 24.1628 16.1363 24.2333C16.1136 24.2685 16.0994 24.2943 16.0923 24.3078L16.0875 24.3171C15.9365 24.6526 15.544 24.8056 15.2057 24.6588C14.8643 24.5107 14.7074 24.1133 14.8552 23.7712L15.4735 24.0395C14.8552 23.7712 14.8559 23.7697 14.8559 23.7697L14.8565 23.7682L14.858 23.7649L14.8615 23.7569L14.871 23.7366C14.8784 23.7211 14.888 23.7017 14.9001 23.6787C14.9242 23.6329 14.958 23.573 15.0032 23.5027C15.0935 23.3621 15.2296 23.179 15.4239 22.9829C15.816 22.5873 16.434 22.151 17.3604 21.9023C18.2867 21.6536 19.0396 21.722 19.5765 21.868C19.8427 21.9405 20.052 22.0309 20.2004 22.1074C20.2746 22.1458 20.3338 22.1806 20.3775 22.2082C20.3994 22.2221 20.4174 22.2341 20.4316 22.2439L20.4499 22.2567L20.4569 22.2618L20.4599 22.2639L20.4613 22.2649L20.4625 22.2658Z" fill="#ACADDF"/>
</svg>
