<svg width="50" height="50" viewBox="0 0 50 50" fill="none" xmlns="http://www.w3.org/2000/svg">
<path opacity="0.4" d="M1 13V4.42857C1 2.53502 2.53502 1 4.42857 1H13M37 1H45.5714C47.465 1 49 2.53502 49 4.42857V13M13 49H4.42857C2.53502 49 1 47.465 1 45.5714L1 37M49 37V45.5714C49 47.465 47.465 49 45.5714 49H37" stroke="#ACADDF" stroke-linecap="round"/>
<path d="M20.6665 32.5132C17.5415 30.1254 13.8711 27.3208 13.8711 22.459C13.8711 17.0918 19.992 13.2856 24.9997 18.4455L27.2254 20.6513C27.5513 20.9745 28.0798 20.9744 28.4058 20.6511C28.7316 20.3278 28.7315 19.8037 28.4056 19.4805L26.2555 17.3489C30.974 13.9231 36.1282 17.5338 36.1282 22.459C36.1282 27.3208 32.4578 30.1254 29.3328 32.5132C29.0081 32.7614 28.6891 33.0051 28.3809 33.2461C27.2254 34.1495 26.1125 35 24.9997 35C23.8868 35 22.774 34.1495 21.6185 33.2461C21.3102 33.0051 20.9913 32.7614 20.6665 32.5132Z" fill="#ACADDF"/>
</svg>
