<svg width="38" height="38" viewBox="0 0 38 38" fill="none" xmlns="http://www.w3.org/2000/svg">
<path opacity="0.4" d="M1 10V3.57143C1 2.15127 2.15127 1 3.57143 1H10M28 1H34.4286C35.8487 1 37 2.15127 37 3.57143V10M10 37H3.57143C2.15127 37 1 35.8487 1 34.4286L1 28M37 28V34.4286C37 35.8487 35.8487 37 34.4286 37H28" stroke="#ACADDF" stroke-linecap="round"/>
<path fill-rule="evenodd" clip-rule="evenodd" d="M19 28C23.9705 28 28 23.9705 28 19C28 14.0294 23.9705 10 19 10C14.0294 10 10 14.0294 10 19C10 23.9705 14.0294 28 19 28ZM14.995 16.84C14.6968 16.6164 14.6364 16.1933 14.86 15.895C15.0837 15.5968 15.5068 15.5364 15.805 15.76L17.605 17.11C17.775 17.2375 17.875 17.4376 17.875 17.65C17.875 17.8625 17.775 18.0626 17.605 18.19L15.805 19.54C15.5068 19.7637 15.0837 19.7033 14.86 19.405C14.6364 19.1068 14.6968 18.6837 14.995 18.46L16.075 17.65L14.995 16.84ZM23.14 15.895C23.3637 16.1933 23.3033 16.6164 23.005 16.84L21.925 17.65L23.005 18.46C23.3033 18.6837 23.3637 19.1068 23.14 19.405C22.9164 19.7033 22.4933 19.7637 22.195 19.54L20.395 18.19C20.2251 18.0626 20.125 17.8625 20.125 17.65C20.125 17.4376 20.2251 17.2375 20.395 17.11L22.195 15.76C22.4933 15.5364 22.9164 15.5968 23.14 15.895ZM22.1774 23.0774C21.9138 23.341 21.4863 23.341 21.2227 23.0774L20.7996 22.6543C20.2949 23.1306 19.5046 23.1306 19 22.6539C18.4955 23.1306 17.7052 23.1306 17.2005 22.6543L16.7773 23.0774C16.5137 23.341 16.0863 23.341 15.8227 23.0774C15.5591 22.8138 15.5591 22.3863 15.8227 22.1227L16.2727 21.6727C16.7759 21.1696 17.5861 21.1608 18.1 21.6463C18.6048 21.1695 19.3953 21.1695 19.9 21.6463C20.414 21.1608 21.2242 21.1696 21.7274 21.6727L22.1774 22.1227C22.441 22.3863 22.441 22.8138 22.1774 23.0774Z" fill="#ACADDF"/>
</svg>
