<svg width="38" height="38" viewBox="0 0 38 38" fill="none" xmlns="http://www.w3.org/2000/svg">
<path opacity="0.4" d="M1 10V3.57143C1 2.15127 2.15127 1 3.57143 1H10M28 1H34.4286C35.8487 1 37 2.15127 37 3.57143V10M10 37H3.57143C2.15127 37 1 35.8487 1 34.4286L1 28M37 28V34.4286C37 35.8487 35.8487 37 34.4286 37H28" stroke="#ACADDF" stroke-linecap="round"/>
<path d="M16.6321 17.5785C18.7251 17.5785 20.4218 15.882 20.4218 13.7893C20.4218 11.6965 18.7251 10 16.6321 10C14.539 10 12.8423 11.6965 12.8423 13.7893C12.8423 15.882 14.539 17.5785 16.6321 17.5785Z" fill="#ACADDF"/>
<path d="M16.6321 28C20.2948 28 23.2641 26.3035 23.2641 24.2107C23.2641 22.118 20.2948 20.4215 16.6321 20.4215C12.9693 20.4215 10 22.118 10 24.2107C10 26.3035 12.9693 28 16.6321 28Z" fill="#ACADDF"/>
<path d="M28 24.2103C28 25.7798 26.0715 27.0521 23.7168 27.0521C24.4105 26.294 24.8876 25.3423 24.8876 24.2115C24.8876 23.0794 24.4094 22.1269 23.7144 21.3683C26.069 21.3683 28 22.6406 28 24.2103Z" fill="#ACADDF"/>
<path d="M25.1577 13.79C25.1577 15.3595 23.8852 16.6319 22.3154 16.6319C21.9731 16.6319 21.645 16.5714 21.341 16.4605C21.7893 15.6723 22.0453 14.7605 22.0453 13.7889C22.0453 12.8181 21.7896 11.9069 21.342 11.119C21.6456 11.0084 21.9734 10.948 22.3154 10.948C23.8852 10.948 25.1577 12.2204 25.1577 13.79Z" fill="#ACADDF"/>
</svg>
