<svg width="573" height="284" viewBox="0 0 573 284" fill="none" xmlns="http://www.w3.org/2000/svg">
<g opacity="0.05">
<path d="M156.327 28.361C156.327 15.9106 146.251 5.81764 133.822 5.81764H83.0048C70.5757 5.81764 60.5 15.9106 60.5 28.361C60.5 40.8113 50.4242 50.9043 37.9952 50.9043H6.77885C-5.24928 50.9043 -15 60.6717 -15 72.7204C-15 84.7692 -5.24928 94.5366 6.77885 94.5366H40.899C53.3281 94.5366 63.4038 84.4436 63.4038 71.9932C63.4038 59.5429 73.4796 49.4499 85.9086 49.4499H126.562C138.992 49.4499 149.067 59.5429 149.067 71.9932C149.067 84.4436 159.143 94.5366 171.572 94.5366H210.048C222.076 94.5366 231.827 84.7692 231.827 72.7204C231.827 60.6717 222.076 50.9043 210.048 50.9043H178.832C166.403 50.9043 156.327 40.8113 156.327 28.361Z" fill="#ACADDF"/>
<path d="M334.913 66.1756C334.913 78.626 324.838 88.7189 312.409 88.7189H261.591C249.162 88.7189 239.087 78.626 239.087 66.1756C239.087 53.7253 229.011 43.6323 216.582 43.6323H185.365C173.337 43.6323 163.587 33.8649 163.587 21.8161C163.587 9.76742 173.337 0 185.365 0H219.486C231.915 0 241.99 10.093 241.99 22.5433C241.99 34.9937 252.066 45.0867 264.495 45.0867H305.149C317.578 45.0867 327.654 34.9937 327.654 22.5433C327.654 10.093 337.73 0 350.159 0H388.635C400.663 0 410.413 9.76742 410.413 21.8161C410.413 33.8649 400.663 43.6323 388.635 43.6323H357.418C344.989 43.6323 334.913 53.7253 334.913 66.1756Z" fill="#ACADDF"/>
<path d="M513.5 28.361C513.5 15.9106 503.424 5.81764 490.995 5.81764H440.178C427.749 5.81764 417.673 15.9106 417.673 28.361C417.673 40.8113 407.597 50.9043 395.168 50.9043H363.952C351.924 50.9043 342.173 60.6717 342.173 72.7204C342.173 84.7692 351.924 94.5366 363.952 94.5366H398.072C410.501 94.5366 420.577 84.4436 420.577 71.9932C420.577 59.5429 430.653 49.4499 443.082 49.4499H483.736C496.165 49.4499 506.24 59.5429 506.24 71.9932C506.24 84.4436 516.316 94.5366 528.745 94.5366H567.221C579.249 94.5366 589 84.7692 589 72.7204C589 60.6717 579.249 50.9043 567.221 50.9043H536.005C523.576 50.9043 513.5 40.8113 513.5 28.361Z" fill="#ACADDF"/>
<path d="M156.327 170.663C156.327 183.114 146.251 193.207 133.822 193.207H83.0048C70.5757 193.207 60.5 183.114 60.5 170.663C60.5 158.213 50.4242 148.12 37.9952 148.12H6.77885C-5.24928 148.12 -15 138.353 -15 126.304C-15 114.255 -5.24928 104.488 6.77885 104.488H40.899C53.3281 104.488 63.4038 114.581 63.4038 127.031C63.4038 139.481 73.4796 149.574 85.9086 149.574H126.562C138.992 149.574 149.067 139.481 149.067 127.031C149.067 114.581 159.143 104.488 171.572 104.488H210.048C222.076 104.488 231.827 114.255 231.827 126.304C231.827 138.353 222.076 148.12 210.048 148.12H178.832C166.403 148.12 156.327 158.213 156.327 170.663Z" fill="#ACADDF"/>
<path d="M334.913 132.849C334.913 120.398 324.838 110.305 312.409 110.305H261.591C249.162 110.305 239.087 120.398 239.087 132.849C239.087 145.299 229.011 155.392 216.582 155.392H185.365C173.337 155.392 163.587 165.16 163.587 177.208C163.587 189.257 173.337 199.024 185.365 199.024H219.486C231.915 199.024 241.99 188.931 241.99 176.481C241.99 164.031 252.066 153.938 264.495 153.938H305.149C317.578 153.938 327.654 164.031 327.654 176.481C327.654 188.931 337.73 199.024 350.159 199.024H388.635C400.663 199.024 410.413 189.257 410.413 177.208C410.413 165.16 400.663 155.392 388.635 155.392H357.418C344.989 155.392 334.913 145.299 334.913 132.849Z" fill="#ACADDF"/>
<path d="M513.5 170.663C513.5 183.114 503.424 193.207 490.995 193.207H440.178C427.749 193.207 417.673 183.114 417.673 170.663C417.673 158.213 407.597 148.12 395.168 148.12H363.952C351.924 148.12 342.173 138.353 342.173 126.304C342.173 114.255 351.924 104.488 363.952 104.488H398.072C410.501 104.488 420.577 114.581 420.577 127.031C420.577 139.481 430.653 149.574 443.082 149.574H483.736C496.165 149.574 506.24 139.481 506.24 127.031C506.24 114.581 516.316 104.488 528.745 104.488H567.221C579.249 104.488 589 114.255 589 126.304C589 138.353 579.249 148.12 567.221 148.12H536.005C523.576 148.12 513.5 158.213 513.5 170.663Z" fill="#ACADDF"/>
<path d="M156.327 237.337C156.327 224.886 146.251 214.793 133.822 214.793H83.0048C70.5757 214.793 60.5 224.886 60.5 237.337C60.5 249.787 50.4242 259.88 37.9952 259.88H6.77885C-5.24928 259.88 -15 269.647 -15 281.696C-15 293.745 -5.24928 303.512 6.77885 303.512H40.899C53.3281 303.512 63.4038 293.419 63.4038 280.969C63.4038 268.519 73.4796 258.426 85.9086 258.426H126.562C138.992 258.426 149.067 268.519 149.067 280.969C149.067 293.419 159.143 303.512 171.572 303.512H210.048C222.076 303.512 231.827 293.745 231.827 281.696C231.827 269.647 222.076 259.88 210.048 259.88H178.832C166.403 259.88 156.327 249.787 156.327 237.337Z" fill="#ACADDF"/>
<path d="M334.913 275.151C334.913 287.602 324.838 297.695 312.409 297.695H261.591C249.162 297.695 239.087 287.602 239.087 275.151C239.087 262.701 229.011 252.608 216.582 252.608H185.365C173.337 252.608 163.587 242.84 163.587 230.792C163.587 218.743 173.337 208.976 185.365 208.976H219.486C231.915 208.976 241.99 219.069 241.99 231.519C241.99 243.969 252.066 254.062 264.495 254.062H305.149C317.578 254.062 327.654 243.969 327.654 231.519C327.654 219.069 337.73 208.976 350.159 208.976H388.635C400.663 208.976 410.413 218.743 410.413 230.792C410.413 242.84 400.663 252.608 388.635 252.608H357.418C344.989 252.608 334.913 262.701 334.913 275.151Z" fill="#ACADDF"/>
<path d="M513.5 237.337C513.5 224.886 503.424 214.793 490.995 214.793H440.178C427.749 214.793 417.673 224.886 417.673 237.337C417.673 249.787 407.597 259.88 395.168 259.88H363.952C351.924 259.88 342.173 269.647 342.173 281.696C342.173 293.745 351.924 303.512 363.952 303.512H398.072C410.501 303.512 420.577 293.419 420.577 280.969C420.577 268.519 430.653 258.426 443.082 258.426H483.736C496.165 258.426 506.24 268.519 506.24 280.969C506.24 293.419 516.316 303.512 528.745 303.512H567.221C579.249 303.512 589 293.745 589 281.696C589 269.647 579.249 259.88 567.221 259.88H536.005C523.576 259.88 513.5 249.787 513.5 237.337Z" fill="#ACADDF"/>
<path d="M156.327 379.639C156.327 392.089 146.251 402.182 133.822 402.182H83.0048C70.5757 402.182 60.5 392.089 60.5 379.639C60.5 367.189 50.4242 357.096 37.9952 357.096H6.77885C-5.24928 357.096 -15 347.328 -15 335.28C-15 323.231 -5.24928 313.463 6.77885 313.463H40.899C53.3281 313.463 63.4038 323.556 63.4038 336.007C63.4038 348.457 73.4796 358.55 85.9086 358.55H126.562C138.992 358.55 149.067 348.457 149.067 336.007C149.067 323.556 159.143 313.463 171.572 313.463H210.048C222.076 313.463 231.827 323.231 231.827 335.28C231.827 347.328 222.076 357.096 210.048 357.096H178.832C166.403 357.096 156.327 367.189 156.327 379.639Z" fill="#ACADDF"/>
<path d="M334.913 341.824C334.913 329.374 324.838 319.281 312.409 319.281H261.591C249.162 319.281 239.087 329.374 239.087 341.824C239.087 354.275 229.011 364.368 216.582 364.368H185.365C173.337 364.368 163.587 374.135 163.587 386.184C163.587 398.233 173.337 408 185.365 408H219.486C231.915 408 241.99 397.907 241.99 385.457C241.99 373.006 252.066 362.913 264.495 362.913H305.149C317.578 362.913 327.654 373.006 327.654 385.457C327.654 397.907 337.73 408 350.159 408H388.635C400.663 408 410.413 398.233 410.413 386.184C410.413 374.135 400.663 364.368 388.635 364.368H357.418C344.989 364.368 334.913 354.275 334.913 341.824Z" fill="#ACADDF"/>
<path d="M513.5 379.639C513.5 392.089 503.424 402.182 490.995 402.182H440.178C427.749 402.182 417.673 392.089 417.673 379.639C417.673 367.189 407.597 357.096 395.168 357.096H363.952C351.924 357.096 342.173 347.328 342.173 335.28C342.173 323.231 351.924 313.463 363.952 313.463H398.072C410.501 313.463 420.577 323.556 420.577 336.007C420.577 348.457 430.653 358.55 443.082 358.55H483.736C496.165 358.55 506.24 348.457 506.24 336.007C506.24 323.556 516.316 313.463 528.745 313.463H567.221C579.249 313.463 589 323.231 589 335.28C589 347.328 579.249 357.096 567.221 357.096H536.005C523.576 357.096 513.5 367.189 513.5 379.639Z" fill="#ACADDF"/>
</g>
</svg>
