<svg width="300" height="34" viewBox="0 0 300 34" fill="none" xmlns="http://www.w3.org/2000/svg">
<g opacity="0.1">
<path d="M80.7692 35C80.7692 41.5849 75.4311 46.9231 68.8462 46.9231H41.9231C35.3381 46.9231 30 41.5849 30 35C30 28.4151 24.6619 23.0769 18.0769 23.0769H1.53846C-4.83405 23.0769 -10 17.911 -10 11.5385C-10 5.16594 -4.83405 0 1.53846 0H19.6154C26.2003 0 31.5385 5.33814 31.5385 11.9231C31.5385 18.508 36.8766 23.8462 43.4615 23.8462H65C71.5849 23.8462 76.9231 18.508 76.9231 11.9231C76.9231 5.33814 82.2612 0 88.8462 0H109.231C115.603 0 120.769 5.16594 120.769 11.5385C120.769 17.911 115.603 23.0769 109.231 23.0769H92.6923C86.1074 23.0769 80.7692 28.4151 80.7692 35Z" fill="#CD7F84"/>
<path d="M175.385 15C175.385 8.41507 170.046 3.07692 163.462 3.07692H136.538C129.954 3.07692 124.615 8.41507 124.615 15C124.615 21.5849 119.277 26.9231 112.692 26.9231H96.1538C89.7813 26.9231 84.6154 32.089 84.6154 38.4615C84.6154 44.8341 89.7813 50 96.1538 50H114.231C120.816 50 126.154 44.6619 126.154 38.0769C126.154 31.492 131.492 26.1538 138.077 26.1538H159.615C166.2 26.1538 171.538 31.492 171.538 38.0769C171.538 44.6619 176.877 50 183.462 50H203.846C210.219 50 215.385 44.8341 215.385 38.4615C215.385 32.089 210.219 26.9231 203.846 26.9231H187.308C180.723 26.9231 175.385 21.5849 175.385 15Z" fill="#CD7F84"/>
<path d="M270 35C270 41.5849 264.662 46.9231 258.077 46.9231H231.154C224.569 46.9231 219.231 41.5849 219.231 35C219.231 28.4151 213.893 23.0769 207.308 23.0769H190.769C184.397 23.0769 179.231 17.911 179.231 11.5385C179.231 5.16594 184.397 0 190.769 0H208.846C215.431 0 220.769 5.33814 220.769 11.9231C220.769 18.508 226.107 23.8462 232.692 23.8462H254.231C260.816 23.8462 266.154 18.508 266.154 11.9231C266.154 5.33814 271.492 0 278.077 0H298.462C304.834 0 310 5.16594 310 11.5385C310 17.911 304.834 23.0769 298.462 23.0769H281.923C275.338 23.0769 270 28.4151 270 35Z" fill="#CD7F84"/>
</g>
</svg>
