<svg width="573" height="284" viewBox="0 0 573 284" fill="none" xmlns="http://www.w3.org/2000/svg">
<g opacity="0.05">
<path d="M171.327 28.361C171.327 15.9106 161.251 5.81764 148.822 5.81764H98.0048C85.5757 5.81764 75.5 15.9106 75.5 28.361C75.5 40.8113 65.4242 50.9043 52.9952 50.9043H21.7788C9.75072 50.9043 0 60.6717 0 72.7204C0 84.7692 9.75072 94.5366 21.7788 94.5366H55.899C68.3281 94.5366 78.4038 84.4436 78.4038 71.9932C78.4038 59.5429 88.4796 49.4499 100.909 49.4499H141.562C153.992 49.4499 164.067 59.5429 164.067 71.9932C164.067 84.4436 174.143 94.5366 186.572 94.5366H225.048C237.076 94.5366 246.827 84.7692 246.827 72.7204C246.827 60.6717 237.076 50.9043 225.048 50.9043H193.832C181.403 50.9043 171.327 40.8113 171.327 28.361Z" fill="#CD7F84"/>
<path d="M349.913 66.1756C349.913 78.626 339.838 88.7189 327.409 88.7189H276.591C264.162 88.7189 254.087 78.626 254.087 66.1756C254.087 53.7253 244.011 43.6323 231.582 43.6323H200.365C188.337 43.6323 178.587 33.8649 178.587 21.8161C178.587 9.76742 188.337 0 200.365 0H234.486C246.915 0 256.99 10.093 256.99 22.5433C256.99 34.9937 267.066 45.0867 279.495 45.0867H320.149C332.578 45.0867 342.654 34.9937 342.654 22.5433C342.654 10.093 352.73 0 365.159 0H403.635C415.663 0 425.413 9.76742 425.413 21.8161C425.413 33.8649 415.663 43.6323 403.635 43.6323H372.418C359.989 43.6323 349.913 53.7253 349.913 66.1756Z" fill="#CD7F84"/>
<path d="M528.5 28.361C528.5 15.9106 518.424 5.81764 505.995 5.81764H455.178C442.749 5.81764 432.673 15.9106 432.673 28.361C432.673 40.8113 422.597 50.9043 410.168 50.9043H378.952C366.924 50.9043 357.173 60.6717 357.173 72.7204C357.173 84.7692 366.924 94.5366 378.952 94.5366H413.072C425.501 94.5366 435.577 84.4436 435.577 71.9932C435.577 59.5429 445.653 49.4499 458.082 49.4499H498.736C511.165 49.4499 521.24 59.5429 521.24 71.9932C521.24 84.4436 531.316 94.5366 543.745 94.5366H582.221C594.249 94.5366 604 84.7692 604 72.7204C604 60.6717 594.249 50.9043 582.221 50.9043H551.005C538.576 50.9043 528.5 40.8113 528.5 28.361Z" fill="#CD7F84"/>
<path d="M171.327 170.663C171.327 183.114 161.251 193.207 148.822 193.207H98.0048C85.5757 193.207 75.5 183.114 75.5 170.663C75.5 158.213 65.4242 148.12 52.9952 148.12H21.7788C9.75072 148.12 0 138.353 0 126.304C0 114.255 9.75072 104.488 21.7788 104.488H55.899C68.3281 104.488 78.4038 114.581 78.4038 127.031C78.4038 139.481 88.4796 149.574 100.909 149.574H141.562C153.992 149.574 164.067 139.481 164.067 127.031C164.067 114.581 174.143 104.488 186.572 104.488H225.048C237.076 104.488 246.827 114.255 246.827 126.304C246.827 138.353 237.076 148.12 225.048 148.12H193.832C181.403 148.12 171.327 158.213 171.327 170.663Z" fill="#CD7F84"/>
<path d="M349.913 132.849C349.913 120.398 339.838 110.305 327.409 110.305H276.591C264.162 110.305 254.087 120.398 254.087 132.849C254.087 145.299 244.011 155.392 231.582 155.392H200.365C188.337 155.392 178.587 165.16 178.587 177.208C178.587 189.257 188.337 199.024 200.365 199.024H234.486C246.915 199.024 256.99 188.931 256.99 176.481C256.99 164.031 267.066 153.938 279.495 153.938H320.149C332.578 153.938 342.654 164.031 342.654 176.481C342.654 188.931 352.73 199.024 365.159 199.024H403.635C415.663 199.024 425.413 189.257 425.413 177.208C425.413 165.16 415.663 155.392 403.635 155.392H372.418C359.989 155.392 349.913 145.299 349.913 132.849Z" fill="#CD7F84"/>
<path d="M528.5 170.663C528.5 183.114 518.424 193.207 505.995 193.207H455.178C442.749 193.207 432.673 183.114 432.673 170.663C432.673 158.213 422.597 148.12 410.168 148.12H378.952C366.924 148.12 357.173 138.353 357.173 126.304C357.173 114.255 366.924 104.488 378.952 104.488H413.072C425.501 104.488 435.577 114.581 435.577 127.031C435.577 139.481 445.653 149.574 458.082 149.574H498.736C511.165 149.574 521.24 139.481 521.24 127.031C521.24 114.581 531.316 104.488 543.745 104.488H582.221C594.249 104.488 604 114.255 604 126.304C604 138.353 594.249 148.12 582.221 148.12H551.005C538.576 148.12 528.5 158.213 528.5 170.663Z" fill="#CD7F84"/>
<path d="M171.327 237.337C171.327 224.886 161.251 214.793 148.822 214.793H98.0048C85.5757 214.793 75.5 224.886 75.5 237.337C75.5 249.787 65.4242 259.88 52.9952 259.88H21.7788C9.75072 259.88 0 269.647 0 281.696C0 293.745 9.75072 303.512 21.7788 303.512H55.899C68.3281 303.512 78.4038 293.419 78.4038 280.969C78.4038 268.519 88.4796 258.426 100.909 258.426H141.562C153.992 258.426 164.067 268.519 164.067 280.969C164.067 293.419 174.143 303.512 186.572 303.512H225.048C237.076 303.512 246.827 293.745 246.827 281.696C246.827 269.647 237.076 259.88 225.048 259.88H193.832C181.403 259.88 171.327 249.787 171.327 237.337Z" fill="#CD7F84"/>
<path d="M349.913 275.151C349.913 287.602 339.838 297.695 327.409 297.695H276.591C264.162 297.695 254.087 287.602 254.087 275.151C254.087 262.701 244.011 252.608 231.582 252.608H200.365C188.337 252.608 178.587 242.84 178.587 230.792C178.587 218.743 188.337 208.976 200.365 208.976H234.486C246.915 208.976 256.99 219.069 256.99 231.519C256.99 243.969 267.066 254.062 279.495 254.062H320.149C332.578 254.062 342.654 243.969 342.654 231.519C342.654 219.069 352.73 208.976 365.159 208.976H403.635C415.663 208.976 425.413 218.743 425.413 230.792C425.413 242.84 415.663 252.608 403.635 252.608H372.418C359.989 252.608 349.913 262.701 349.913 275.151Z" fill="#CD7F84"/>
<path d="M528.5 237.337C528.5 224.886 518.424 214.793 505.995 214.793H455.178C442.749 214.793 432.673 224.886 432.673 237.337C432.673 249.787 422.597 259.88 410.168 259.88H378.952C366.924 259.88 357.173 269.647 357.173 281.696C357.173 293.745 366.924 303.512 378.952 303.512H413.072C425.501 303.512 435.577 293.419 435.577 280.969C435.577 268.519 445.653 258.426 458.082 258.426H498.736C511.165 258.426 521.24 268.519 521.24 280.969C521.24 293.419 531.316 303.512 543.745 303.512H582.221C594.249 303.512 604 293.745 604 281.696C604 269.647 594.249 259.88 582.221 259.88H551.005C538.576 259.88 528.5 249.787 528.5 237.337Z" fill="#CD7F84"/>
<path d="M171.327 379.639C171.327 392.089 161.251 402.182 148.822 402.182H98.0048C85.5757 402.182 75.5 392.089 75.5 379.639C75.5 367.189 65.4242 357.096 52.9952 357.096H21.7788C9.75072 357.096 0 347.328 0 335.28C0 323.231 9.75072 313.463 21.7788 313.463H55.899C68.3281 313.463 78.4038 323.556 78.4038 336.007C78.4038 348.457 88.4796 358.55 100.909 358.55H141.562C153.992 358.55 164.067 348.457 164.067 336.007C164.067 323.556 174.143 313.463 186.572 313.463H225.048C237.076 313.463 246.827 323.231 246.827 335.28C246.827 347.328 237.076 357.096 225.048 357.096H193.832C181.403 357.096 171.327 367.189 171.327 379.639Z" fill="#CD7F84"/>
<path d="M349.913 341.824C349.913 329.374 339.838 319.281 327.409 319.281H276.591C264.162 319.281 254.087 329.374 254.087 341.824C254.087 354.275 244.011 364.368 231.582 364.368H200.365C188.337 364.368 178.587 374.135 178.587 386.184C178.587 398.233 188.337 408 200.365 408H234.486C246.915 408 256.99 397.907 256.99 385.457C256.99 373.006 267.066 362.913 279.495 362.913H320.149C332.578 362.913 342.654 373.006 342.654 385.457C342.654 397.907 352.73 408 365.159 408H403.635C415.663 408 425.413 398.233 425.413 386.184C425.413 374.135 415.663 364.368 403.635 364.368H372.418C359.989 364.368 349.913 354.275 349.913 341.824Z" fill="#CD7F84"/>
<path d="M528.5 379.639C528.5 392.089 518.424 402.182 505.995 402.182H455.178C442.749 402.182 432.673 392.089 432.673 379.639C432.673 367.189 422.597 357.096 410.168 357.096H378.952C366.924 357.096 357.173 347.328 357.173 335.28C357.173 323.231 366.924 313.463 378.952 313.463H413.072C425.501 313.463 435.577 323.556 435.577 336.007C435.577 348.457 445.653 358.55 458.082 358.55H498.736C511.165 358.55 521.24 348.457 521.24 336.007C521.24 323.556 531.316 313.463 543.745 313.463H582.221C594.249 313.463 604 323.231 604 335.28C604 347.328 594.249 357.096 582.221 357.096H551.005C538.576 357.096 528.5 367.189 528.5 379.639Z" fill="#CD7F84"/>
</g>
</svg>
