<svg width="85" height="95" viewBox="0 0 85 95" fill="none" xmlns="http://www.w3.org/2000/svg">
<path opacity="0.1" fill-rule="evenodd" clip-rule="evenodd" d="M0 39.9793C0 24.7906 4.222e-07 17.1963 1.78273 14.6414C3.56542 12.0866 10.6643 9.64231 24.8621 4.75375L27.567 3.82242C34.9681 1.27414 38.6684 0 42.5 0C46.3316 0 50.0319 1.27414 57.4331 3.82242L60.138 4.75375C74.3358 9.64231 81.4347 12.0866 83.2174 14.6414C85 17.1963 85 24.7906 85 39.9793V47.4591C85 74.2396 64.9825 87.2361 52.4233 92.7547C49.0167 94.2514 47.3134 95 42.5 95C37.6866 95 35.9833 94.2514 32.5765 92.7547C20.0173 87.2361 0 74.2396 0 47.4591V39.9793ZM42.5 24.9375C44.4559 24.9375 46.0417 26.5325 46.0417 28.5V47.5C46.0417 49.4674 44.4559 51.0625 42.5 51.0625C40.5441 51.0625 38.9583 49.4674 38.9583 47.5V28.5C38.9583 26.5325 40.5441 24.9375 42.5 24.9375ZM42.5 66.5C45.1081 66.5 47.2222 64.3734 47.2222 61.75C47.2222 59.1266 45.1081 57 42.5 57C39.8919 57 37.7778 59.1266 37.7778 61.75C37.7778 64.3734 39.8919 66.5 42.5 66.5Z" fill="#FBFBFE"/>
</svg>
