<svg width="573" height="101" viewBox="0 0 573 101" fill="none" xmlns="http://www.w3.org/2000/svg">
<mask id="path-1-outside-1_2040_2268" maskUnits="userSpaceOnUse" x="0" y="0" width="573" height="101" fill="black">
<rect fill="white" width="573" height="101"/>
<path d="M0 0H573V100H0V0Z"/>
</mask>
<path d="M573 99H0V101H573V99Z" fill="#FBFBFE" fill-opacity="0.15" mask="url(#path-1-outside-1_2040_2268)"/>
<path opacity="0.15" d="M96.2805 67.0666L102.926 56.7682C105.173 53.2871 109.1 51.1758 113.319 51.1758H144.265C149.471 51.1758 154.459 53.2146 158.102 56.8335L166.934 65.6033L187.996 70.3518C191.513 71.1463 194 74.1966 194 77.7093V85.7642C194 87.4993 192.554 88.9098 190.77 88.9098H179.572C179.586 89.1269 179.608 89.3424 179.608 89.5613C179.608 95.2294 174.888 99.8244 169.065 99.8244C163.247 99.8244 158.527 95.2294 158.527 89.5613C158.527 89.3424 158.548 89.1269 158.563 88.9098H125.424C125.439 89.1269 125.46 89.3424 125.46 89.5613C125.46 95.2294 120.74 99.8244 114.922 99.8244C109.099 99.8244 104.383 95.2294 104.383 89.5613C104.383 89.3424 104.401 89.1269 104.415 88.9098H97.2301C95.4465 88.9098 94 87.4993 94 85.7642V74.7684C94.0002 72.0429 94.7904 69.3757 96.2805 67.0666ZM169.065 93.6515C171.385 93.6515 173.263 91.8173 173.263 89.5613C173.263 87.3033 171.385 85.4728 169.065 85.4728C166.749 85.4728 164.867 87.3033 164.867 89.5613C164.867 91.8171 166.749 93.6515 169.065 93.6515ZM161.394 67.8451L154.129 60.6306C151.548 58.0673 147.952 56.5986 144.265 56.5986H142.412V67.8451H161.394ZM120.758 67.8451H137.543V56.5986H120.758V67.8451ZM114.922 93.6515C117.238 93.6515 119.12 91.8173 119.12 89.5613C119.12 87.3033 117.238 85.4728 114.922 85.4728C112.602 85.4728 110.724 87.3033 110.724 89.5613C110.724 91.8171 112.602 93.6515 114.922 93.6515ZM115.886 67.8451V56.5986H113.319C110.999 56.5986 108.875 57.7406 107.642 59.6542L102.357 67.8451H115.886Z" fill="#FBFBFE"/>
<path opacity="0.15" fill-rule="evenodd" clip-rule="evenodd" d="M33 26C40.1796 26 46 20.1796 46 13C46 5.82029 40.1796 0 33 0C25.8203 0 20 5.82029 20 13C20 20.1796 25.8203 26 33 26Z" fill="#FBFBFE"/>
<path opacity="0.4" d="M33 5V13.7919C33 13.8758 33.097 13.9224 33.1625 13.87L38 10" stroke="#FBFBFE" stroke-width="2" stroke-linecap="round"/>
</svg>
