<svg width="573" height="101" viewBox="0 0 573 101" fill="none" xmlns="http://www.w3.org/2000/svg">
<mask id="path-1-outside-1_2040_2234" maskUnits="userSpaceOnUse" x="0" y="0" width="573" height="101" fill="black">
<rect fill="white" width="573" height="101"/>
<path d="M0 0H573V100H0V0Z"/>
</mask>
<path d="M573 99H0V101H573V99Z" fill="#FBFBFE" fill-opacity="0.15" mask="url(#path-1-outside-1_2040_2234)"/>
<path opacity="0.15" d="M66 100H93V35C93 32.2386 90.7614 30 88 30H71C68.2386 30 66 32.2386 66 35V100Z" fill="#FBFBFE"/>
<path opacity="0.15" d="M20 100H47V15C47 12.2386 44.7614 10 42 10H25C22.2386 10 20 12.2386 20 15V100Z" fill="#FBFBFE"/>
<path opacity="0.15" d="M112 100H139V25C139 22.2386 136.761 20 134 20H117C114.239 20 112 22.2386 112 25V100Z" fill="#FBFBFE"/>
<path opacity="0.15" d="M158 100H185V65C185 62.2386 182.761 60 180 60H163C160.239 60 158 62.2386 158 65V100Z" fill="#FBFBFE"/>
<path opacity="0.15" d="M204 100H231V30C231 27.2386 228.761 25 226 25H209C206.239 25 204 27.2386 204 30V100Z" fill="#FBFBFE"/>
<path opacity="0.15" d="M250 100H277V48C277 45.2386 274.761 43 272 43H255C252.239 43 250 45.2386 250 48V100Z" fill="#FBFBFE"/>
<path opacity="0.15" d="M296 100H323V90C323 87.2386 320.761 85 318 85H301C298.239 85 296 87.2386 296 90V100Z" fill="#FBFBFE"/>
<path opacity="0.15" d="M342 100H369V25C369 22.2386 366.761 20 364 20H347C344.239 20 342 22.2386 342 25V100Z" fill="#FBFBFE"/>
<path opacity="0.15" d="M388 100H415V65C415 62.2386 412.761 60 410 60H393C390.239 60 388 62.2386 388 65V100Z" fill="#FBFBFE"/>
<path opacity="0.15" d="M434 100H461V48C461 45.2386 458.761 43 456 43H439C436.239 43 434 45.2386 434 48V100Z" fill="#FBFBFE"/>
<path opacity="0.15" d="M480 100H507V70C507 67.2386 504.761 65 502 65H485C482.239 65 480 67.2386 480 70V100Z" fill="#FBFBFE"/>
<path opacity="0.15" d="M526 100H553V30C553 27.2386 550.761 25 548 25H531C528.239 25 526 27.2386 526 30V100Z" fill="#FBFBFE"/>
</svg>
