<svg width="50" height="50" viewBox="0 0 50 50" fill="none" xmlns="http://www.w3.org/2000/svg">
<path fill-rule="evenodd" clip-rule="evenodd" d="M18.3744 15.4291C19.0053 14 21.1703 14 25.5001 14C29.8299 14 31.9948 14 32.6257 15.4291C32.68 15.5519 32.7258 15.6795 32.7625 15.8107C33.1911 17.3366 31.6603 19.1052 28.5987 22.6424L26.5477 25L28.5987 27.3576C31.6603 30.8948 33.1911 32.6634 32.7625 34.1893C32.7258 34.3204 32.68 34.448 32.6257 34.5709C31.9948 36 29.8299 36 25.5001 36C21.1703 36 19.0053 36 18.3744 34.5709C18.3202 34.448 18.2745 34.3204 18.2376 34.1893C17.8091 32.6634 19.3399 30.8948 22.4016 27.3576L24.4525 25L22.4016 22.6424C19.3399 19.1052 17.8091 17.3366 18.2376 15.8107C18.2745 15.6795 18.3202 15.5519 18.3744 15.4291ZM23.4049 31.325C22.9709 31.325 22.6191 31.6944 22.6191 32.15C22.6191 32.6056 22.9709 32.975 23.4049 32.975H27.5953C28.0293 32.975 28.3811 32.6056 28.3811 32.15C28.3811 31.6944 28.0293 31.325 27.5953 31.325H23.4049ZM22.6191 17.85C22.6191 17.3944 22.9709 17.025 23.4049 17.025H27.5953C28.0293 17.025 28.3811 17.3944 28.3811 17.85C28.3811 18.3056 28.0293 18.675 27.5953 18.675H23.4049C22.9709 18.675 22.6191 18.3056 22.6191 17.85Z" fill="#FBFBFE"/>
<path opacity="0.4" d="M1 13V4.42857C1 2.53502 2.53502 1 4.42857 1H13M37 1H45.5714C47.465 1 49 2.53502 49 4.42857V13M13 49H4.42857C2.53502 49 1 47.465 1 45.5714L1 37M49 37V45.5714C49 47.465 47.465 49 45.5714 49H37" stroke="#FBFBFE" stroke-linecap="round"/>
</svg>
