<svg width="50" height="50" viewBox="0 0 50 50" fill="none" xmlns="http://www.w3.org/2000/svg">
<path d="M29.6286 25.62C27.083 23.008 23.9715 24.9347 23.9715 27.6517C23.9715 30.1127 25.8373 31.5324 27.4259 32.7412L27.4705 32.7752C27.6203 32.889 27.7672 33.0012 27.9099 33.1122C28.4972 33.5694 29.0629 34 29.6286 34C30.1944 34 30.7601 33.5694 31.3474 33.1122C33.0119 31.8163 35.2858 30.3686 35.2858 27.6517C35.2858 26.7592 34.95 25.9518 34.4088 25.3628C33.3025 24.1587 31.338 23.8661 29.6286 25.62Z" fill="#FBFBFE"/>
<path d="M20.9951 30.3902C18.1068 28.3094 14.7144 25.8654 14.7144 21.6286C14.7144 16.9515 20.3717 13.6345 25.0001 18.1311C29.6284 13.6345 35.2858 16.9515 35.2858 21.6286C35.2858 22.4303 35.1643 23.1678 34.9478 23.8509C34.2083 23.2954 33.2811 22.9448 32.2536 22.9394C31.3381 22.9346 30.4449 23.2034 29.6274 23.7186C28.1988 22.8214 26.5871 22.7007 25.1747 23.3383C23.4927 24.0976 22.4286 25.7964 22.4286 27.6516C22.4286 29.8687 23.61 31.424 24.837 32.5513C23.8627 32.4788 22.8865 31.7745 21.875 31.0289C21.5901 30.8189 21.2953 30.6065 20.9951 30.3902Z" fill="#FBFBFE"/>
<path opacity="0.4" d="M1 13V4.42857C1 2.53502 2.53502 1 4.42857 1H13M37 1H45.5714C47.465 1 49 2.53502 49 4.42857V13M13 49H4.42857C2.53502 49 1 47.465 1 45.5714L1 37M49 37V45.5714C49 47.465 47.465 49 45.5714 49H37" stroke="#FBFBFE" stroke-linecap="round"/>
</svg>
