<svg width="50" height="50" viewBox="0 0 50 50" fill="none" xmlns="http://www.w3.org/2000/svg">
<path fill-rule="evenodd" clip-rule="evenodd" d="M15 24.7737V20.8642C15 18.0998 15 16.7176 15.8787 15.8588C16.7574 15 18.1716 15 21 15H29C31.8284 15 33.2426 15 34.1213 15.8588C35 16.7176 35 18.0998 35 20.8642V24.7737C35 27.5381 35 28.9203 34.1213 29.7792C33.4749 30.4109 32.5388 30.578 30.963 30.6221C30.9593 29.903 30.7037 29.1848 30.1961 28.6027C30.1674 28.5698 30.1501 28.5288 30.1465 28.4857C30.0211 26.9498 28.7733 25.7301 27.2018 25.6075C27.1577 25.6041 27.1158 25.5871 27.0821 25.5591C25.8822 24.5597 24.1174 24.5597 22.9176 25.5591C22.8839 25.5871 22.842 25.6041 22.7979 25.6075C21.2264 25.7301 19.9785 26.9498 19.8531 28.4857C19.8496 28.5288 19.8322 28.5698 19.8035 28.6027C19.296 29.1848 19.0403 29.903 19.0367 30.6221C17.4611 30.578 16.525 30.4109 15.8787 29.7792C15 28.9203 15 27.5381 15 24.7737ZM21.25 18.9095C21.25 18.5047 21.5858 18.1765 22 18.1765H28C28.4142 18.1765 28.75 18.5047 28.75 18.9095C28.75 19.3143 28.4142 19.6425 28 19.6425H22C21.5858 19.6425 21.25 19.3143 21.25 18.9095ZM20 21.5973C19.5858 21.5973 19.25 21.9255 19.25 22.3303C19.25 22.7351 19.5858 23.0633 20 23.0633H30C30.4142 23.0633 30.75 22.7351 30.75 22.3303C30.75 21.9255 30.4142 21.5973 30 21.5973H20Z" fill="#FBFBFE"/>
<path fill-rule="evenodd" clip-rule="evenodd" d="M26.1092 26.6749C25.4699 26.1425 24.5297 26.1425 23.8905 26.6749C23.6165 26.903 23.276 27.041 22.9172 27.0689C22.08 27.1343 21.4152 27.784 21.3483 28.6023C21.3197 28.953 21.1786 29.2858 20.9452 29.5536C20.4004 30.1783 20.4004 31.0972 20.9452 31.7221C21.1786 31.9898 21.3197 32.3227 21.3483 32.6733C21.4152 33.4916 22.08 34.1414 22.9172 34.2067C23.276 34.2346 23.6165 34.3725 23.8905 34.6006C24.5297 35.1331 25.4699 35.1331 26.1092 34.6006C26.3831 34.3725 26.7237 34.2346 27.0824 34.2067C27.9197 34.1414 28.5845 33.4916 28.6513 32.6733C28.6799 32.3227 28.821 31.9898 29.0544 31.7221C29.5992 31.0972 29.5992 30.1783 29.0544 29.5536C28.821 29.2858 28.6799 28.953 28.6513 28.6023C28.5845 27.784 27.9197 27.1343 27.0824 27.0689C26.7237 27.041 26.3831 26.903 26.1092 26.6749ZM27.0117 30.1965C27.3146 29.9203 27.3309 29.4564 27.0483 29.1605C26.7657 28.8645 26.2911 28.8485 25.9883 29.1247L24.3571 30.6127L24.0117 30.2976C23.7089 30.0214 23.2343 30.0374 22.9517 30.3333C22.6691 30.6293 22.6855 31.0931 22.9883 31.3694L23.8454 32.1512C24.1336 32.4141 24.5807 32.4141 24.8689 32.1512L27.0117 30.1965Z" fill="#FBFBFE"/>
<path opacity="0.4" d="M1 13V4.42857C1 2.53502 2.53502 1 4.42857 1H13M37 1H45.5714C47.465 1 49 2.53502 49 4.42857V13M13 49H4.42857C2.53502 49 1 47.465 1 45.5714L1 37M49 37V45.5714C49 47.465 47.465 49 45.5714 49H37" stroke="#FBFBFE" stroke-linecap="round"/>
</svg>
