<svg width="50" height="50" viewBox="0 0 50 50" fill="none" xmlns="http://www.w3.org/2000/svg">
<path fill-rule="evenodd" clip-rule="evenodd" d="M16.3775 18.0824C16 18.6203 16 20.2191 16 23.4167V24.9914C16 30.6294 20.239 33.3655 22.8986 34.5273C23.62 34.8424 23.9807 35 25 35C26.0193 35 26.38 34.8424 27.1014 34.5273C29.761 33.3655 34 30.6294 34 24.9914V23.4167C34 20.2191 34 18.6203 33.6225 18.0824C33.245 17.5445 31.7417 17.03 28.7351 16.0008L28.1623 15.8047C26.595 15.2682 25.8114 15 25 15C24.1886 15 23.405 15.2682 21.8377 15.8047L21.2649 16.0008C18.2583 17.03 16.755 17.5445 16.3775 18.0824ZM28.0595 23.4995C28.3353 23.1905 28.3085 22.7164 27.9995 22.4405C27.6905 22.1647 27.2164 22.1915 26.9405 22.5005L23.9286 25.8739L23.0595 24.9005C22.7836 24.5915 22.3095 24.5647 22.0005 24.8405C21.6915 25.1164 21.6647 25.5905 21.9405 25.8995L23.3691 27.4995C23.5114 27.6589 23.7149 27.75 23.9286 27.75C24.1422 27.75 24.3457 27.6589 24.488 27.4995L28.0595 23.4995Z" fill="#FBFBFE"/>
<path opacity="0.4" d="M1 13V4.42857C1 2.53502 2.53502 1 4.42857 1H13M37 1H45.5714C47.465 1 49 2.53502 49 4.42857V13M13 49H4.42857C2.53502 49 1 47.465 1 45.5714L1 37M49 37V45.5714C49 47.465 47.465 49 45.5714 49H37" stroke="#FBFBFE" stroke-linecap="round"/>
</svg>
