<svg width="20" height="20" viewBox="0 0 20 20" fill="none" xmlns="http://www.w3.org/2000/svg">
<path fill-rule="evenodd" clip-rule="evenodd" d="M8.748 0.984387C9.06668 -0.328127 10.9333 -0.32813 11.252 0.984384L11.7532 3.04874C11.9591 3.89661 12.9305 4.29897 13.6756 3.845L15.4897 2.7397C16.6431 2.03696 17.963 3.35686 17.2603 4.51029L16.155 6.32444C15.701 7.06953 16.1034 8.04091 16.9513 8.24678L19.0156 8.748C20.3281 9.06668 20.3281 10.9333 19.0156 11.252L16.9513 11.7532C16.1034 11.9591 15.701 12.9305 16.155 13.6756L17.2603 15.4897C17.963 16.6431 16.6431 17.963 15.4897 17.2603L13.6756 16.155C12.9305 15.701 11.9591 16.1034 11.7532 16.9513L11.252 19.0156C10.9333 20.3281 9.06668 20.3281 8.748 19.0156L8.24678 16.9513C8.04091 16.1034 7.06953 15.701 6.32444 16.155L4.51029 17.2603C3.35687 17.963 2.03696 16.6431 2.7397 15.4897L3.845 13.6756C4.29897 12.9305 3.89661 11.9591 3.04874 11.7532L0.984387 11.252C-0.328127 10.9333 -0.32813 9.06668 0.984384 8.748L3.04874 8.24678C3.89661 8.04091 4.29897 7.06953 3.845 6.32444L2.73971 4.5103C2.03696 3.35687 3.35687 2.03696 4.51029 2.7397L6.32444 3.845C7.06953 4.29897 8.04091 3.89661 8.24678 3.04874L8.748 0.984387ZM11.5002 11.498C11.2911 13.3789 10.6994 14.7349 10.0021 14.7349C9.3049 14.7349 8.71326 13.3794 8.50403 11.4989C6.61997 11.2904 5.26112 10.6982 5.26112 10.0001C5.26112 9.30215 6.61975 8.70996 8.50356 8.50136C8.71239 6.61875 9.30439 5.26122 10.0021 5.26122C10.6999 5.26122 11.2919 6.61919 11.5007 8.50229C13.3802 8.7117 14.7348 9.30318 14.7348 10.0001C14.7348 10.6971 13.3799 11.2886 11.5002 11.498Z" fill="#ACADDF"/>
</svg>
