<svg width="20" height="20" viewBox="0 0 20 20" fill="none" xmlns="http://www.w3.org/2000/svg">
<path fill-rule="evenodd" clip-rule="evenodd" d="M20 10.0014C20 8.52894 17.1357 7.27946 13.163 6.83828C12.722 2.86492 11.4724 0 9.99973 0C8.52708 0 7.27748 2.86495 6.83643 6.83834C2.86403 7.27957 0 8.52901 0 10.0014C0 11.4739 2.86418 12.7233 6.83675 13.1645C7.27808 17.1364 8.52744 20 9.99973 20C11.472 20 12.7214 17.1365 13.1627 13.1646C17.1356 12.7235 20 11.4739 20 10.0014ZM7.67819 7.67819C5.37608 8.04686 3.75 8.94747 3.75 10C3.75 11.0525 5.37608 11.9531 7.67819 12.3218C8.04686 14.6239 8.94747 16.25 10 16.25C11.0525 16.25 11.9531 14.6239 12.3218 12.3218C14.6239 11.9531 16.25 11.0525 16.25 10C16.25 8.94747 14.6239 8.04686 12.3218 7.67819C11.9531 5.37608 11.0525 3.75 10 3.75C8.94747 3.75 8.04686 5.37608 7.67819 7.67819Z" fill="#ACADDF"/>
</svg>
