<svg width="20" height="20" viewBox="0 0 20 20" fill="none" xmlns="http://www.w3.org/2000/svg">
<path fill-rule="evenodd" clip-rule="evenodd" d="M13.163 6.83828C17.1357 7.27946 20 8.52894 20 10.0014C20 11.4739 17.1356 12.7235 13.1627 13.1646C12.7214 17.1365 11.472 20 9.99973 20C8.52744 20 7.27808 17.1364 6.83675 13.1645C2.86418 12.7233 0 11.4739 0 10.0014C0 8.52901 2.86403 7.27957 6.83643 6.83834C7.27748 2.86495 8.52708 0 9.99973 0C11.4724 0 12.722 2.86492 13.163 6.83828ZM10 12.5C11.3807 12.5 12.5 11.3807 12.5 10C12.5 8.61929 11.3807 7.5 10 7.5C8.61929 7.5 7.5 8.61929 7.5 10C7.5 11.3807 8.61929 12.5 10 12.5Z" fill="#ACADDF"/>
</svg>
