<svg width="20" height="20" viewBox="0 0 20 20" fill="none" xmlns="http://www.w3.org/2000/svg">
<path fill-rule="evenodd" clip-rule="evenodd" d="M11.1026 0.819431C10.7392 -0.273144 9.26079 -0.273144 8.89741 0.819432L7.24775 5.77949C7.08745 6.26147 6.65707 6.58827 6.16894 6.59867L1.1456 6.70566C0.0390802 6.72922 -0.41778 8.19876 0.464156 8.89757L4.46796 12.07C4.85702 12.3783 5.02141 12.9071 4.88003 13.3955L3.42508 18.4217C3.1046 19.5288 4.30067 20.437 5.20912 19.7764L9.33326 16.777C9.73401 16.4855 10.266 16.4855 10.6667 16.777L14.7909 19.7764C15.6993 20.437 16.8954 19.5288 16.5749 18.4217L15.12 13.3955C14.9786 12.9071 15.143 12.3783 15.532 12.07L19.5358 8.89757C20.4178 8.19876 19.9609 6.72922 18.8544 6.70566L13.8311 6.59867C13.3429 6.58827 12.9126 6.26147 12.7523 5.77949L11.1026 0.819431ZM8.74996 8.75C8.74996 8.05964 9.30961 7.5 9.99997 7.5C10.6903 7.5 11.25 8.05964 11.25 8.75V9.08467L11.54 8.91724C12.1378 8.57206 12.9023 8.7769 13.2475 9.37477C13.5927 9.97263 13.3878 10.7371 12.79 11.0823L12.5 11.2497L12.7901 11.4172C13.388 11.7624 13.5928 12.5269 13.2476 13.1248C12.9025 13.7226 12.138 13.9275 11.5401 13.5823L11.25 13.4148V13.75C11.25 14.4404 10.6903 15 9.99997 15C9.30961 15 8.74996 14.4404 8.74996 13.75V13.4148L8.45983 13.5823C7.86197 13.9275 7.09748 13.7226 6.7523 13.1248C6.40712 12.5269 6.61197 11.7624 7.20983 11.4172L7.49998 11.2497L7.20999 11.0823C6.61212 10.7371 6.40728 9.97263 6.75246 9.37477C7.09763 8.7769 7.86212 8.57206 8.45999 8.91724L8.74996 9.08465V8.75Z" fill="#ACADDF"/>
</svg>
