<svg width="20" height="20" viewBox="0 0 20 20" fill="none" xmlns="http://www.w3.org/2000/svg">
<path d="M0 2.85714C0 1.27919 1.27919 0 2.85714 0C4.4351 0 5.71429 1.27919 5.71429 2.85714C5.71429 4.4351 4.4351 5.71429 2.85714 5.71429C1.27919 5.71429 0 4.4351 0 2.85714Z" fill="#E3E4F5"/>
<path d="M7.14286 1.42857C7.14286 0.639593 7.78245 0 8.57143 0H11.4286C12.2176 0 12.8571 0.639593 12.8571 1.42857V4.28571C12.8571 5.07469 12.2176 5.71429 11.4286 5.71429H8.57143C7.78245 5.71429 7.14286 5.07469 7.14286 4.28571V1.42857Z" fill="#ACADDF"/>
<path d="M14.2857 2.85714C14.2857 1.27919 15.5649 0 17.1429 0C18.7208 0 20 1.27919 20 2.85714C20 4.4351 18.7208 5.71429 17.1429 5.71429C15.5649 5.71429 14.2857 4.4351 14.2857 2.85714Z" fill="#E3E4F5"/>
<path d="M7.14286 10C7.14286 8.42204 8.42204 7.14286 10 7.14286C11.578 7.14286 12.8571 8.42204 12.8571 10C12.8571 11.578 11.578 12.8571 10 12.8571C8.42204 12.8571 7.14286 11.578 7.14286 10Z" fill="#E3E4F5"/>
<path d="M7.14286 17.1429C7.14286 15.5649 8.42204 14.2857 10 14.2857C11.578 14.2857 12.8571 15.5649 12.8571 17.1429C12.8571 18.7208 11.578 20 10 20C8.42204 20 7.14286 18.7208 7.14286 17.1429Z" fill="#E3E4F5"/>
<path d="M0 15.7143C0 14.9253 0.639593 14.2857 1.42857 14.2857H4.28571C5.07469 14.2857 5.71429 14.9253 5.71429 15.7143V18.5714C5.71429 19.3604 5.07469 20 4.28571 20H1.42857C0.639593 20 0 19.3604 0 18.5714V15.7143Z" fill="#ACADDF"/>
<path d="M0 8.57143C0 7.78245 0.639593 7.14286 1.42857 7.14286H4.28571C5.07469 7.14286 5.71429 7.78245 5.71429 8.57143V11.4286C5.71429 12.2176 5.07469 12.8571 4.28571 12.8571H1.42857C0.639593 12.8571 0 12.2176 0 11.4286V8.57143Z" fill="#ACADDF"/>
<path d="M14.2857 15.7143C14.2857 14.9253 14.9253 14.2857 15.7143 14.2857H18.5714C19.3604 14.2857 20 14.9253 20 15.7143V18.5714C20 19.3604 19.3604 20 18.5714 20H15.7143C14.9253 20 14.2857 19.3604 14.2857 18.5714V15.7143Z" fill="#ACADDF"/>
<path d="M14.2857 8.57143C14.2857 7.78245 14.9253 7.14286 15.7143 7.14286H18.5714C19.3604 7.14286 20 7.78245 20 8.57143V11.4286C20 12.2176 19.3604 12.8571 18.5714 12.8571H15.7143C14.9253 12.8571 14.2857 12.2176 14.2857 11.4286V8.57143Z" fill="#ACADDF"/>
</svg>
