<svg width="20" height="20" viewBox="0 0 20 20" fill="none" xmlns="http://www.w3.org/2000/svg">
<path fill-rule="evenodd" clip-rule="evenodd" d="M20 10.0014C20 8.52894 17.1357 7.27946 13.163 6.83828C12.722 2.86492 11.4724 0 9.99973 0C8.52708 0 7.27748 2.86495 6.83643 6.83834C2.86403 7.27957 0 8.52901 0 10.0014C0 11.4739 2.86418 12.7233 6.83675 13.1645C7.27808 17.1364 8.52744 20 9.99973 20C11.472 20 12.7214 17.1365 13.1627 13.1646C17.1356 12.7235 20 11.4739 20 10.0014ZM10.0001 8.00985C8.85551 7.18125 7.77266 6.87034 7.32158 7.32141C6.87051 7.77248 7.18141 8.85531 8.00998 9.99989C7.18128 11.1446 6.87031 12.2275 7.32141 12.6786C7.77251 13.1297 8.85545 12.8187 10.0001 11.99C11.1447 12.8186 12.2276 13.1296 12.6787 12.6785C13.1297 12.2274 12.8188 11.1445 11.9902 9.99989C12.8187 8.85535 13.1295 7.77258 12.6785 7.32153C12.2274 6.87047 11.1447 7.18134 10.0001 8.00985Z" fill="#ACADDF"/>
</svg>
