<svg width="425" height="401" viewBox="0 0 425 401" fill="none" xmlns="http://www.w3.org/2000/svg">
<g opacity="0.08">
<path d="M78.6926 332.6C78.6926 319.825 68.3366 309.469 55.5619 309.469H3.33111C-9.44366 309.469 -19.7997 319.825 -19.7997 332.6C-19.7997 345.375 -30.1557 355.731 -42.9304 355.731H-75.015C-87.3777 355.731 -97.3997 365.753 -97.3997 378.115C-97.3997 390.478 -87.3777 400.5 -75.015 400.5H-39.9458C-27.171 400.5 -16.815 390.144 -16.815 377.369C-16.815 364.594 -6.45905 354.238 6.31572 354.238H48.1003C60.8751 354.238 71.2311 364.594 71.2311 377.369C71.2311 390.144 81.5871 400.5 94.3619 400.5H133.908C146.271 400.5 156.293 390.478 156.293 378.115C156.293 365.753 146.271 355.731 133.908 355.731H101.823C89.0486 355.731 78.6926 345.375 78.6926 332.6Z" fill="#FBFBFE"/>
<path d="M262.246 371.4C262.246 384.175 251.89 394.531 239.116 394.531H186.885C174.11 394.531 163.754 384.175 163.754 371.4C163.754 358.625 153.398 348.269 140.623 348.269H108.539C96.1761 348.269 86.1542 338.247 86.1542 325.885C86.1542 313.522 96.1761 303.5 108.539 303.5H143.608C156.383 303.5 166.739 313.856 166.739 326.631C166.739 339.406 177.095 349.762 189.87 349.762H231.654C244.429 349.762 254.785 339.406 254.785 326.631C254.785 313.856 265.141 303.5 277.916 303.5H317.462C329.825 303.5 339.846 313.522 339.846 325.885C339.846 338.247 329.825 348.269 317.462 348.269H285.377C272.602 348.269 262.246 358.625 262.246 371.4Z" fill="#FBFBFE"/>
<path d="M445.8 332.6C445.8 319.825 435.444 309.469 422.67 309.469H370.439C357.664 309.469 347.308 319.825 347.308 332.6C347.308 345.375 336.952 355.731 324.177 355.731H292.093C279.73 355.731 269.708 365.753 269.708 378.115C269.708 390.478 279.73 400.5 292.093 400.5H327.162C339.937 400.5 350.293 390.144 350.293 377.369C350.293 364.594 360.649 354.238 373.423 354.238H415.208C427.983 354.238 438.339 364.594 438.339 377.369C438.339 390.144 448.695 400.5 461.47 400.5H501.016C513.378 400.5 523.4 390.478 523.4 378.115C523.4 365.753 513.378 355.731 501.016 355.731H468.931C456.156 355.731 445.8 345.375 445.8 332.6Z" fill="#FBFBFE"/>
<path d="M24.6926 230.6C24.6926 217.825 14.3367 207.469 1.56187 207.469H-50.6689C-63.4437 207.469 -73.7997 217.825 -73.7997 230.6C-73.7997 243.375 -84.1557 253.731 -96.9304 253.731H-129.015C-141.378 253.731 -151.4 263.753 -151.4 276.115C-151.4 288.478 -141.378 298.5 -129.015 298.5H-93.9458C-81.171 298.5 -70.815 288.144 -70.815 275.369C-70.815 262.594 -60.459 252.238 -47.6843 252.238H-5.89966C6.87511 252.238 17.2311 262.594 17.2311 275.369C17.2311 288.144 27.5871 298.5 40.3619 298.5H79.908C92.2707 298.5 102.293 288.478 102.293 276.115C102.293 263.753 92.2707 253.731 79.908 253.731H47.8234C35.0486 253.731 24.6926 243.375 24.6926 230.6Z" fill="#FBFBFE"/>
<path d="M208.246 269.4C208.246 282.175 197.891 292.531 185.116 292.531H132.885C120.11 292.531 109.754 282.175 109.754 269.4C109.754 256.625 99.3982 246.269 86.6234 246.269H54.5388C42.1761 246.269 32.1542 236.247 32.1542 223.885C32.1542 211.522 42.1761 201.5 54.5388 201.5H89.608C102.383 201.5 112.739 211.856 112.739 224.631C112.739 237.406 123.095 247.762 135.87 247.762H177.654C190.429 247.762 200.785 237.406 200.785 224.631C200.785 211.856 211.141 201.5 223.916 201.5H263.462C275.825 201.5 285.846 211.522 285.846 223.885C285.846 236.247 275.825 246.269 263.462 246.269H231.377C218.602 246.269 208.246 256.625 208.246 269.4Z" fill="#FBFBFE"/>
<path d="M391.8 230.6C391.8 217.825 381.444 207.469 368.67 207.469H316.439C303.664 207.469 293.308 217.825 293.308 230.6C293.308 243.375 282.952 253.731 270.177 253.731H238.093C225.73 253.731 215.708 263.753 215.708 276.115C215.708 288.478 225.73 298.5 238.093 298.5H273.162C285.937 298.5 296.293 288.144 296.293 275.369C296.293 262.594 306.649 252.238 319.423 252.238H361.208C373.983 252.238 384.339 262.594 384.339 275.369C384.339 288.144 394.695 298.5 407.47 298.5H447.016C459.378 298.5 469.4 288.478 469.4 276.115C469.4 263.753 459.378 253.731 447.016 253.731H414.931C402.156 253.731 391.8 243.375 391.8 230.6Z" fill="#FBFBFE"/>
<path d="M38.1926 127.6C38.1926 114.825 27.8367 104.469 15.0619 104.469H-37.1689C-49.9437 104.469 -60.2997 114.825 -60.2997 127.6C-60.2997 140.375 -70.6557 150.731 -83.4304 150.731H-115.515C-127.878 150.731 -137.9 160.753 -137.9 173.115C-137.9 185.478 -127.878 195.5 -115.515 195.5H-80.4458C-67.671 195.5 -57.315 185.144 -57.315 172.369C-57.315 159.594 -46.959 149.238 -34.1843 149.238H7.60034C20.3751 149.238 30.7311 159.594 30.7311 172.369C30.7311 185.144 41.0871 195.5 53.8619 195.5H93.408C105.771 195.5 115.793 185.478 115.793 173.115C115.793 160.753 105.771 150.731 93.408 150.731H61.3234C48.5486 150.731 38.1926 140.375 38.1926 127.6Z" fill="#FBFBFE"/>
<path d="M221.746 166.4C221.746 179.175 211.391 189.531 198.616 189.531H146.385C133.61 189.531 123.254 179.175 123.254 166.4C123.254 153.625 112.898 143.269 100.123 143.269H68.0388C55.6761 143.269 45.6542 133.247 45.6542 120.885C45.6542 108.522 55.6761 98.5 68.0388 98.5H103.108C115.883 98.5 126.239 108.856 126.239 121.631C126.239 134.406 136.595 144.762 149.37 144.762H191.154C203.929 144.762 214.285 134.406 214.285 121.631C214.285 108.856 224.641 98.5 237.416 98.5H276.962C289.325 98.5 299.346 108.522 299.346 120.885C299.346 133.247 289.325 143.269 276.962 143.269H244.877C232.102 143.269 221.746 153.625 221.746 166.4Z" fill="#FBFBFE"/>
<path d="M405.3 127.6C405.3 114.825 394.944 104.469 382.17 104.469H329.939C317.164 104.469 306.808 114.825 306.808 127.6C306.808 140.375 296.452 150.731 283.677 150.731H251.593C239.23 150.731 229.208 160.753 229.208 173.115C229.208 185.478 239.23 195.5 251.593 195.5H286.662C299.437 195.5 309.793 185.144 309.793 172.369C309.793 159.594 320.149 149.238 332.923 149.238H374.708C387.483 149.238 397.839 159.594 397.839 172.369C397.839 185.144 408.195 195.5 420.97 195.5H460.516C472.878 195.5 482.9 185.478 482.9 173.115C482.9 160.753 472.878 150.731 460.516 150.731H428.431C415.656 150.731 405.3 140.375 405.3 127.6Z" fill="#FBFBFE"/>
<path d="M132.693 25.6C132.693 12.8252 122.337 2.46923 109.562 2.46923H57.3311C44.5563 2.46923 34.2003 12.8252 34.2003 25.6C34.2003 38.3748 23.8443 48.7308 11.0696 48.7308H-21.015C-33.3777 48.7308 -43.3997 58.7527 -43.3997 71.1154C-43.3997 83.4781 -33.3777 93.5 -21.015 93.5H14.0542C26.829 93.5 37.185 83.144 37.185 70.3692C37.185 57.5945 47.541 47.2385 60.3157 47.2385H102.1C114.875 47.2385 125.231 57.5945 125.231 70.3692C125.231 83.144 135.587 93.5 148.362 93.5H187.908C200.271 93.5 210.293 83.4781 210.293 71.1154C210.293 58.7527 200.271 48.7308 187.908 48.7308H155.823C143.049 48.7308 132.693 38.3748 132.693 25.6Z" fill="#FBFBFE"/>
<path d="M316.246 64.4C316.246 77.1748 305.891 87.5308 293.116 87.5308H240.885C228.11 87.5308 217.754 77.1748 217.754 64.4C217.754 51.6252 207.398 41.2692 194.623 41.2692H162.539C150.176 41.2692 140.154 31.2473 140.154 18.8846C140.154 6.52193 150.176 -3.5 162.539 -3.5H197.608C210.383 -3.5 220.739 6.856 220.739 19.6308C220.739 32.4055 231.095 42.7615 243.87 42.7615H285.654C298.429 42.7615 308.785 32.4055 308.785 19.6308C308.785 6.856 319.141 -3.5 331.916 -3.5H371.462C383.825 -3.5 393.846 6.52193 393.846 18.8846C393.846 31.2473 383.825 41.2692 371.462 41.2692H339.377C326.602 41.2692 316.246 51.6252 316.246 64.4Z" fill="#FBFBFE"/>
<path d="M499.8 25.6C499.8 12.8252 489.444 2.46923 476.67 2.46923H424.439C411.664 2.46923 401.308 12.8252 401.308 25.6C401.308 38.3748 390.952 48.7308 378.177 48.7308H346.093C333.73 48.7308 323.708 58.7527 323.708 71.1154C323.708 83.4781 333.73 93.5 346.093 93.5H381.162C393.937 93.5 404.293 83.144 404.293 70.3692C404.293 57.5945 414.649 47.2385 427.423 47.2385H469.208C481.983 47.2385 492.339 57.5945 492.339 70.3692C492.339 83.144 502.695 93.5 515.47 93.5H555.016C567.378 93.5 577.4 83.4781 577.4 71.1154C577.4 58.7527 567.378 48.7308 555.016 48.7308H522.931C510.156 48.7308 499.8 38.3748 499.8 25.6Z" fill="#FBFBFE"/>
</g>
</svg>
