<svg width="77" height="95" viewBox="0 0 77 95" fill="none" xmlns="http://www.w3.org/2000/svg">
<path opacity="0.1" d="M30.4364 89C33.0287 91.1382 35.7323 93.0926 38.5 95C41.2737 93.1179 43.9641 91.116 46.5636 89C50.897 85.4428 54.9752 81.5858 58.7681 77.4575C67.5119 67.8993 77 54.0432 77 38.4892C77 33.4348 76.0042 28.4298 74.0694 23.76C72.1346 19.0903 69.2987 14.8473 65.7236 11.2732C62.1486 7.69918 57.9043 4.86408 53.2333 2.92982C48.5623 0.995554 43.5559 0 38.5 0C33.4441 0 28.4377 0.995554 23.7667 2.92982C19.0957 4.86408 14.8514 7.69918 11.2764 11.2732C7.70133 14.8473 4.86544 19.0903 2.93064 23.76C0.995831 28.4298 -7.53387e-08 33.4348 0 38.4892C0 54.0432 9.48811 67.895 18.2319 77.4575C22.0247 81.5873 26.1028 85.4414 30.4364 89ZM38.5 52.3881C34.8128 52.3881 31.2765 50.9238 28.6693 48.3172C26.062 45.7107 24.5972 42.1755 24.5972 38.4892C24.5972 34.803 26.062 31.2678 28.6693 28.6612C31.2765 26.0547 34.8128 24.5903 38.5 24.5903C42.1872 24.5903 45.7235 26.0547 48.3307 28.6612C50.938 31.2678 52.4028 34.803 52.4028 38.4892C52.4028 42.1755 50.938 45.7107 48.3307 48.3172C45.7235 50.9238 42.1872 52.3881 38.5 52.3881Z" fill="#FBFBFE"/>
</svg>
