<svg width="25" height="24" viewBox="0 0 25 24" fill="none" xmlns="http://www.w3.org/2000/svg">
<path d="M9.6999 12.5C9.6999 14.0089 10.9088 15.2321 12.3999 15.2321C13.891 15.2321 15.0999 14.0089 15.0999 12.5C15.0999 10.9911 13.891 9.76786 12.3999 9.76786C10.9088 9.76786 9.6999 10.9911 9.6999 12.5Z" fill="#FBFBFE"/>
<path fill-rule="evenodd" clip-rule="evenodd" d="M2.53317 20.1814C3.74383 21 5.4292 21 8.7999 21H15.9999C19.3706 21 21.056 21 22.2667 20.1814C22.7907 19.827 23.2407 19.3716 23.591 18.8414C24.3999 17.6163 24.3999 15.9108 24.3999 12.5C24.3999 9.08916 24.3999 7.38374 23.591 6.15866C23.2407 5.62831 22.7907 5.17294 22.2667 4.81857C21.056 4 19.3706 4 15.9999 4H8.7999C5.4292 4 3.74383 4 2.53317 4.81857C2.00905 5.17295 1.55905 5.62831 1.20885 6.15866C0.399902 7.38374 0.399902 9.08917 0.399902 12.5C0.399902 15.9108 0.399902 17.6163 1.20885 18.8414C1.55905 19.3716 2.00905 19.827 2.53317 20.1814ZM12.3999 17.0536C9.91462 17.0536 7.8999 15.0149 7.8999 12.5C7.8999 9.98513 9.91462 7.94643 12.3999 7.94643C14.8852 7.94643 16.8999 9.98513 16.8999 12.5C16.8999 15.0149 14.8852 17.0536 12.3999 17.0536ZM4.5999 17.0536C4.10285 17.0536 3.6999 16.6458 3.6999 16.1429V8.85714C3.6999 8.35417 4.10285 7.94643 4.5999 7.94643C5.09695 7.94643 5.4999 8.35417 5.4999 8.85714V16.1429C5.4999 16.6458 5.09695 17.0536 4.5999 17.0536ZM19.2999 16.1429C19.2999 16.6458 19.7029 17.0536 20.1999 17.0536C20.6969 17.0536 21.0999 16.6458 21.0999 16.1429V8.85714C21.0999 8.35417 20.6969 7.94643 20.1999 7.94643C19.7029 7.94643 19.2999 8.35417 19.2999 8.85714V16.1429Z" fill="#FBFBFE"/>
</svg>
