<svg width="24" height="24" viewBox="0 0 24 24" fill="none" xmlns="http://www.w3.org/2000/svg">
<path d="M7.325 1.81481C7.325 1.36481 6.95563 1 6.5 1C6.04437 1 5.675 1.36481 5.675 1.81481V3.53055C4.09174 3.65576 3.05235 3.96307 2.28873 4.71726C1.52511 5.47145 1.21396 6.49801 1.08719 8.06173H22.9128C22.7861 6.49801 22.4749 5.47145 21.7112 4.71726C20.9476 3.96307 19.9082 3.65576 18.325 3.53055V1.81481C18.325 1.36481 17.9556 1 17.5 1C17.0444 1 16.675 1.36481 16.675 1.81481V3.45846C15.9432 3.44444 15.1229 3.44444 14.2 3.44444H9.8C8.87707 3.44444 8.0568 3.44444 7.325 3.45846V1.81481Z" fill="#FBFBFE"/>
<path fill-rule="evenodd" clip-rule="evenodd" d="M1 12.1358C1 11.2243 1 10.4142 1.01419 9.69136H22.9858C23 10.4142 23 11.2243 23 12.1358V14.3086C23 18.4057 23 20.4544 21.7112 21.7271C20.4226 23 18.3483 23 14.2 23H9.8C5.65164 23 3.57747 23 2.28873 21.7271C1 20.4544 1 18.4057 1 14.3086V12.1358ZM17.5 14.3086C18.1075 14.3086 18.6 13.8223 18.6 13.2222C18.6 12.6222 18.1075 12.1358 17.5 12.1358C16.8925 12.1358 16.4 12.6222 16.4 13.2222C16.4 13.8223 16.8925 14.3086 17.5 14.3086ZM17.5 18.6543C18.1075 18.6543 18.6 18.1679 18.6 17.5679C18.6 16.9679 18.1075 16.4815 17.5 16.4815C16.8925 16.4815 16.4 16.9679 16.4 17.5679C16.4 18.1679 16.8925 18.6543 17.5 18.6543ZM13.1 13.2222C13.1 13.8223 12.6075 14.3086 12 14.3086C11.3925 14.3086 10.9 13.8223 10.9 13.2222C10.9 12.6222 11.3925 12.1358 12 12.1358C12.6075 12.1358 13.1 12.6222 13.1 13.2222ZM13.1 17.5679C13.1 18.1679 12.6075 18.6543 12 18.6543C11.3925 18.6543 10.9 18.1679 10.9 17.5679C10.9 16.9679 11.3925 16.4815 12 16.4815C12.6075 16.4815 13.1 16.9679 13.1 17.5679ZM6.5 14.3086C7.10751 14.3086 7.6 13.8223 7.6 13.2222C7.6 12.6222 7.10751 12.1358 6.5 12.1358C5.89249 12.1358 5.4 12.6222 5.4 13.2222C5.4 13.8223 5.89249 14.3086 6.5 14.3086ZM6.5 18.6543C7.10751 18.6543 7.6 18.1679 7.6 17.5679C7.6 16.9679 7.10751 16.4815 6.5 16.4815C5.89249 16.4815 5.4 16.9679 5.4 17.5679C5.4 18.1679 5.89249 18.6543 6.5 18.6543Z" fill="#FBFBFE"/>
</svg>
