<svg width="25" height="24" viewBox="0 0 25 24" fill="none" xmlns="http://www.w3.org/2000/svg">
<path d="M10.4819 3H14.7229C18.7213 3 20.7206 3 21.9627 4.259C22.8571 5.16549 23.1075 6.46978 23.1776 8.64179H2.02727C2.09738 6.46978 2.34779 5.16549 3.24215 4.259C4.48431 3 6.48351 3 10.4819 3Z" fill="#FBFBFE"/>
<path fill-rule="evenodd" clip-rule="evenodd" d="M23.2043 12.4755L22.7712 12.0365C21.8396 11.0923 20.3292 11.0923 19.3975 12.0365L18.5478 12.8977C18.2088 11.981 17.3362 11.3284 16.3133 11.3284C14.9958 11.3284 13.9277 12.4109 13.9277 13.7463V15.6417C13.4083 15.7003 12.9043 15.9314 12.5059 16.335C11.5743 17.2793 11.5743 18.8102 12.5059 19.7545L12.9396 20.194H10.4819C6.48351 20.194 4.48431 20.194 3.24215 18.935C2 17.6761 2 15.6496 2 11.597C2 11.1221 2 10.675 2.002 10.2537H23.2028C23.2048 10.675 23.2048 11.1221 23.2048 11.597C23.2048 11.9011 23.2048 12.1938 23.2043 12.4755ZM6.24097 15.0896C5.80181 15.0896 5.44579 15.4504 5.44579 15.8955C5.44579 16.3406 5.80181 16.7015 6.24097 16.7015H10.4819C10.9211 16.7015 11.2771 16.3406 11.2771 15.8955C11.2771 15.4504 10.9211 15.0896 10.4819 15.0896H6.24097Z" fill="#FBFBFE"/>
<path fill-rule="evenodd" clip-rule="evenodd" d="M16.3133 12.9403C16.7524 12.9403 17.1085 13.3012 17.1085 13.7463V18.2482L17.8715 17.4749C18.1821 17.1601 18.6855 17.1601 18.996 17.4749C19.3065 17.7897 19.3065 18.2999 18.996 18.6147L16.8755 20.7639C16.565 21.0787 16.0616 21.0787 15.751 20.7639L13.6305 18.6147C13.32 18.2999 13.32 17.7897 13.6305 17.4749C13.9411 17.1601 14.4445 17.1601 14.755 17.4749L15.5181 18.2482V13.7463C15.5181 13.3012 15.8741 12.9403 16.3133 12.9403ZM20.5221 13.1764C20.8327 12.8616 21.3361 12.8616 21.6466 13.1764L23.7671 15.3256C24.0776 15.6404 24.0776 16.1506 23.7671 16.4654C23.4565 16.7802 22.9531 16.7802 22.6426 16.4654L21.8795 15.6921V20.194C21.8795 20.6391 21.5235 21 21.0844 21C20.6452 21 20.2892 20.6391 20.2892 20.194V15.6921L19.5261 16.4654C19.2156 16.7802 18.7122 16.7802 18.4016 16.4654C18.0911 16.1506 18.0911 15.6404 18.4016 15.3256L20.5221 13.1764Z" fill="#FBFBFE"/>
</svg>
