<svg width="25" height="24" viewBox="0 0 25 24" fill="none" xmlns="http://www.w3.org/2000/svg">
<path d="M14.3997 3H9.99971C5.85134 3 3.77717 3 2.48843 4.31802C1.56054 5.267 1.30074 6.63242 1.228 8.90625H23.1714C23.0987 6.63242 22.8389 5.267 21.9109 4.31802C20.6223 3 18.548 3 14.3997 3Z" fill="#FBFBFE"/>
<path fill-rule="evenodd" clip-rule="evenodd" d="M9.99971 21H14.3997C18.548 21 20.6223 21 21.9109 19.6819C23.1997 18.364 23.1997 16.2426 23.1997 12C23.1997 11.5029 23.1997 11.0347 23.1976 10.5938H1.20179C1.19971 11.0347 1.19971 11.5029 1.19971 12C1.19971 16.2426 1.19971 18.364 2.48843 19.6819C3.77717 21 5.85134 21 9.99971 21ZM4.77471 16.5C4.77471 16.034 5.14408 15.6563 5.59971 15.6563H9.99971C10.4553 15.6563 10.8247 16.034 10.8247 16.5C10.8247 16.966 10.4553 17.3438 9.99971 17.3438H5.59971C5.14408 17.3438 4.77471 16.966 4.77471 16.5ZM12.7497 15.6563C12.2941 15.6563 11.9247 16.034 11.9247 16.5C11.9247 16.966 12.2941 17.3438 12.7497 17.3438H14.3997C14.8553 17.3438 15.2247 16.966 15.2247 16.5C15.2247 16.034 14.8553 15.6563 14.3997 15.6563H12.7497Z" fill="#FBFBFE"/>
</svg>
