<svg width="25" height="24" viewBox="0 0 25 24" fill="none" xmlns="http://www.w3.org/2000/svg">
<path d="M3.19995 5.78867L5.88879 10.5508V13.4555L3.2031 18.2082L3.19995 5.78867Z" fill="#FBFBFE"/>
<path d="M13.524 8.81788L16.0436 7.28778L21.2 7.28302L13.524 11.9423V8.81788Z" fill="#FBFBFE"/>
<path d="M13.5098 5.76062L13.524 12.0654L10.8289 10.4246V1L13.5098 5.76062Z" fill="#FBFBFE"/>
<path d="M21.2 7.28302L16.0436 7.28778L13.5098 5.76062L10.8289 1L21.2 7.28302Z" fill="#FBFBFE"/>
<path d="M13.524 18.2346V15.1757L10.8289 13.566L10.8304 23L13.524 18.2346Z" fill="#FBFBFE"/>
<path d="M16.0373 16.7185L5.88879 10.5508L3.19995 5.78867L21.189 16.7122L16.0373 16.7185Z" fill="#FBFBFE"/>
<path d="M10.8304 23L13.524 18.2346L16.0373 16.7185L21.189 16.7122L10.8304 23Z" fill="#FBFBFE"/>
<path d="M3.2031 18.2082L10.8509 13.5662L8.27974 12.0031L5.88879 13.4555L3.2031 18.2082Z" fill="#FBFBFE"/>
</svg>
