<svg width="517" height="331" viewBox="0 0 517 331" fill="none" xmlns="http://www.w3.org/2000/svg">
<g opacity="0.1">
<path d="M84.3269 28.361C84.3269 15.9106 74.2512 5.81764 61.8221 5.81764H11.0048C-1.42426 5.81764 -11.5 15.9106 -11.5 28.361C-11.5 40.8113 -21.5758 50.9043 -34.0048 50.9043H-65.2212C-77.2493 50.9043 -87 60.6717 -87 72.7204C-87 84.7692 -77.2493 94.5366 -65.2212 94.5366H-31.101C-18.6719 94.5366 -8.59616 84.4436 -8.59616 71.9932C-8.59616 59.5429 1.47958 49.4499 13.9086 49.4499H54.5625C66.9916 49.4499 77.0673 59.5429 77.0673 71.9932C77.0673 84.4436 87.1431 94.5366 99.5721 94.5366H138.048C150.076 94.5366 159.827 84.7692 159.827 72.7204C159.827 60.6717 150.076 50.9043 138.048 50.9043H106.832C94.4027 50.9043 84.3269 40.8113 84.3269 28.361Z" fill="#FBFBFE"/>
<path d="M262.913 66.1756C262.913 78.626 252.838 88.7189 240.409 88.7189H189.591C177.162 88.7189 167.087 78.626 167.087 66.1756C167.087 53.7253 157.011 43.6323 144.582 43.6323H113.365C101.337 43.6323 91.5865 33.8649 91.5865 21.8161C91.5865 9.76742 101.337 0 113.365 0H147.486C159.915 0 169.99 10.093 169.99 22.5433C169.99 34.9937 180.066 45.0867 192.495 45.0867H233.149C245.578 45.0867 255.654 34.9937 255.654 22.5433C255.654 10.093 265.73 0 278.159 0H316.635C328.663 0 338.413 9.76742 338.413 21.8161C338.413 33.8649 328.663 43.6323 316.635 43.6323H285.418C272.989 43.6323 262.913 53.7253 262.913 66.1756Z" fill="#FBFBFE"/>
<path d="M441.5 28.361C441.5 15.9106 431.424 5.81764 418.995 5.81764H368.178C355.749 5.81764 345.673 15.9106 345.673 28.361C345.673 40.8113 335.597 50.9043 323.168 50.9043H291.952C279.924 50.9043 270.173 60.6717 270.173 72.7204C270.173 84.7692 279.924 94.5366 291.952 94.5366H326.072C338.501 94.5366 348.577 84.4436 348.577 71.9932C348.577 59.5429 358.653 49.4499 371.082 49.4499H411.736C424.165 49.4499 434.24 59.5429 434.24 71.9932C434.24 84.4436 444.316 94.5366 456.745 94.5366H495.221C507.249 94.5366 517 84.7692 517 72.7204C517 60.6717 507.249 50.9043 495.221 50.9043H464.005C451.576 50.9043 441.5 40.8113 441.5 28.361Z" fill="#FBFBFE"/>
<path d="M84.3269 170.663C84.3269 183.114 74.2512 193.207 61.8221 193.207H11.0048C-1.42426 193.207 -11.5 183.114 -11.5 170.663C-11.5 158.213 -21.5758 148.12 -34.0048 148.12H-65.2212C-77.2493 148.12 -87 138.353 -87 126.304C-87 114.255 -77.2493 104.488 -65.2212 104.488H-31.101C-18.6719 104.488 -8.59616 114.581 -8.59616 127.031C-8.59616 139.481 1.47958 149.574 13.9086 149.574H54.5625C66.9916 149.574 77.0673 139.481 77.0673 127.031C77.0673 114.581 87.1431 104.488 99.5721 104.488H138.048C150.076 104.488 159.827 114.255 159.827 126.304C159.827 138.353 150.076 148.12 138.048 148.12H106.832C94.4027 148.12 84.3269 158.213 84.3269 170.663Z" fill="#FBFBFE"/>
<path d="M262.913 132.849C262.913 120.398 252.838 110.305 240.409 110.305H189.591C177.162 110.305 167.087 120.398 167.087 132.849C167.087 145.299 157.011 155.392 144.582 155.392H113.365C101.337 155.392 91.5865 165.16 91.5865 177.208C91.5865 189.257 101.337 199.024 113.365 199.024H147.486C159.915 199.024 169.99 188.931 169.99 176.481C169.99 164.031 180.066 153.938 192.495 153.938H233.149C245.578 153.938 255.654 164.031 255.654 176.481C255.654 188.931 265.73 199.024 278.159 199.024H316.635C328.663 199.024 338.413 189.257 338.413 177.208C338.413 165.16 328.663 155.392 316.635 155.392H285.418C272.989 155.392 262.913 145.299 262.913 132.849Z" fill="#FBFBFE"/>
<path d="M441.5 170.663C441.5 183.114 431.424 193.207 418.995 193.207H368.178C355.749 193.207 345.673 183.114 345.673 170.663C345.673 158.213 335.597 148.12 323.168 148.12H291.952C279.924 148.12 270.173 138.353 270.173 126.304C270.173 114.255 279.924 104.488 291.952 104.488H326.072C338.501 104.488 348.577 114.581 348.577 127.031C348.577 139.481 358.653 149.574 371.082 149.574H411.736C424.165 149.574 434.24 139.481 434.24 127.031C434.24 114.581 444.316 104.488 456.745 104.488H495.221C507.249 104.488 517 114.255 517 126.304C517 138.353 507.249 148.12 495.221 148.12H464.005C451.576 148.12 441.5 158.213 441.5 170.663Z" fill="#FBFBFE"/>
<path d="M84.3269 237.337C84.3269 224.886 74.2512 214.793 61.8221 214.793H11.0048C-1.42426 214.793 -11.5 224.886 -11.5 237.337C-11.5 249.787 -21.5758 259.88 -34.0048 259.88H-65.2212C-77.2493 259.88 -87 269.647 -87 281.696C-87 293.745 -77.2493 303.512 -65.2212 303.512H-31.101C-18.6719 303.512 -8.59616 293.419 -8.59616 280.969C-8.59616 268.519 1.47958 258.426 13.9086 258.426H54.5625C66.9916 258.426 77.0673 268.519 77.0673 280.969C77.0673 293.419 87.1431 303.512 99.5721 303.512H138.048C150.076 303.512 159.827 293.745 159.827 281.696C159.827 269.647 150.076 259.88 138.048 259.88H106.832C94.4027 259.88 84.3269 249.787 84.3269 237.337Z" fill="#FBFBFE"/>
<path d="M262.913 275.151C262.913 287.602 252.838 297.695 240.409 297.695H189.591C177.162 297.695 167.087 287.602 167.087 275.151C167.087 262.701 157.011 252.608 144.582 252.608H113.365C101.337 252.608 91.5865 242.84 91.5865 230.792C91.5865 218.743 101.337 208.976 113.365 208.976H147.486C159.915 208.976 169.99 219.069 169.99 231.519C169.99 243.969 180.066 254.062 192.495 254.062H233.149C245.578 254.062 255.654 243.969 255.654 231.519C255.654 219.069 265.73 208.976 278.159 208.976H316.635C328.663 208.976 338.413 218.743 338.413 230.792C338.413 242.84 328.663 252.608 316.635 252.608H285.418C272.989 252.608 262.913 262.701 262.913 275.151Z" fill="#FBFBFE"/>
<path d="M441.5 237.337C441.5 224.886 431.424 214.793 418.995 214.793H368.178C355.749 214.793 345.673 224.886 345.673 237.337C345.673 249.787 335.597 259.88 323.168 259.88H291.952C279.924 259.88 270.173 269.647 270.173 281.696C270.173 293.745 279.924 303.512 291.952 303.512H326.072C338.501 303.512 348.577 293.419 348.577 280.969C348.577 268.519 358.653 258.426 371.082 258.426H411.736C424.165 258.426 434.24 268.519 434.24 280.969C434.24 293.419 444.316 303.512 456.745 303.512H495.221C507.249 303.512 517 293.745 517 281.696C517 269.647 507.249 259.88 495.221 259.88H464.005C451.576 259.88 441.5 249.787 441.5 237.337Z" fill="#FBFBFE"/>
<path d="M84.3269 379.639C84.3269 392.089 74.2512 402.182 61.8221 402.182H11.0048C-1.42426 402.182 -11.5 392.089 -11.5 379.639C-11.5 367.189 -21.5758 357.096 -34.0048 357.096H-65.2212C-77.2493 357.096 -87 347.328 -87 335.28C-87 323.231 -77.2493 313.463 -65.2212 313.463H-31.101C-18.6719 313.463 -8.59616 323.556 -8.59616 336.007C-8.59616 348.457 1.47958 358.55 13.9086 358.55H54.5625C66.9916 358.55 77.0673 348.457 77.0673 336.007C77.0673 323.556 87.1431 313.463 99.5721 313.463H138.048C150.076 313.463 159.827 323.231 159.827 335.28C159.827 347.328 150.076 357.096 138.048 357.096H106.832C94.4027 357.096 84.3269 367.189 84.3269 379.639Z" fill="#FBFBFE"/>
<path d="M262.913 341.824C262.913 329.374 252.838 319.281 240.409 319.281H189.591C177.162 319.281 167.087 329.374 167.087 341.824C167.087 354.275 157.011 364.368 144.582 364.368H113.365C101.337 364.368 91.5865 374.135 91.5865 386.184C91.5865 398.233 101.337 408 113.365 408H147.486C159.915 408 169.99 397.907 169.99 385.457C169.99 373.006 180.066 362.913 192.495 362.913H233.149C245.578 362.913 255.654 373.006 255.654 385.457C255.654 397.907 265.73 408 278.159 408H316.635C328.663 408 338.413 398.233 338.413 386.184C338.413 374.135 328.663 364.368 316.635 364.368H285.418C272.989 364.368 262.913 354.275 262.913 341.824Z" fill="#FBFBFE"/>
<path d="M441.5 379.639C441.5 392.089 431.424 402.182 418.995 402.182H368.178C355.749 402.182 345.673 392.089 345.673 379.639C345.673 367.189 335.597 357.096 323.168 357.096H291.952C279.924 357.096 270.173 347.328 270.173 335.28C270.173 323.231 279.924 313.463 291.952 313.463H326.072C338.501 313.463 348.577 323.556 348.577 336.007C348.577 348.457 358.653 358.55 371.082 358.55H411.736C424.165 358.55 434.24 348.457 434.24 336.007C434.24 323.556 444.316 313.463 456.745 313.463H495.221C507.249 313.463 517 323.231 517 335.28C517 347.328 507.249 357.096 495.221 357.096H464.005C451.576 357.096 441.5 367.189 441.5 379.639Z" fill="#FBFBFE"/>
</g>
</svg>
