<svg width="29" height="29" viewBox="0 0 29 29" fill="none" xmlns="http://www.w3.org/2000/svg">
<path d="M15.5 14.0861L19.7063 18.2925C19.8854 18.4724 19.9898 18.7141 19.9976 18.9678C20.0053 19.2218 19.9161 19.4692 19.7481 19.6597C19.5801 19.8503 19.3458 19.9698 19.0929 19.9939C18.8448 20.0175 18.5971 19.9476 18.398 19.7983L18.2821 19.696L13.7932 15.2071C13.6412 15.0549 13.5422 14.8576 13.5111 14.645L13.5 14.4828V7C13.5 6.73478 13.6054 6.48043 13.7929 6.29289C13.9804 6.10537 14.2348 6.00002 14.5 6C14.7449 6.00005 14.9813 6.08997 15.1643 6.25272C15.3441 6.41261 15.4601 6.63187 15.4913 6.87017L15.5 7.01496V14.0861Z" fill="#72CEC6"/>
<path fill-rule="evenodd" clip-rule="evenodd" d="M14.5 0C22.5084 0 29 6.49164 29 14.5C29 22.5084 22.5084 29 14.5 29C6.49164 29 0 22.5084 0 14.5C0 6.49164 6.49164 0 14.5 0ZM14.5 2C11.1848 2 8.00537 3.31696 5.66116 5.66117C3.31696 8.00537 2 11.1848 2 14.5C2 17.8152 3.31696 20.9946 5.66116 23.3388C8.00537 25.683 11.1848 27 14.5 27C17.8152 27 20.9946 25.683 23.3388 23.3388C25.683 20.9946 27 17.8152 27 14.5C27 11.1848 25.683 8.00537 23.3388 5.66117C20.9946 3.31696 17.8152 2 14.5 2Z" fill="#72CEC6"/>
</svg>
