<svg width="33" height="29" viewBox="0 0 33 29" fill="none" xmlns="http://www.w3.org/2000/svg">
<path fill-rule="evenodd" clip-rule="evenodd" d="M26.2 4.5V6.66667H28.4C29.6232 6.66667 30.7943 7.14313 31.6562 7.98817C32.5178 8.83288 33 9.97642 33 11.1667V24.5C33 25.6902 32.5178 26.8338 31.6562 27.6785C30.7943 28.5235 29.6232 29 28.4 29H4.6C3.37684 29 2.20573 28.5235 1.34379 27.6785C0.482186 26.8338 0 25.6902 0 24.5V4.5C0 3.30976 0.482186 2.16621 1.34379 1.3215C2.20573 0.476462 3.37684 0 4.6 0H21.6C22.8232 0 23.9943 0.476462 24.8562 1.3215C25.7178 2.16621 26.2 3.30976 26.2 4.5ZM4.6 6.66667H23.8V4.5C23.8 3.92213 23.5658 3.36998 23.1521 2.96445C22.7388 2.55925 22.1803 2.33333 21.6 2.33333H4.6C4.01968 2.33333 3.46119 2.55925 3.04788 2.96445C2.63424 3.36998 2.4 3.92213 2.4 4.5C2.4 5.07787 2.63424 5.63002 3.04788 6.03555C3.46119 6.44075 4.01968 6.66667 4.6 6.66667ZM28.4 20H30.6V15.6667H28.4C27.8197 15.6667 27.2612 15.8926 26.8479 16.2978C26.4342 16.7033 26.2 17.2555 26.2 17.8333C26.2 18.4112 26.4342 18.9633 26.8479 19.3689C27.2612 19.7741 27.8197 20 28.4 20ZM28.4 13.3333H30.6V11.1667C30.6 10.5888 30.3658 10.0367 29.9521 9.63112C29.5388 9.22592 28.9803 9 28.4 9H4.59927C4.07591 9.00076 3.55638 8.91414 3.06302 8.74399L2.4 8.51532V24.5C2.4 25.0779 2.63424 25.63 3.04788 26.0355C3.46119 26.4408 4.01968 26.6667 4.6 26.6667H28.4C28.9803 26.6667 29.5388 26.4408 29.9521 26.0355C30.3658 25.63 30.6 25.0779 30.6 24.5V22.3333H28.4C27.1768 22.3333 26.0057 21.8569 25.1438 21.0118C24.2822 20.1671 23.8 19.0236 23.8 17.8333C23.8 16.6431 24.2822 15.4995 25.1438 14.6548C26.0057 13.8098 27.1768 13.3333 28.4 13.3333Z" fill="#72CEC6"/>
</svg>
