<svg width="17" height="17" viewBox="0 0 17 17" fill="none" xmlns="http://www.w3.org/2000/svg">
<path d="M7.4984 1.28751C7.75335 0.237498 9.24665 0.237496 9.5016 1.28751L9.90258 2.93899C10.0673 3.61728 10.8444 3.93917 11.4405 3.576L12.8918 2.69176C13.8145 2.12957 14.8704 3.18549 14.3082 4.10823L13.424 5.55955C13.0608 6.15562 13.3827 6.93273 14.061 7.09742L15.7125 7.4984C16.7625 7.75335 16.7625 9.24665 15.7125 9.5016L14.061 9.90258C13.3827 10.0673 13.0608 10.8444 13.424 11.4405L14.3082 12.8918C14.8704 13.8145 13.8145 14.8704 12.8918 14.3082L11.4405 13.424C10.8444 13.0608 10.0673 13.3827 9.90258 14.061L9.5016 15.7125C9.24665 16.7625 7.75335 16.7625 7.4984 15.7125L7.09742 14.061C6.93273 13.3827 6.15562 13.0608 5.55955 13.424L4.10824 14.3082C3.18549 14.8704 2.12956 13.8145 2.69176 12.8918L3.576 11.4405C3.93917 10.8444 3.61729 10.0673 2.939 9.90258L1.28751 9.5016C0.237498 9.24665 0.237496 7.75335 1.28751 7.4984L2.93899 7.09742C3.61728 6.93273 3.93917 6.15562 3.576 5.55955L2.69176 4.10824C2.12957 3.18549 3.18549 2.12957 4.10824 2.69176L5.55955 3.576C6.15562 3.93917 6.93273 3.61729 7.09742 2.939L7.4984 1.28751Z" fill="#72CEC6"/>
</svg>
