<svg width="50" height="50" viewBox="0 0 50 50" fill="none" xmlns="http://www.w3.org/2000/svg">
<path opacity="0.4" d="M1 13V4.42857C1 2.53502 2.53502 1 4.42857 1H13M37 1H45.5714C47.465 1 49 2.53502 49 4.42857V13M13 49H4.42857C2.53502 49 1 47.465 1 45.5714L1 37M49 37V45.5714C49 47.465 47.465 49 45.5714 49H37" stroke="#ACADDF" stroke-linecap="round"/>
<path fill-rule="evenodd" clip-rule="evenodd" d="M33 25.2375V26.8125H30.8571C30.4134 26.8125 30.0536 27.1651 30.0536 27.6C30.0536 28.0349 30.4134 28.3875 30.8571 28.3875H33V29.5773C33 30.376 32.6581 31.1382 32.0575 31.6783C30.4143 33.1559 28.3812 33.9789 26.3036 34.1474V35.2125C26.3036 35.6474 25.9438 36 25.5 36C25.0562 36 24.6964 35.6474 24.6964 35.2125V34.1474C22.6188 33.9789 20.5856 33.1559 18.9425 31.6783C18.3419 31.1382 18 30.376 18 29.5773V21.3C18 19.3201 18 18.3301 18.6276 17.7151C19.2553 17.1 20.2654 17.1 22.2857 17.1H28.7143C30.7346 17.1 31.7447 17.1 32.3724 17.7151C32.9106 18.2425 32.9873 19.0457 32.9982 20.5125H30.8571C30.4134 20.5125 30.0536 20.8651 30.0536 21.3C30.0536 21.7349 30.4134 22.0875 30.8571 22.0875H33V23.6625H30.8571C30.4134 23.6625 30.0536 24.0151 30.0536 24.45C30.0536 24.8849 30.4134 25.2375 30.8571 25.2375H33ZM25.5 27.6C26.6835 27.6 27.6429 26.6207 27.6429 25.4125C27.6429 24.6566 26.8039 23.6477 26.176 22.9983C25.8042 22.6139 25.1958 22.6139 24.824 22.9983C24.1961 23.6477 23.3571 24.6566 23.3571 25.4125C23.3571 26.6207 24.3165 27.6 25.5 27.6Z" fill="#ACADDF"/>
<path d="M27.3562 16.05C26.9856 15.4223 26.2932 15 25.5 15C24.7068 15 24.0144 15.4223 23.6439 16.05H27.3562Z" fill="#ACADDF"/>
</svg>
