<svg width="50" height="50" viewBox="0 0 50 50" fill="none" xmlns="http://www.w3.org/2000/svg">
<path opacity="0.4" d="M1 13V4.42857C1 2.53502 2.53502 1 4.42857 1H13M37 1H45.5714C47.465 1 49 2.53502 49 4.42857V13M13 49H4.42857C2.53502 49 1 47.465 1 45.5714L1 37M49 37V45.5714C49 47.465 47.465 49 45.5714 49H37" stroke="#ACADDF" stroke-linecap="round"/>
<path d="M32.0668 14.2762C31.6986 13.9079 31.1016 13.9079 30.7334 14.2762C30.3652 14.6444 30.3652 15.2414 30.7334 15.6096L31.8952 16.7713L29.8189 18.8476L28.7586 17.7873C27.8111 16.8398 27.3374 16.3661 26.7987 16.17C26.2274 15.962 25.6011 15.962 25.0298 16.17C24.4911 16.3661 24.0173 16.8398 23.0699 17.7873L22.9238 17.9334L32.0665 27.0763L32.2126 26.9301C33.16 25.9827 33.6338 25.5089 33.8298 24.9702C34.0377 24.3989 34.0377 23.7726 33.8298 23.2013C33.6338 22.6625 33.16 22.1888 32.2126 21.2413L31.1523 20.181L33.2285 18.1047L34.3905 19.2667C34.7587 19.6349 35.3556 19.6349 35.7239 19.2667C36.092 18.8985 36.092 18.3015 35.7239 17.9333L32.0668 14.2762Z" fill="#ACADDF"/>
<path d="M17.6859 23.1714L21.5904 19.2668L30.7331 28.4096L29.3237 29.8191L25.6964 26.1918C25.3283 25.8235 24.7312 25.8235 24.3631 26.1918C23.9948 26.5599 23.9948 27.157 24.3631 27.5251L27.9903 31.1525L27.2666 31.8762L25.1975 29.807C24.8293 29.4389 24.2323 29.4389 23.8641 29.807C23.4959 30.1753 23.4959 30.7722 23.8641 31.1404L25.8457 33.122C23.5898 34.6305 20.5946 34.5673 18.4006 32.9326L15.6095 35.7239C15.2413 36.092 14.6444 36.092 14.2761 35.7239C13.908 35.3556 13.908 34.7586 14.2761 34.3905L17.0673 31.5991C15.1815 29.0677 15.3877 25.4697 17.6859 23.1714Z" fill="#ACADDF"/>
</svg>
