<svg width="50" height="50" viewBox="0 0 50 50" fill="none" xmlns="http://www.w3.org/2000/svg">
<path opacity="0.4" d="M1 13V4.42857C1 2.53502 2.53502 1 4.42857 1H13M37 1H45.5714C47.465 1 49 2.53502 49 4.42857V13M13 49H4.42857C2.53502 49 1 47.465 1 45.5714L1 37M49 37V45.5714C49 47.465 47.465 49 45.5714 49H37" stroke="#ACADDF" stroke-linecap="round"/>
<path fill-rule="evenodd" clip-rule="evenodd" d="M22.3115 16.9157C22.3115 15.3054 23.5154 14 25.0004 14C26.4855 14 27.6893 15.3054 27.6893 16.9157C27.6893 18.526 26.4855 19.8314 25.0004 19.8314C23.5154 19.8314 22.3115 18.526 22.3115 16.9157Z" fill="#ACADDF"/>
<path d="M21.3075 24.9461L19.1805 24.1774C18.5687 23.9562 18.156 23.3353 18.156 22.636C18.156 21.6017 19.0355 20.8307 19.9683 21.0474L21.8237 21.4785C21.9268 21.5025 21.9784 21.5145 22.0296 21.5259C23.9894 21.9655 26.0115 21.9655 27.9713 21.5259C28.0225 21.5145 28.0741 21.5025 28.1772 21.4785L30.0326 21.0474C30.9654 20.8307 31.8449 21.6017 31.8449 22.636C31.8449 23.3353 31.4322 23.9562 30.8204 24.1774L28.6934 24.9461C28.4363 25.039 28.3079 25.0855 28.2112 25.1502C27.882 25.3705 27.7036 25.7805 27.756 26.1961C27.7715 26.3181 27.8201 26.4552 27.9173 26.7294L29.1364 30.1664C29.4993 31.1894 28.8028 32.289 27.7919 32.289C27.275 32.289 26.7977 31.9888 26.5412 31.502L25.0004 28.5781L23.4597 31.502C23.2032 31.9888 22.7259 32.289 22.2089 32.289C21.198 32.289 20.5016 31.1894 20.8645 30.1664L22.0835 26.7294C22.1808 26.4552 22.2294 26.3181 22.2448 26.1961C22.2972 25.7805 22.1188 25.3705 21.7897 25.1502C21.693 25.0855 21.5645 25.039 21.3075 24.9461Z" fill="#ACADDF"/>
<path d="M25.0004 36C30.4005 36 34.7782 33.8639 34.7782 31.2289C34.7782 29.4033 32.6769 27.8172 29.5901 27.015L30.5053 29.5952C31.2377 31.6601 29.8321 33.8793 27.7919 33.8793C26.7487 33.8793 25.7854 33.2731 25.2679 32.2909L25.0004 31.7835L24.733 32.2909C24.2155 33.2731 23.2522 33.8793 22.2089 33.8793C20.1688 33.8793 18.7632 31.6601 19.4956 29.5952L20.4108 27.015C17.324 27.8172 15.2227 29.4033 15.2227 31.2289C15.2227 33.8639 19.6003 36 25.0004 36Z" fill="#ACADDF"/>
</svg>
