<svg width="50" height="50" viewBox="0 0 50 50" fill="none" xmlns="http://www.w3.org/2000/svg">
<path opacity="0.4" d="M1 13V4.42857C1 2.53502 2.53502 1 4.42857 1H13M37 1H45.5714C47.465 1 49 2.53502 49 4.42857V13M13 49H4.42857C2.53502 49 1 47.465 1 45.5714L1 37M49 37V45.5714C49 47.465 47.465 49 45.5714 49H37" stroke="#ACADDF" stroke-linecap="round"/>
<path d="M30.8211 31.5969L31.3933 31.0338C32.4168 30.0264 34.1109 30.0604 35.1772 31.1098C36.2434 32.1592 36.2779 33.8266 35.2544 34.834L34.6823 35.3972C34.634 35.2766 34.5724 35.1371 34.4942 34.9822C34.2412 34.482 33.8164 33.8248 33.1176 33.137C32.4187 32.4491 31.7509 32.0309 31.2426 31.782C31.0852 31.705 30.9435 31.6443 30.8211 31.5969Z" fill="#ACADDF"/>
<path d="M29.4507 32.9457L28.922 33.466C27.8985 34.4734 27.933 36.1408 28.9993 37.1902C30.0655 38.2396 31.7596 38.2735 32.7832 37.2662L33.3117 36.746L33.2003 36.2292L33.197 36.2168C33.1923 36.2 33.1832 36.1685 33.168 36.1241C33.1375 36.0353 33.083 35.895 32.9932 35.7171C32.8138 35.3622 32.4917 34.8544 31.9321 34.3036C31.3726 33.7529 30.8566 33.4359 30.4959 33.2593C30.3151 33.1708 30.1725 33.1172 30.0823 33.0872C30.0371 33.0722 30.0051 33.0631 29.988 33.0586L29.9754 33.0553L29.4507 32.9457Z" fill="#ACADDF"/>
<path d="M19.3204 16.6791C19.2353 16.8812 19.2353 17.1375 19.2353 17.65C19.2353 18.1625 19.2353 18.4188 19.3204 18.6209C19.4338 18.8905 19.6514 19.1046 19.9252 19.2163C20.1306 19.3 20.391 19.3 20.9118 19.3H30.9706C31.4913 19.3 31.7517 19.3 31.9571 19.2163C32.2309 19.1046 32.4485 18.8905 32.562 18.6209C32.647 18.4188 32.647 18.1625 32.647 17.65C32.647 17.1375 32.647 16.8812 32.562 16.6791C32.4485 16.4095 32.2309 16.1954 31.9571 16.0837C31.7517 16 31.4913 16 30.9706 16H20.9118C20.391 16 20.1306 16 19.9252 16.0837C19.6514 16.1954 19.4338 16.4095 19.3204 16.6791Z" fill="#ACADDF"/>
<path d="M21.1911 20.4L18.6778 22.3788C18.1277 22.812 17.6969 23.3606 17.4095 23.9749H34.4801C34.1963 23.3619 33.7698 22.8136 33.2246 22.3792L30.7406 20.4H21.1911Z" fill="#ACADDF"/>
<path fill-rule="evenodd" clip-rule="evenodd" d="M34.8823 25.799C34.8823 25.7408 34.8812 25.6828 34.8789 25.6249H17.0041C17.0014 25.688 17 25.7513 17 25.8146V32.7749H27.3203C27.4446 32.6092 27.5834 32.4501 27.7369 32.2991L30.208 29.867C31.4856 28.6097 33.3308 28.3524 34.8823 28.9749V25.799ZM26.7794 28.3749V26.9999C26.7794 26.5443 26.4041 26.1749 25.9412 26.1749C25.4782 26.1749 25.1029 26.5443 25.1029 26.9999V28.3749H23.7059C23.2429 28.3749 22.8676 28.7443 22.8676 29.1999C22.8676 29.6555 23.2429 30.0249 23.7059 30.0249H25.1029V31.3999C25.1029 31.8555 25.4782 32.2249 25.9412 32.2249C26.4041 32.2249 26.7794 31.8555 26.7794 31.3999V30.0249H28.1765C28.6394 30.0249 29.0147 29.6555 29.0147 29.1999C29.0147 28.7443 28.6394 28.3749 28.1765 28.3749H26.7794Z" fill="#ACADDF"/>
<path d="M26.5815 34.4249C26.3338 35.6582 26.6549 36.9794 27.4887 37.9999H22.5401C21.9018 37.9999 21.5826 37.9999 21.2801 37.9591C20.3827 37.8378 19.5439 37.4511 18.8747 36.8503C18.6491 36.6476 18.4448 36.4063 18.0362 35.9237C17.6596 35.479 17.3789 34.9691 17.2053 34.4249H26.5815Z" fill="#ACADDF"/>
</svg>
