<svg width="1920" height="61" viewBox="0 0 1920 61" fill="none" xmlns="http://www.w3.org/2000/svg">
<g opacity="0.1">
<path d="M-35.4649 30.3C-35.4649 16.9984 -46.1998 6.21539 -59.4419 6.21539H-113.584C-126.826 6.21539 -137.561 16.9984 -137.561 30.3C-137.561 43.6016 -148.296 54.3846 -161.538 54.3846H-194.796C-207.611 54.3846 -218 64.8198 -218 77.6923C-218 90.5648 -207.611 101 -194.796 101H-158.444C-145.202 101 -134.467 90.2169 -134.467 76.9154C-134.467 63.6138 -123.732 52.8308 -110.49 52.8308H-67.1765C-53.9343 52.8308 -43.1994 63.6138 -43.1994 76.9154C-43.1994 90.2169 -32.4645 101 -19.2223 101H21.7707C34.5857 101 44.9743 90.5648 44.9743 77.6923C44.9743 64.8198 34.5857 54.3846 21.7707 54.3846H-11.4878C-24.73 54.3846 -35.4649 43.6016 -35.4649 30.3Z" fill="#FBFBFE"/>
<path d="M154.805 70.7C154.805 84.0016 144.07 94.7846 130.828 94.7846H76.686C63.4438 94.7846 52.7089 84.0016 52.7089 70.7C52.7089 57.3984 41.974 46.6154 28.7318 46.6154H-4.52672C-17.3417 46.6154 -27.7303 36.1802 -27.7303 23.3077C-27.7303 10.4352 -17.3417 1.95304e-06 -4.52672 1.95304e-06H31.8256C45.0678 1.95304e-06 55.8027 10.783 55.8027 24.0846C55.8027 37.3862 66.5376 48.1692 79.7798 48.1692H123.093C136.335 48.1692 147.07 37.3862 147.07 24.0846C147.07 10.783 157.805 1.95304e-06 171.047 1.95304e-06H212.04C224.855 1.95304e-06 235.244 10.4352 235.244 23.3077C235.244 36.1802 224.855 46.6154 212.04 46.6154H178.782C165.54 46.6154 154.805 57.3984 154.805 70.7Z" fill="#FBFBFE"/>
<path d="M345.074 30.3C345.074 16.9984 334.34 6.21539 321.097 6.21539H266.956C253.713 6.21539 242.979 16.9984 242.979 30.3C242.979 43.6016 232.244 54.3846 219.001 54.3846H185.743C172.928 54.3846 162.539 64.8198 162.539 77.6923C162.539 90.5648 172.928 101 185.743 101H222.095C235.337 101 246.072 90.2169 246.072 76.9154C246.072 63.6138 256.807 52.8308 270.049 52.8308H313.363C326.605 52.8308 337.34 63.6138 337.34 76.9154C337.34 90.2169 348.075 101 361.317 101H402.31C415.125 101 425.514 90.5648 425.514 77.6923C425.514 64.8198 415.125 54.3846 402.31 54.3846H369.052C355.809 54.3846 345.074 43.6016 345.074 30.3Z" fill="#FBFBFE"/>
<path d="M535.54 70.7C535.54 84.0016 524.805 94.7846 511.563 94.7846H457.421C444.179 94.7846 433.444 84.0016 433.444 70.7C433.444 57.3984 422.709 46.6154 409.467 46.6154H376.209C363.394 46.6154 353.005 36.1802 353.005 23.3077C353.005 10.4352 363.394 0 376.209 0H412.561C425.803 0 436.538 10.783 436.538 24.0846C436.538 37.3862 447.273 48.1692 460.515 48.1692H503.829C517.071 48.1692 527.806 37.3862 527.806 24.0846C527.806 10.783 538.541 0 551.783 0H592.776C605.591 0 615.979 10.4352 615.979 23.3077C615.979 36.1802 605.591 46.6154 592.776 46.6154H559.517C546.275 46.6154 535.54 57.3984 535.54 70.7Z" fill="#FBFBFE"/>
<path d="M725.81 30.3C725.81 16.9984 715.075 6.21538 701.833 6.21538H647.691C634.449 6.21538 623.714 16.9984 623.714 30.3C623.714 43.6016 612.979 54.3846 599.737 54.3846H566.478C553.663 54.3846 543.275 64.8198 543.275 77.6923C543.275 90.5648 553.663 101 566.478 101H602.831C616.073 101 626.808 90.2169 626.808 76.9154C626.808 63.6138 637.543 52.8308 650.785 52.8308H694.098C707.34 52.8308 718.075 63.6138 718.075 76.9154C718.075 90.2169 728.81 101 742.052 101H783.045C795.86 101 806.249 90.5648 806.249 77.6923C806.249 64.8198 795.86 54.3846 783.045 54.3846H749.787C736.545 54.3846 725.81 43.6016 725.81 30.3Z" fill="#FBFBFE"/>
<path d="M916.08 70.7C916.08 84.0016 905.345 94.7846 892.103 94.7846H837.961C824.719 94.7846 813.984 84.0016 813.984 70.7C813.984 57.3984 803.249 46.6154 790.007 46.6154H756.748C743.933 46.6154 733.544 36.1802 733.544 23.3077C733.544 10.4352 743.933 0 756.748 0H793.1C806.343 0 817.078 10.783 817.078 24.0846C817.078 37.3862 827.812 48.1692 841.055 48.1692H884.368C897.61 48.1692 908.345 37.3862 908.345 24.0846C908.345 10.783 919.08 0 932.322 0H973.315C986.13 0 996.519 10.4352 996.519 23.3077C996.519 36.1802 986.13 46.6154 973.315 46.6154H940.057C926.815 46.6154 916.08 57.3984 916.08 70.7Z" fill="#FBFBFE"/>
<path d="M1107.02 30.3C1107.02 16.9984 1096.28 6.21539 1083.04 6.21539H1028.9C1015.66 6.21539 1004.92 16.9984 1004.92 30.3C1004.92 43.6016 994.185 54.3846 980.943 54.3846H947.685C934.87 54.3846 924.481 64.8198 924.481 77.6923C924.481 90.5648 934.87 101 947.685 101H984.037C997.279 101 1008.01 90.2169 1008.01 76.9154C1008.01 63.6138 1018.75 52.8308 1031.99 52.8308H1075.3C1088.55 52.8308 1099.28 63.6138 1099.28 76.9154C1099.28 90.2169 1110.02 101 1123.26 101H1164.25C1177.07 101 1187.46 90.5648 1187.46 77.6923C1187.46 64.8198 1177.07 54.3846 1164.25 54.3846H1130.99C1117.75 54.3846 1107.02 43.6016 1107.02 30.3Z" fill="#FBFBFE"/>
<path d="M1297.29 70.7C1297.29 84.0016 1286.55 94.7846 1273.31 94.7846H1219.17C1205.93 94.7846 1195.19 84.0016 1195.19 70.7C1195.19 57.3984 1184.46 46.6154 1171.21 46.6154H1137.95C1125.14 46.6154 1114.75 36.1802 1114.75 23.3077C1114.75 10.4352 1125.14 1.95304e-06 1137.95 1.95304e-06H1174.31C1187.55 1.95304e-06 1198.28 10.783 1198.28 24.0846C1198.28 37.3862 1209.02 48.1692 1222.26 48.1692H1265.57C1278.82 48.1692 1289.55 37.3862 1289.55 24.0846C1289.55 10.783 1300.29 1.95304e-06 1313.53 1.95304e-06H1354.52C1367.34 1.95304e-06 1377.73 10.4352 1377.73 23.3077C1377.73 36.1802 1367.34 46.6154 1354.52 46.6154H1321.26C1308.02 46.6154 1297.29 57.3984 1297.29 70.7Z" fill="#FBFBFE"/>
<path d="M1487.56 30.3C1487.56 16.9984 1476.82 6.21539 1463.58 6.21539H1409.44C1396.19 6.21539 1385.46 16.9984 1385.46 30.3C1385.46 43.6016 1374.72 54.3846 1361.48 54.3846H1328.22C1315.41 54.3846 1305.02 64.8198 1305.02 77.6923C1305.02 90.5648 1315.41 101 1328.22 101H1364.58C1377.82 101 1388.55 90.2169 1388.55 76.9154C1388.55 63.6138 1399.29 52.8308 1412.53 52.8308H1455.84C1469.09 52.8308 1479.82 63.6138 1479.82 76.9154C1479.82 90.2169 1490.56 101 1503.8 101H1544.79C1557.61 101 1567.99 90.5648 1567.99 77.6923C1567.99 64.8198 1557.61 54.3846 1544.79 54.3846H1511.53C1498.29 54.3846 1487.56 43.6016 1487.56 30.3Z" fill="#FBFBFE"/>
<path d="M1678.02 70.7C1678.02 84.0016 1667.29 94.7846 1654.04 94.7846H1599.9C1586.66 94.7846 1575.93 84.0016 1575.93 70.7C1575.93 57.3984 1565.19 46.6154 1551.95 46.6154H1518.69C1505.87 46.6154 1495.49 36.1802 1495.49 23.3077C1495.49 10.4352 1505.87 0 1518.69 0H1555.04C1568.28 0 1579.02 10.783 1579.02 24.0846C1579.02 37.3862 1589.75 48.1692 1603 48.1692H1646.31C1659.55 48.1692 1670.29 37.3862 1670.29 24.0846C1670.29 10.783 1681.02 0 1694.26 0H1735.26C1748.07 0 1758.46 10.4352 1758.46 23.3077C1758.46 36.1802 1748.07 46.6154 1735.26 46.6154H1702C1688.76 46.6154 1678.02 57.3984 1678.02 70.7Z" fill="#FBFBFE"/>
<path d="M1868.29 30.3C1868.29 16.9984 1857.56 6.21538 1844.31 6.21538H1790.17C1776.93 6.21538 1766.2 16.9984 1766.2 30.3C1766.2 43.6016 1755.46 54.3846 1742.22 54.3846H1708.96C1696.14 54.3846 1685.76 64.8198 1685.76 77.6923C1685.76 90.5648 1696.14 101 1708.96 101H1745.31C1758.55 101 1769.29 90.2169 1769.29 76.9154C1769.29 63.6138 1780.02 52.8308 1793.27 52.8308H1836.58C1849.82 52.8308 1860.56 63.6138 1860.56 76.9154C1860.56 90.2169 1871.29 101 1884.53 101H1925.53C1938.34 101 1948.73 90.5648 1948.73 77.6923C1948.73 64.8198 1938.34 54.3846 1925.53 54.3846H1892.27C1879.03 54.3846 1868.29 43.6016 1868.29 30.3Z" fill="#FBFBFE"/>
<path d="M2058.56 70.7C2058.56 84.0016 2047.83 94.7846 2034.58 94.7846H1980.44C1967.2 94.7846 1956.46 84.0016 1956.46 70.7C1956.46 57.3984 1945.73 46.6154 1932.49 46.6154H1899.23C1886.41 46.6154 1876.03 36.1802 1876.03 23.3077C1876.03 10.4352 1886.41 0 1899.23 0H1935.58C1948.82 0 1959.56 10.783 1959.56 24.0846C1959.56 37.3862 1970.29 48.1692 1983.54 48.1692H2026.85C2040.09 48.1692 2050.83 37.3862 2050.83 24.0846C2050.83 10.783 2061.56 0 2074.8 0H2115.8C2128.61 0 2139 10.4352 2139 23.3077C2139 36.1802 2128.61 46.6154 2115.8 46.6154H2082.54C2069.3 46.6154 2058.56 57.3984 2058.56 70.7Z" fill="#FBFBFE"/>
</g>
</svg>
