<svg width="15" height="15" viewBox="0 0 15 15" fill="none" xmlns="http://www.w3.org/2000/svg">
<path d="M6.95721 0.413024C7.12806 -0.137676 7.87195 -0.137674 8.04279 0.413026L9.42204 4.8588C9.49845 5.10508 9.71758 5.27183 9.96484 5.27183H14.4282C14.9811 5.27183 15.2109 6.01279 14.7636 6.35314L11.1527 9.10078C10.9527 9.25299 10.869 9.52279 10.9454 9.76907L12.3246 14.2148C12.4955 14.7655 11.8937 15.2235 11.4464 14.8831L7.83547 12.1355C7.63543 11.9833 7.36457 11.9833 7.16454 12.1355L3.55361 14.8831C3.10633 15.2235 2.50451 14.7655 2.67536 14.2148L4.05461 9.76907C4.13101 9.52279 4.04731 9.25299 3.84728 9.10078L0.236355 6.35314C-0.210931 6.01279 0.0189456 5.27183 0.571822 5.27183H5.03516C5.28242 5.27183 5.50155 5.10508 5.57796 4.8588L6.95721 0.413024Z" fill="#FFD471"/>
</svg>
